<svg width="660" height="1264" viewBox="0 0 660 1264" fill="none" xmlns="http://www.w3.org/2000/svg">
<path d="M459.358 929.973L488.063 968.148L508.173 939.235L459.358 885.095V929.973Z" stroke="#BCD0ED" stroke-width="3.29723" stroke-miterlimit="10"/>
<path d="M459.358 811.51L501.879 772.056L459.358 656.253" stroke="#BCD0ED" stroke-width="3.29723" stroke-miterlimit="10"/>
<path d="M495.036 626.983L509.466 613.627L498.516 583.486" stroke="#BCD0ED" stroke-width="3.29723" stroke-miterlimit="10"/>
<path d="M485.315 726.257L516.988 690.334L479.993 583.538" stroke="#BCD0ED" stroke-width="3.29723" stroke-miterlimit="10"/>
<path d="M459.358 863.91L524.495 917.845L492.72 922.093L459.358 885.095V863.91Z" stroke="#BCD0ED" stroke-width="3.29723" stroke-miterlimit="10"/>
<path d="M459.358 965.026L488.063 968.148" stroke="#BCD0ED" stroke-width="3.29723" stroke-miterlimit="10"/>
<path d="M443.654 553.5L459.363 553.551V589.218H391.616" stroke="#BCD0ED" stroke-width="3.29723" stroke-miterlimit="10"/>
<path d="M233.747 287.455C225.407 286.636 217.22 285.664 209.135 284.64C196.458 295.57 185.244 308.091 175.773 321.894C184.776 330.459 191.864 340.831 196.575 352.33C201.285 363.829 203.51 376.194 203.104 388.613C202.699 401.033 199.671 413.226 194.22 424.393C188.768 435.56 181.017 445.447 171.475 453.406L169.173 455.044" stroke="#BCD0ED" stroke-width="3.29723" stroke-miterlimit="10"/>
<path d="M436.229 287.455C445.286 286.534 454.189 285.51 462.99 284.384C475.718 295.347 486.982 307.902 496.506 321.74C487.834 329.962 480.929 339.865 476.214 350.846C471.498 361.826 469.071 373.653 469.079 385.603C469.146 408.512 478.055 430.51 493.947 447.01L495.943 449.415" stroke="#BCD0ED" stroke-width="3.29723" stroke-miterlimit="10"/>
<path d="M455.152 546.335L480.123 583.537H555.238" stroke="#BCD0ED" stroke-width="3.29723" stroke-linejoin="round"/>
<path d="M248.134 1087.23C237.012 1103.13 224.215 1117.8 209.962 1130.98L245.78 1148.94" stroke="#BCD0ED" stroke-width="3.29723" stroke-miterlimit="10"/>
<path d="M256.523 1132.56C245.892 1150.69 232.67 1167.17 217.277 1181.48L247.978 1196.84C253.914 1190.76 259.542 1184.38 264.864 1177.7" stroke="#BCD0ED" stroke-width="3.29723" stroke-miterlimit="10"/>
<path d="M187.29 638.548L56.1454 833.002C56.1454 833.002 106.444 857.002 140.932 805.983C162.115 774.768 183.606 744.986 196.552 727.383" stroke="#BCD0ED" stroke-width="3.29723" stroke-miterlimit="10"/>
<path d="M231.21 914.826L215.758 831.313L192.885 707.476L255.516 695.962L344.907 1180.31L282.328 1191.87" stroke="#BCD0ED" stroke-width="3.29723" stroke-miterlimit="10"/>
<path d="M310.568 1261.36L187.661 1261.47L267.944 1194.53" stroke="#BCD0ED" stroke-width="3.29723" stroke-miterlimit="10"/>
<path d="M391.718 1200.11L414.232 1217.97V946.911H391.616L391.718 1200.11Z" stroke="#BCD0ED" stroke-width="3.29723" stroke-miterlimit="10"/>
<path d="M414.218 1217.97L459.348 1254.87V1028.22H414.218V1217.97Z" stroke="#BCD0ED" stroke-width="3.29723" stroke-miterlimit="10"/>
<path d="M229.554 558.668L344.888 1180.31L380.553 1173.71L271.717 586.71" stroke="#BCD0ED" stroke-width="3.29723" stroke-miterlimit="10"/>
<path d="M306.125 770.831L270.45 777.418L281.272 836.043L316.948 829.456L306.125 770.831Z" stroke="#BCD0ED" stroke-width="3.29723" stroke-miterlimit="10"/>
<path d="M314.538 827.22L278.985 833.751L313.256 1020.35L348.809 1013.82L314.538 827.22Z" stroke="#BCD0ED" stroke-width="3.28534" stroke-miterlimit="10"/>
<path d="M414.181 589.218H391.616V849.377H414.181V589.218Z" stroke="#BCD0ED" stroke-width="3.29723" stroke-miterlimit="10"/>
<path d="M414.181 849.326H391.616V946.911H414.181V849.326Z" stroke="#BCD0ED" stroke-width="3.29723" stroke-miterlimit="10"/>
<path d="M288.818 597.303L312.151 723.596H322.691" stroke="#BCD0ED" stroke-width="3.29723" stroke-miterlimit="10"/>
<path d="M322.678 619.358V723.596H361.566V607.64" stroke="#BCD0ED" stroke-width="3.29723" stroke-miterlimit="10"/>
<path d="M459.348 849.326H414.218V1028.17H459.348V849.326Z" stroke="#BCD0ED" stroke-width="3.29723" stroke-miterlimit="10"/>
<path d="M436.783 762.64H414.218" stroke="#BCD0ED" stroke-width="3.29723" stroke-miterlimit="10"/>
<path d="M459.35 675.954H436.784V849.377H459.35V675.954Z" stroke="#BCD0ED" stroke-width="3.29723" stroke-miterlimit="10"/>
<path d="M414.218 675.955H459.348V589.218" stroke="#BCD0ED" stroke-width="3.29723" stroke-miterlimit="10"/>
<path d="M315.88 1023.31L344.892 1180.31L267.935 1194.53L220.655 938.314L260.31 930.997" stroke="#BCD0ED" stroke-width="3.29723" stroke-miterlimit="10"/>
<path d="M467.396 1261.36L310.206 1261.42L318.905 1254.3L388.955 1198.22L467.396 1261.36Z" stroke="#BCD0ED" stroke-width="3.29723" stroke-miterlimit="10"/>
<path d="M337.111 1138.35L267.931 1192.44V1194.53" stroke="#BCD0ED" stroke-width="3.29723" stroke-miterlimit="10"/>
<path d="M221.013 938.314L220.655 937.189L277.861 817.292" stroke="#BCD0ED" stroke-width="3.29723" stroke-miterlimit="10"/>
<path d="M316.352 1025.56L285.293 857.309L254.745 922.195L316.352 1025.56Z" stroke="#BCD0ED" stroke-width="3.29723" stroke-miterlimit="10"/>
<path d="M320.751 849.326H391.619" stroke="#BCD0ED" stroke-width="3.29723" stroke-miterlimit="10"/>
<path d="M94.2714 837.863L66.0775 879.62C66.0775 879.62 115.251 906.229 157.209 843.236C169.796 824.405 176.243 815.552 187.296 800.149H144.928" stroke="#BCD0ED" stroke-width="3.29723" stroke-miterlimit="10"/>
<path d="M195.53 582.104C185.296 613.575 183.659 658.402 192.562 706.555" stroke="#BCD0ED" stroke-width="3.29723" stroke-miterlimit="10"/>
<path d="M138.435 580.774L199.94 582.258L214.216 548.434" stroke="#BCD0ED" stroke-width="3.29723" stroke-miterlimit="10"/>
<path d="M405.699 38.3484C400.32 30.892 394.162 24.0303 387.329 17.8795C381.528 12.3688 375.374 7.24079 368.908 2.52783H261.147C261.147 2.52783 251.937 26.0671 248.56 32.2077L245.234 38.3484H405.699Z" stroke="#BCD0ED" stroke-width="3.29723" stroke-miterlimit="10"/>
<path d="M199.731 409.091H197.479C172.355 409.091 151.428 427.513 147.795 447.419" stroke="#BCD0ED" stroke-width="3.29723" stroke-miterlimit="10"/>
<path d="M202.441 380.896H199.882C168.363 380.896 142.471 396.605 142.471 416" stroke="#BCD0ED" stroke-width="3.29723" stroke-miterlimit="10"/>
<path d="M195.981 352.188C176.486 353.518 160.163 360.887 151.413 371.224" stroke="#BCD0ED" stroke-width="3.29723" stroke-miterlimit="10"/>
<path d="M472.201 409.091H474.811C497.069 409.091 516.513 418.302 525.979 431.607" stroke="#BCD0ED" stroke-width="3.29723" stroke-miterlimit="10"/>
<path d="M469.654 380.896H472.264C503.784 380.896 529.777 396.605 529.777 416" stroke="#BCD0ED" stroke-width="3.29723" stroke-miterlimit="10"/>
<path d="M476.049 352.188C495.545 353.518 511.867 360.887 520.617 371.224" stroke="#BCD0ED" stroke-width="3.29723" stroke-miterlimit="10"/>
<path d="M60.5597 414.26C46.4804 401.903 34.489 387.353 25.0487 371.173C17.4899 358.855 11.7832 345.492 8.11191 331.514C8.11191 331.514 38.1479 345.28 63.4763 354.235" stroke="#BCD0ED" stroke-width="3.29723" stroke-miterlimit="10"/>
<path d="M107.328 392.512C107.328 392.512 22.8996 345.28 8.11191 331.514" stroke="#BCD0ED" stroke-width="3.29723" stroke-miterlimit="10"/>
<path d="M104.86 326.039C79.4804 307.514 3.85327 250.099 3.85327 250.099V317.237C3.85327 317.237 86.7464 371.121 109.568 378.03" stroke="#BCD0ED" stroke-width="3.29723" stroke-miterlimit="10"/>
<path d="M80.5693 353.979C80.5781 358.028 81.4686 362.027 83.1789 365.697C91.5514 370.672 100.354 374.885 109.48 378.285C112.722 364.487 117.245 351.022 122.988 338.064C121.197 336.938 114.238 332.282 104.926 326.039C98.1617 326.935 91.9568 330.267 87.4732 335.41C82.9896 340.554 80.535 347.155 80.5693 353.979V353.979Z" stroke="#BCD0ED" stroke-width="3.29723" stroke-miterlimit="10"/>
<path d="M48.7777 344.87C46.6657 340.968 45.6048 336.583 45.6991 332.147C45.7934 327.711 47.0397 323.376 49.3157 319.567C51.5916 315.758 54.8189 312.606 58.6807 310.421C62.5426 308.237 66.9061 307.094 71.343 307.105C74.3385 307.147 77.3288 307.369 80.2975 307.77" stroke="#BCD0ED" stroke-width="3.29723" stroke-miterlimit="10"/>
<path d="M48.7421 284.026C48.7421 284.026 39.6341 282.849 37.7921 282.849C30.5351 283.09 23.6696 286.198 18.7009 291.493C13.7323 296.789 11.066 303.838 11.2867 311.096C11.4456 315.815 12.726 320.429 15.022 324.554" stroke="#BCD0ED" stroke-width="3.29723" stroke-miterlimit="10"/>
<path d="M47.4088 282.338V241.4C47.4088 241.4 84.2502 274.099 108.044 290.986C131.837 307.873 137.67 310.022 137.67 310.022" stroke="#BCD0ED" stroke-width="3.29723" stroke-miterlimit="10"/>
<path d="M607.742 410.831C619.208 399.071 628.911 385.713 636.55 371.173C649.495 345.586 655.891 335.352 655.891 335.352C655.891 335.352 624.679 345.587 601.704 354.388" stroke="#BCD0ED" stroke-width="3.29723" stroke-miterlimit="10"/>
<path d="M565.994 326.039C590.759 309.817 655.743 250.099 655.743 250.099V317.237L585.642 365.441" stroke="#BCD0ED" stroke-width="3.29723" stroke-miterlimit="10"/>
<path d="M549.617 338.064L565.991 326.039C572.349 327.287 578.055 330.759 582.087 335.831C586.118 340.904 588.212 347.247 587.994 353.723C587.995 357.746 587.195 361.73 585.64 365.441C578.246 370.343 570.419 374.557 562.256 378.03" stroke="#BCD0ED" stroke-width="3.29723" stroke-miterlimit="10"/>
<path d="M615.318 345.228C617.373 340.867 618.505 336.128 618.644 331.309C618.451 324.584 615.693 318.188 610.936 313.431C606.18 308.674 599.784 305.916 593.059 305.723" stroke="#BCD0ED" stroke-width="3.29723" stroke-miterlimit="10"/>
<path d="M618.87 283.412C620.895 283.04 622.95 282.852 625.01 282.849C638.262 282.849 649.059 295.489 649.059 311.096C649.008 315.657 647.942 320.15 645.938 324.247" stroke="#BCD0ED" stroke-width="3.29723" stroke-miterlimit="10"/>
<path d="M618.848 283.924V241.093C618.848 241.093 583.03 273.894 561.335 290.781C539.639 307.668 534.471 309.817 534.471 309.817" stroke="#BCD0ED" stroke-width="3.29723" stroke-miterlimit="10"/>
<path d="M197.317 537.738C193.437 549.884 185.899 560.534 175.735 568.231C165.571 575.928 153.277 580.297 140.536 580.739C127.794 581.182 115.227 577.676 104.553 570.703C93.8799 563.729 85.6217 553.628 80.9084 541.781" stroke="#BCD0ED" stroke-width="3.29723" stroke-miterlimit="10"/>
<path d="M47.3463 504.783L2.21561 548.996V619.204L99.7941 523.205" stroke="#BCD0ED" stroke-width="3.29723" stroke-miterlimit="10"/>
<path d="M498.506 518.651L555.252 583.537V551.094" stroke="#BCD0ED" stroke-width="3.29723" stroke-linejoin="round"/>
<path d="M591.026 547.819L555.259 583.537V551.094L580.075 526.173L591.026 509.184V547.819Z" stroke="#BCD0ED" stroke-width="3.29723" stroke-linejoin="round"/>
<path d="M203.16 38.3486L238.978 83.2779" stroke="#BCD0ED" stroke-width="3.29723" stroke-miterlimit="10"/>
<path d="M444.676 114.902H461.511L461.664 38.3486H203.16V108.71" stroke="#BCD0ED" stroke-width="3.29723" stroke-miterlimit="10"/>
<path d="M398.216 67.9262L444.626 38.3486" stroke="#BCD0ED" stroke-width="3.29723" stroke-miterlimit="10"/>
<path d="M283.445 37.3252L289.534 65.8793" stroke="#BCD0ED" stroke-width="3.29723" stroke-miterlimit="10"/>
<path d="M461.51 69.9219L430.195 88.7533" stroke="#BCD0ED" stroke-width="3.29723" stroke-miterlimit="10"/>
<path d="M429.224 87.8832C441.607 79.1328 449.385 67.4143 450.101 57.1799C439.867 52.0627 422.675 53.2908 407.068 62.2971C404.031 63.8494 401.077 65.5574 398.216 67.4143" stroke="#BCD0ED" stroke-width="2.77661" stroke-miterlimit="10"/>
<path d="M443.246 113.469C447.304 110.819 450.793 107.385 453.508 103.37C456.223 99.354 458.109 94.837 459.057 90.0831C454.544 87.9303 449.641 86.716 444.646 86.5137C439.65 86.3113 434.665 87.1253 429.993 88.9062" stroke="#BCD0ED" stroke-width="2.77661" stroke-miterlimit="10"/>
<path d="M318.648 52.0624C315.407 46.3138 310.132 41.9871 303.86 39.9346C299.169 42.6949 295.341 46.711 292.81 51.5301C290.278 56.3492 289.143 61.7797 289.533 67.2094" stroke="#BCD0ED" stroke-width="2.77661" stroke-miterlimit="10"/>
<path d="M344.954 52.6764C342.253 46.8542 337.523 42.2155 331.65 39.6274C326.866 41.737 322.804 45.202 319.967 49.5945C317.13 53.987 315.641 59.1146 315.686 64.3436C315.633 65.2469 315.633 66.1525 315.686 67.0558" stroke="#BCD0ED" stroke-width="2.77661" stroke-miterlimit="10"/>
<path d="M371.608 52.6764C368.923 46.8605 364.211 42.2217 358.355 39.6274C353.237 41.9648 348.964 45.8224 346.116 50.6753C343.269 55.5281 341.986 61.1406 342.441 66.7487" stroke="#BCD0ED" stroke-width="2.77661" stroke-miterlimit="10"/>
<path d="M398.227 52.6764C395.537 46.8459 390.804 42.2036 384.923 39.6274C380.138 41.737 376.077 45.202 373.239 49.5945C370.402 53.987 368.914 59.1146 368.958 64.3436C368.958 65.2647 368.958 66.237 368.958 67.1581" stroke="#BCD0ED" stroke-width="2.77661" stroke-miterlimit="10"/>
<path d="M423.955 50.8342C421.136 45.8488 416.772 41.9155 411.522 39.6274C406.311 42.011 401.99 45.9837 399.177 50.9756C396.364 55.9675 395.204 61.7221 395.864 67.414" stroke="#BCD0ED" stroke-width="2.77661" stroke-miterlimit="10"/>
<path d="M238.351 84.5565C228.118 72.3775 214.66 65.8275 204.529 66.8509C201.868 76.676 206.218 91.1066 214.763 100.88" stroke="#BCD0ED" stroke-width="2.77661" stroke-miterlimit="10"/>
<path d="M258.31 56.0028C255.201 51.4881 251.19 47.6661 246.532 44.7775C241.873 41.8888 236.667 39.996 231.241 39.2183C226.125 48.941 227.711 64.395 235.949 78.6209C237.11 80.613 238.373 82.5431 239.735 84.4033" stroke="#BCD0ED" stroke-width="2.77661" stroke-miterlimit="10"/>
<path d="M288.704 67.4141C287.769 61.0801 285.085 55.1326 280.954 50.2415C276.823 45.3504 271.408 41.7099 265.319 39.73C258.616 46.9453 256.058 60.1989 259.384 73.7595" stroke="#BCD0ED" stroke-width="2.77661" stroke-miterlimit="10"/>
<path d="M238.252 215.149L231.804 193.81C231.776 190.937 232.343 188.09 233.47 185.447C234.597 182.805 236.26 180.425 238.354 178.458C245.23 170.726 249.601 161.092 250.89 150.825L230.423 122.424C230.423 122.424 229.655 120.992 222.901 116.898C216.582 114.126 209.999 112 203.252 110.552V108.71C203.252 108.71 233.954 87.8832 245.108 81.0261C257.224 73.212 271.03 68.4049 285.378 67.0049H390.478C390.478 67.0049 411.764 67.0049 423.635 79.1327C429.418 85.0687 442.824 111.985 442.824 111.985C442.824 111.985 447.941 123.601 441.493 131.021C436.391 136.349 430.826 141.212 424.863 145.554C426.665 157.42 427.776 169.38 428.189 181.375C428.016 192.587 425.904 203.684 421.947 214.176" stroke="#BCD0ED" stroke-width="3.29723" stroke-miterlimit="10"/>
<path fill-rule="evenodd" clip-rule="evenodd" d="M259.243 106.561C261.592 110.612 264.408 114.373 267.634 117.767C268.387 118.473 269.191 119.123 270.039 119.712C270.929 120.381 271.752 121.135 272.495 121.963C273.195 122.74 273.796 123.599 274.286 124.522C274.521 124.951 274.727 125.395 274.9 125.852V126.569C274.92 126.653 274.92 126.741 274.9 126.825V127.132L276.384 126.62L278.175 126.006L281.04 125.034C282.627 124.522 283.548 124.368 283.599 124.522C283.65 124.676 282.883 125.187 281.45 125.955L278.738 127.336L277.049 128.155L274.593 129.332C274.272 129.253 273.962 129.133 273.672 128.974L272.905 128.309C271.881 124.113 269.323 122.885 265.383 119.712C261.8 116.27 258.717 112.343 256.224 108.045L259.243 106.561Z" fill="#BCD0ED"/>
<path d="M380.771 202.97C382.869 125.188 380.771 113.265 380.055 107.226C379.339 101.188 354.471 70.2288 346.437 68.0284C337.714 66.9435 328.884 67.0467 320.188 68.3354C320.188 68.3354 295.422 84.9664 286.672 88.8043C277.923 92.6423 258.888 99.704 242.514 81.6914" stroke="#BCD0ED" stroke-width="3.29723" stroke-miterlimit="10"/>
<path d="M315.378 165.665V193.502" stroke="#BCD0ED" stroke-width="3.29723" stroke-miterlimit="10"/>
<path fill-rule="evenodd" clip-rule="evenodd" d="M278.022 127.388C281.562 134.901 286.821 141.475 293.373 146.578C299.974 151.695 306.523 156.198 312.408 161.213C318.292 166.228 321.874 174.518 328.065 172.727C331.071 172 333.952 170.827 336.61 169.247C339.241 167.864 341.786 166.326 344.234 164.642C351.506 159.422 357.534 152.659 361.888 144.838C364.855 139.26 365.725 135.78 366.083 135.883C366.073 136.755 365.917 137.62 365.623 138.441C365.055 140.865 364.214 143.217 363.116 145.452C359.09 153.801 353.125 161.065 345.718 166.637C343.295 168.512 340.747 170.222 338.094 171.755C335.194 173.565 332.037 174.928 328.73 175.797C326.704 176.091 324.637 175.77 322.795 174.876C321.009 173.999 319.424 172.762 318.138 171.243C315.83 168.431 313.26 165.844 310.463 163.516C304.681 158.706 298.132 154.1 291.428 149.188C287.83 146.666 284.653 143.592 282.013 140.079C279.343 136.514 276.948 132.75 274.85 128.821L278.022 127.388Z" fill="#BCD0ED"/>
<path fill-rule="evenodd" clip-rule="evenodd" d="M377.291 103.9C377.251 104.223 377.251 104.549 377.291 104.872V105.333V106.254L377.65 108.045C377.65 109.273 377.905 110.45 378.008 111.576C378.148 113.717 377.905 115.865 377.291 117.921C376.776 119.604 375.801 121.111 374.477 122.271C373.952 122.741 373.32 123.075 372.635 123.243C372.313 123.296 371.985 123.296 371.663 123.243C371.24 123.246 370.821 123.159 370.435 122.987H369.514C369.258 122.987 369.002 123.397 368.849 123.601C368.849 124.727 368.542 125.29 368.49 125.802V127.132C368.49 127.849 368.49 128.258 368.49 128.258C368.49 128.258 368.797 127.951 369.104 127.286L370.025 124.727C370.025 124.727 370.025 124.369 370.025 124.42L370.384 124.676C370.688 124.73 371 124.73 371.305 124.676C371.779 124.753 372.263 124.753 372.737 124.676C373.756 124.546 374.725 124.159 375.552 123.55C377.326 122.255 378.693 120.48 379.492 118.433C380.278 116.094 380.625 113.631 380.515 111.166C380.511 109.881 380.408 108.598 380.208 107.328L379.901 105.384V104.412V103.951H378.571L377.291 103.9Z" fill="#BCD0ED"/>
<path fill-rule="evenodd" clip-rule="evenodd" d="M374.98 113.469C374.995 112.691 374.773 111.927 374.343 111.278C373.914 110.629 373.297 110.126 372.575 109.836C371.603 109.427 370.887 109.529 370.784 109.836C370.682 110.143 372.78 111.729 372.627 113.418C372.473 115.107 370.631 116.386 370.784 117C370.938 117.614 371.552 117.512 372.575 117C373.259 116.685 373.844 116.19 374.268 115.568C374.691 114.946 374.938 114.221 374.98 113.469V113.469Z" fill="#BCD0ED"/>
<path fill-rule="evenodd" clip-rule="evenodd" d="M284.313 120.07C278.623 115.703 272.288 112.25 265.534 109.836C262.791 108.715 260.182 107.291 257.756 105.589C255.786 103.971 254.062 102.075 252.639 99.9596C250.046 95.4711 247.854 90.7619 246.09 85.8872C246.09 85.8872 246.09 87.4224 246.602 90.1345C247.497 93.9574 248.945 97.6293 250.9 101.034C252.255 103.424 253.982 105.584 256.017 107.431C258.53 109.362 261.281 110.962 264.204 112.19C270.651 114.72 276.7 118.167 282.164 122.424C287.106 127.137 291.056 132.792 293.779 139.055L298.077 147.192L299.101 149.085C299.474 149.87 300.107 150.502 300.891 150.876C301.602 151.305 302.416 151.531 303.245 151.531C304.075 151.531 304.889 151.305 305.599 150.876C307.492 149.481 309.005 147.633 309.999 145.503C310.812 144.155 311.891 142.988 313.172 142.074C315.27 140.488 316.6 139.72 316.498 139.516C315.074 139.744 313.724 140.305 312.558 141.153C311.023 142.014 309.695 143.202 308.669 144.633C307.687 146.441 306.282 147.986 304.576 149.136C304.212 149.39 303.786 149.539 303.344 149.566C302.901 149.593 302.46 149.498 302.068 149.29C301.65 149.069 301.323 148.706 301.147 148.266L300.226 146.373L296.184 138.134C294.7 135.217 293.37 132.249 291.579 129.025C289.697 125.64 287.238 122.609 284.313 120.07V120.07Z" fill="#BCD0ED"/>
<path fill-rule="evenodd" clip-rule="evenodd" d="M313.419 106.305C309.768 107.588 306.24 109.198 302.878 111.115C300.115 113.06 300.217 115.823 300.729 115.669C301.241 115.516 301.497 114.032 303.953 112.804C306.409 111.576 310.349 110.757 314.596 108.915C318.33 107.383 321.57 104.851 323.96 101.597C325.802 99.2432 326.774 97.708 326.467 97.5033C326.16 97.2986 324.625 98.3221 322.476 100.267C319.893 102.868 316.813 104.921 313.419 106.305V106.305Z" fill="#BCD0ED"/>
<path fill-rule="evenodd" clip-rule="evenodd" d="M310.504 100.727C315.789 98.6099 321.229 96.8992 326.775 95.6102C326.775 95.252 324.78 94.7914 321.659 94.9449C317.362 95.1055 313.152 96.2059 309.327 98.1688C307.991 98.907 306.724 99.7633 305.54 100.727V100.727C298.786 105.845 297.712 112.241 298.428 112.241C300.859 108.714 303.809 105.574 307.178 102.928C308.219 102.097 309.332 101.36 310.504 100.727V100.727Z" fill="#BCD0ED"/>
<path fill-rule="evenodd" clip-rule="evenodd" d="M317.415 111.064C323.965 107.994 326.421 102.314 325.602 102.058C324.783 101.802 321.867 105.896 316.187 108.506C310.507 111.115 305.237 113.623 305.953 114.237C309.969 114.085 313.893 112.999 317.415 111.064V111.064Z" fill="#BCD0ED"/>
<path fill-rule="evenodd" clip-rule="evenodd" d="M307.196 92.3857C312.655 89.4964 318.724 87.9525 324.9 87.8826C327.534 87.9943 330.172 87.8572 332.78 87.4732C330.332 86.2809 327.619 85.7349 324.9 85.8868C318.281 85.3633 311.652 86.7674 305.814 89.9294C300.217 93.4677 295.661 98.4302 292.613 104.309C290.259 108.71 289.594 111.78 289.952 111.882C290.31 111.985 291.64 109.324 294.301 105.332C297.637 100.154 302.031 95.7419 307.196 92.3857V92.3857Z" fill="#BCD0ED"/>
<path fill-rule="evenodd" clip-rule="evenodd" d="M343.26 114.493C342.953 114.493 343.26 114.493 343.26 114.493L346.279 107.022C347.511 104.281 348.504 101.439 349.247 98.5272C350.165 93.5854 350.526 88.5561 350.322 83.5338C350.516 78.9645 350.016 74.3922 348.838 69.9731C348.323 74.4403 348.084 78.9349 348.121 83.4314C348.07 88.3642 347.556 93.2812 346.586 98.1179C345.8 100.857 344.79 103.527 343.567 106.101L339.423 116.335L342.032 117.461C347.518 119.963 352.223 123.907 355.643 128.872C357.022 130.865 357.948 133.136 358.355 135.525C358.48 137.843 358.48 140.166 358.355 142.484C357.983 147.092 357.02 151.632 355.49 155.994C358.514 152.209 360.204 147.532 360.299 142.689C360.486 140.253 360.486 137.807 360.299 135.371C360.096 132.448 359.221 129.611 357.741 127.081C354.189 121.611 349.172 117.249 343.26 114.493V114.493Z" fill="#BCD0ED"/>
<path fill-rule="evenodd" clip-rule="evenodd" d="M308.167 146.987L311.646 150.058L314.205 152.36L315.637 150.723C316.405 149.955 317.224 149.239 318.042 148.522C319.661 147.209 321.371 146.012 323.159 144.94C326.855 143.049 330.294 140.693 333.393 137.93C331.909 140.481 329.817 142.625 327.304 144.173C325.206 145.606 322.852 147.192 320.703 148.932C319.641 149.79 318.649 150.731 317.735 151.746C316.544 153.01 315.544 154.441 314.767 155.993L306.376 149.29L308.167 146.987Z" fill="#BCD0ED"/>
<path fill-rule="evenodd" clip-rule="evenodd" d="M315.745 152.923C316.389 153.894 317.346 154.616 318.457 154.97C318.949 155.047 319.452 154.988 319.913 154.799C320.373 154.609 320.772 154.296 321.067 153.895C322.685 152.297 324.19 150.587 325.569 148.778C328.025 145.554 329.561 143.661 329.919 143.661C330.277 143.661 329.305 146.219 327.258 149.852C326.02 152.01 324.562 154.033 322.909 155.891C322.301 156.635 321.509 157.207 320.611 157.548C319.712 157.89 318.74 157.989 317.792 157.835C315.941 157.361 314.324 156.234 313.238 154.663L315.745 152.923Z" fill="#BCD0ED"/>
<path d="M215.799 232.24C186.258 250.074 161.05 274.252 141.997 303.023C122.945 331.794 110.524 364.441 105.633 398.601" stroke="#BCD0ED" stroke-width="3.29723" stroke-miterlimit="10"/>
<path d="M566.461 398.242C561.356 363.001 548.247 329.397 528.139 300.01C508.031 270.622 481.459 246.231 450.462 228.708" stroke="#BCD0ED" stroke-width="3.29723" stroke-miterlimit="10"/>
<path d="M440.94 267.958C467.047 284.67 488.768 307.395 504.286 334.23C519.803 361.064 528.664 391.227 530.127 422.191" stroke="#BCD0ED" stroke-width="3.29723" stroke-miterlimit="10"/>
<path d="M141.916 424.289C143.04 393.587 151.438 363.59 166.419 336.768C181.399 309.945 202.534 287.063 228.084 270.005" stroke="#BCD0ED" stroke-width="3.29723" stroke-miterlimit="10"/>
<path d="M170.668 329.62C168.838 329.355 166.992 329.218 165.142 329.211C155.122 329.184 145.497 333.125 138.373 340.172C131.25 347.22 127.205 356.802 127.124 366.823" stroke="#BCD0ED" stroke-width="3.29723" stroke-miterlimit="10"/>
<path d="M150.614 331.821C154.141 325.986 155.999 319.296 155.986 312.478C155.956 305.205 153.823 298.097 149.846 292.009" stroke="#BCD0ED" stroke-width="3.29723" stroke-miterlimit="10"/>
<path d="M201.41 291.907C205.964 284.236 208.516 275.543 208.829 266.628C208.829 257.792 206.25 249.149 201.41 241.758" stroke="#BCD0ED" stroke-width="3.29723" stroke-miterlimit="10"/>
<path d="M149.115 380.946C147.367 381.395 145.657 381.977 143.998 382.686C139.202 384.76 134.9 387.824 131.372 391.678C127.845 395.532 125.172 400.088 123.53 405.048" stroke="#BCD0ED" stroke-width="3.29723" stroke-miterlimit="10"/>
<path d="M131.879 390.772C132.755 384.126 131.8 377.367 129.115 371.224C126.273 364.623 121.536 359.013 115.505 355.105" stroke="#BCD0ED" stroke-width="3.29723" stroke-miterlimit="10"/>
<path d="M432.592 302.602L451.831 222.364L332.199 188.744L212.516 222.364L238.765 302.602H432.592Z" stroke="#BCD0ED" stroke-width="3.29723" stroke-miterlimit="10"/>
<path d="M624.42 448.187C624.473 435.574 619.8 423.398 611.322 414.059C602.844 404.72 591.176 398.896 578.617 397.734C566.058 396.572 553.519 400.156 543.472 407.78C533.424 415.404 526.596 426.516 524.334 438.925C524.334 438.925 523.618 444.042 523.566 447.522" stroke="#BCD0ED" stroke-width="3.29723" stroke-miterlimit="10"/>
<path d="M553.292 442.916C554.373 438.337 556.998 434.269 560.725 431.399C564.453 428.528 569.056 427.03 573.76 427.155C576.519 427.155 579.251 427.7 581.8 428.757C584.348 429.815 586.663 431.365 588.612 433.318C590.561 435.272 592.105 437.591 593.156 440.142C594.208 442.694 594.745 445.428 594.739 448.187" stroke="#BCD0ED" stroke-width="3.29723" stroke-miterlimit="10"/>
<path fill-rule="evenodd" clip-rule="evenodd" d="M620.341 432.784C617.987 441.125 611.386 445.065 611.898 445.833C612.409 446.6 614.047 445.833 616.656 443.939C620.012 441.361 622.452 437.774 623.615 433.705L620.341 432.784Z" fill="#BCD0ED"/>
<path fill-rule="evenodd" clip-rule="evenodd" d="M610.561 415.795C612.045 424.29 607.696 430.686 608.565 431.147C609.435 431.607 610.459 430.226 611.994 427.411C614.018 423.75 614.791 419.527 614.194 415.386L610.561 415.795Z" fill="#BCD0ED"/>
<path fill-rule="evenodd" clip-rule="evenodd" d="M594.442 403.718C596.878 408.507 598.372 413.718 598.843 419.07C599.252 419.07 600.276 417.433 600.48 413.953C600.739 409.644 599.629 405.363 597.308 401.723L594.442 403.718Z" fill="#BCD0ED"/>
<path fill-rule="evenodd" clip-rule="evenodd" d="M574.677 399.164C577.808 401.384 580.468 404.201 582.506 407.454C584.092 410.012 584.655 411.803 585.167 411.752C585.678 411.701 585.832 409.603 584.655 406.635C583.057 402.514 580.28 398.954 576.673 396.4L574.677 399.164Z" fill="#BCD0ED"/>
<path fill-rule="evenodd" clip-rule="evenodd" d="M555.199 402.797C558.877 403.653 562.353 405.217 565.432 407.402C567.837 409.091 569.116 410.575 569.526 410.268C569.935 409.961 569.526 408.016 566.967 405.611C563.886 402.493 559.952 400.357 555.659 399.471L555.199 402.797Z" fill="#BCD0ED"/>
<path fill-rule="evenodd" clip-rule="evenodd" d="M539.225 413.441C544.525 412.916 549.877 413.42 554.985 414.925C554.985 414.618 553.962 412.981 551.045 411.548C547.132 409.792 542.776 409.274 538.56 410.064L539.225 413.441Z" fill="#BCD0ED"/>
<path fill-rule="evenodd" clip-rule="evenodd" d="M528.392 429.457C535.556 424.34 543.129 425.927 543.231 424.954C543.333 423.982 541.542 423.573 538.37 423.368C534.165 423.099 529.99 424.233 526.499 426.592L528.392 429.457Z" fill="#BCD0ED"/>
<path d="M76.4667 448.187C76.3262 445.341 76.7654 442.496 77.7576 439.825C78.7497 437.154 80.2742 434.713 82.2385 432.649C84.2028 430.585 86.5659 428.942 89.1845 427.819C91.803 426.697 94.6224 426.118 97.4714 426.118C100.32 426.118 103.14 426.697 105.758 427.819C108.377 428.942 110.74 430.585 112.704 432.649C114.669 434.713 116.193 437.154 117.185 439.825C118.177 442.496 118.617 445.341 118.476 448.187" stroke="#BCD0ED" stroke-width="3.29723" stroke-miterlimit="10"/>
<path d="M46.949 448.238C46.949 447.419 46.949 446.55 46.949 445.731C47.7527 432.713 53.5658 420.512 63.1689 411.687C72.7721 402.863 85.4192 398.1 98.4575 398.397C111.496 398.695 123.912 404.031 133.102 413.285C142.293 422.539 147.543 434.993 147.751 448.034" stroke="#BCD0ED" stroke-width="3.29723" stroke-miterlimit="10"/>
<path fill-rule="evenodd" clip-rule="evenodd" d="M47.6493 433.501C48.6932 437.52 50.9867 441.104 54.1989 443.735C56.7062 445.731 58.6506 446.242 58.8552 445.833C59.0599 445.424 52.9709 440.716 50.9753 432.477L47.6493 433.501Z" fill="#BCD0ED"/>
<path fill-rule="evenodd" clip-rule="evenodd" d="M57.3845 415.386C56.7412 419.594 57.5152 423.896 59.5847 427.616C61.171 430.379 62.7572 431.556 63.1154 431.3C63.4736 431.044 59.4312 424.392 60.7616 415.949L57.3845 415.386Z" fill="#BCD0ED"/>
<path fill-rule="evenodd" clip-rule="evenodd" d="M75.0335 401.365C72.6264 405.106 71.331 409.453 71.2982 413.902C71.2982 417.279 72.4239 419.019 72.8333 419.019C73.2426 419.019 73.1403 416.972 73.652 413.902C74.3927 410.057 75.8321 406.38 77.899 403.053L75.0335 401.365Z" fill="#BCD0ED"/>
<path fill-rule="evenodd" clip-rule="evenodd" d="M93.8585 396.502C90.3882 399.022 87.8509 402.621 86.6437 406.737C85.7739 409.807 86.0297 411.854 86.6437 411.854C87.2577 411.854 89.0486 404.383 96.0587 399.368L93.8585 396.502Z" fill="#BCD0ED"/>
<path fill-rule="evenodd" clip-rule="evenodd" d="M114.679 399.215C110.538 400.147 106.817 402.412 104.087 405.663C102.04 408.17 101.477 410.063 101.835 410.268C102.194 410.473 106.952 404.434 115.395 402.592L114.679 399.215Z" fill="#BCD0ED"/>
<path fill-rule="evenodd" clip-rule="evenodd" d="M132.712 409.961C128.57 409.167 124.284 409.723 120.482 411.547C117.617 413.031 116.389 414.567 116.645 414.925C116.901 415.283 123.604 411.599 131.995 413.287L132.712 409.961Z" fill="#BCD0ED"/>
<path fill-rule="evenodd" clip-rule="evenodd" d="M144.721 426.592C141.34 424.285 137.295 423.152 133.208 423.368C130.087 423.368 128.398 424.545 128.501 424.954C128.603 425.364 135.971 424.596 142.93 429.457L144.721 426.592Z" fill="#BCD0ED"/>
<path fill-rule="evenodd" clip-rule="evenodd" d="M149.684 443.991C148.409 442.137 146.635 440.682 144.567 439.795C142.946 439.074 141.217 438.625 139.45 438.464C136.738 438.208 135.101 438.464 134.999 438.771C134.896 439.078 136.431 439.948 138.888 440.818C141.911 441.573 144.562 443.389 146.358 445.935L149.684 443.991Z" fill="#BCD0ED"/>
<path fill-rule="evenodd" clip-rule="evenodd" d="M266.255 118.586C265.012 120.796 263.325 122.724 261.299 124.248C259.273 125.771 256.953 126.858 254.486 127.439C250.321 128.565 245.981 128.895 241.694 128.411C238.845 128.128 236.123 127.085 233.814 125.392C232.177 124.164 231.614 123.141 231.46 123.192C231.307 123.243 231.46 124.522 233.2 126.058C235.476 128.195 238.35 129.587 241.438 130.049C245.961 130.834 250.598 130.66 255.049 129.537C257.907 128.927 260.595 127.693 262.921 125.924C265.248 124.155 267.155 121.894 268.506 119.303L266.255 118.586Z" fill="#BCD0ED"/>
<path fill-rule="evenodd" clip-rule="evenodd" d="M272.389 125.648C271.476 128.071 269.965 130.224 267.997 131.906C266.029 133.588 263.667 134.745 261.132 135.269C256.865 136.416 252.414 136.711 248.032 136.139C245.117 135.75 242.359 134.584 240.05 132.761C238.413 131.431 237.85 130.356 237.696 130.459C237.543 130.561 237.696 131.738 239.385 133.427C241.656 135.694 244.566 137.212 247.725 137.776C252.357 138.651 257.122 138.512 261.694 137.367C264.662 136.806 267.429 135.469 269.712 133.492C271.995 131.514 273.713 128.967 274.691 126.109L272.389 125.648Z" fill="#BCD0ED"/>
<path fill-rule="evenodd" clip-rule="evenodd" d="M277.397 131.84C276.715 134.608 275.239 137.115 273.15 139.056C271.143 140.83 268.792 142.171 266.243 142.996C261.823 144.353 257.158 144.72 252.581 144.07C249.518 143.543 246.674 142.139 244.394 140.028C242.756 138.493 242.193 137.367 242.04 137.469C242.234 138.689 242.807 139.817 243.677 140.693C245.91 143.264 248.903 145.056 252.223 145.81C257.094 146.814 262.137 146.604 266.908 145.196C269.966 144.412 272.764 142.836 275.018 140.625C277.273 138.415 278.906 135.65 279.751 132.608L277.397 131.84Z" fill="#BCD0ED"/>
<path fill-rule="evenodd" clip-rule="evenodd" d="M282.067 139.822C281.336 142.523 279.844 144.957 277.768 146.833C275.772 148.61 273.416 149.936 270.861 150.722C266.451 152.132 261.774 152.5 257.199 151.797C254.134 151.307 251.285 149.918 249.012 147.805C247.425 146.27 246.863 145.144 246.709 145.195C246.556 145.247 246.709 146.577 248.347 148.419C250.534 151.018 253.521 152.817 256.84 153.536C261.671 154.482 266.659 154.236 271.372 152.82C274.433 152.041 277.233 150.466 279.488 148.255C281.744 146.044 283.375 143.276 284.216 140.232L282.067 139.822Z" fill="#BCD0ED"/>
<path fill-rule="evenodd" clip-rule="evenodd" d="M260.61 93.3078C260.41 92.0247 260.514 90.7125 260.914 89.477C261.314 88.2415 261.998 87.1172 262.912 86.1948C264.467 84.6557 266.31 83.4384 268.336 82.6128C271.918 80.9241 275.193 79.6448 277.905 78.4678C280.022 77.5921 282.074 76.566 284.045 75.3975C285.375 74.5787 285.887 73.8112 286.04 73.9135C286.194 74.0158 286.04 74.9881 284.608 76.1139C282.767 77.6208 280.758 78.9087 278.621 79.9518L269.308 84.5573C267.557 85.3114 265.974 86.4074 264.652 87.7812C263.997 88.4493 263.501 89.256 263.2 90.1418C262.898 91.0275 262.8 91.9696 262.912 92.8984L260.61 93.3078Z" fill="#BCD0ED"/>
<path fill-rule="evenodd" clip-rule="evenodd" d="M268.621 94.0241C269.479 91.539 270.879 89.2761 272.72 87.3997C274.56 85.5232 276.796 84.0802 279.264 83.1755C281.149 82.1833 283.286 81.7736 285.404 81.9986C283.667 83.0219 281.853 83.9114 279.981 84.6595C275.804 86.6893 272.563 90.2417 270.924 94.587L268.621 94.0241Z" fill="#BCD0ED"/>
<path fill-rule="evenodd" clip-rule="evenodd" d="M254.024 91.1069C254.102 88.7341 254.8 86.4231 256.048 84.4034C257.295 82.3836 259.049 80.7253 261.136 79.5931C264.36 78.058 266.56 78.2115 266.56 78.4673C266.56 78.7232 264.615 79.3373 262.006 81.026C260.371 82.1993 259.027 83.7321 258.078 85.5064C257.129 87.2808 256.6 89.2493 256.531 91.2604L254.024 91.1069Z" fill="#BCD0ED"/>
<path fill-rule="evenodd" clip-rule="evenodd" d="M393.862 193.349C392.275 192.445 390.544 191.822 388.745 191.507C387.537 191.326 386.364 190.964 385.265 190.433C383.372 189.563 382.246 188.539 381.837 188.846C381.428 189.153 381.837 190.74 383.884 192.531C385.077 193.546 386.472 194.296 387.977 194.731C389.459 195.111 390.886 195.678 392.224 196.42C394.516 197.852 396.305 199.962 397.341 202.458C398.313 204.505 398.978 205.887 399.49 205.784C400.002 205.682 400.155 204.198 399.49 201.69C399.22 199.973 398.576 198.335 397.603 196.894C396.631 195.453 395.353 194.243 393.862 193.349Z" fill="#BCD0ED"/>
<path fill-rule="evenodd" clip-rule="evenodd" d="M405.667 193.195C404.812 191.281 403.519 189.593 401.892 188.269C400.266 186.945 398.352 186.021 396.303 185.571C393.548 185.25 390.931 184.189 388.73 182.5C385.353 179.379 385.763 175.746 385.2 175.797C384.637 175.848 384.535 176.565 384.535 178.1C384.565 180.37 385.42 182.553 386.939 184.24C389.251 186.527 392.189 188.077 395.382 188.692C396.932 189.067 398.374 189.799 399.591 190.83C400.808 191.86 401.767 193.161 402.392 194.628C403.082 196.28 403.613 197.993 403.979 199.746C404.389 201.685 405.171 203.527 406.281 205.17C408.21 207.849 410.903 209.882 414.008 211.003C419.125 212.846 422.399 212.487 422.451 212.078C422.502 211.669 419.329 210.952 415.031 208.752C412.611 207.616 410.543 205.848 409.044 203.635C408.204 202.308 407.631 200.831 407.356 199.285C407.037 197.195 406.47 195.151 405.667 193.195V193.195Z" fill="#BCD0ED"/>
<path fill-rule="evenodd" clip-rule="evenodd" d="M410.7 184.599C409.616 183.079 408.238 181.794 406.647 180.818C405.056 179.842 403.284 179.196 401.439 178.919C399.058 178.563 396.806 177.612 394.889 176.156C391.87 173.443 392.228 170.271 391.717 170.322C391.205 170.373 391.052 170.936 391 172.369C391.001 174.415 391.768 176.386 393.15 177.895C395.206 180.008 397.84 181.468 400.722 182.092C403.556 182.658 406.075 184.264 407.784 186.595C408.6 187.859 409.221 189.239 409.626 190.688C410.011 192.301 410.49 193.89 411.059 195.447C412.47 198.013 414.491 200.192 416.943 201.793C420.883 204.505 423.799 205.068 423.953 204.658C424.106 204.249 421.702 202.816 418.478 199.848C416.621 198.239 415.107 196.272 414.026 194.066C413.617 193.094 413.463 191.456 412.952 189.716C412.495 187.896 411.734 186.165 410.7 184.599V184.599Z" fill="#BCD0ED"/>
<path fill-rule="evenodd" clip-rule="evenodd" d="M414.984 175.9C412.471 173.906 409.465 172.633 406.285 172.215C404.218 171.747 402.312 170.741 400.759 169.298C398.303 166.689 398.507 164.181 397.996 164.181C397.484 164.181 396.154 167.047 398.814 171.141C400.458 173.271 402.732 174.829 405.313 175.593C407.969 176.084 410.474 177.188 412.63 178.816C414.386 180.557 415.656 182.727 416.314 185.111C416.672 186.288 416.928 187.618 417.44 188.897C417.891 190.047 418.493 191.131 419.231 192.121C422.096 195.652 424.91 196.266 425.013 195.908C425.115 195.55 423.171 194.015 421.329 190.791C420.326 188.768 419.685 186.586 419.435 184.343C418.886 181.127 417.327 178.169 414.984 175.9V175.9Z" fill="#BCD0ED"/>
<path fill-rule="evenodd" clip-rule="evenodd" d="M418.309 167.916C417.116 167.151 415.801 166.597 414.42 166.279C413.243 165.972 412.271 165.818 411.299 165.46C409.668 165.003 408.163 164.18 406.898 163.055C404.954 161.11 405.107 158.91 404.647 158.859C404.186 158.808 402.753 161.161 404.954 164.59C406.257 166.357 408.03 167.722 410.071 168.53C411.145 168.991 412.424 169.298 413.55 169.656C414.554 169.921 415.505 170.353 416.364 170.935C419.496 173.353 421.917 176.57 423.374 180.249C424.705 183.166 425.472 185.059 425.984 184.957C426.496 184.854 426.547 182.756 425.984 179.43C424.937 174.775 422.203 170.673 418.309 167.916V167.916Z" fill="#BCD0ED"/>
<path fill-rule="evenodd" clip-rule="evenodd" d="M416.895 158.91C416.07 158.782 415.282 158.478 414.585 158.018C413.887 157.559 413.296 156.956 412.852 156.249C412.238 155.123 412.187 154.049 411.675 153.895C411.164 153.742 410.294 154.714 410.447 156.863C410.605 158.15 411.201 159.343 412.136 160.24C413.218 161.252 414.538 161.973 415.974 162.338L419.402 163.055C420.219 163.28 421.022 163.554 421.807 163.874C423.086 164.385 423.444 164.999 423.956 165.102C424.468 165.204 424.468 164.795 424.468 164.13C424.364 163.26 423.945 162.459 423.291 161.878C422.472 161.086 421.519 160.445 420.476 159.985C419.316 159.524 418.117 159.164 416.895 158.91V158.91Z" fill="#BCD0ED"/>
<path fill-rule="evenodd" clip-rule="evenodd" d="M380.308 163.925C383.955 159.91 388.181 156.461 392.844 153.691C395.064 152.324 397.412 151.176 399.854 150.262C401.914 149.522 403.784 148.333 405.329 146.782C408.246 143.866 410.446 139.26 414.233 136.548C416.02 135.397 417.969 134.517 420.015 133.938C421.805 133.324 423.545 132.71 425.131 132.045C426.574 131.507 427.895 130.69 429.02 129.64C430.044 128.616 430.965 127.388 431.886 126.313C433.452 124.474 435.163 122.763 437.003 121.196C438.15 119.95 439.62 119.047 441.25 118.586C442.478 118.586 442.938 119.098 442.836 119.2C442.733 119.303 442.273 118.945 441.403 119.2C440.093 119.802 438.925 120.674 437.975 121.759C436.333 123.46 434.812 125.272 433.421 127.183C432.559 128.451 431.619 129.665 430.606 130.817C429.355 132.155 427.839 133.218 426.155 133.938C422.613 135.246 419.189 136.856 415.921 138.748C412.749 140.898 411.111 144.94 407.581 148.983C405.757 150.901 403.516 152.372 401.031 153.281C398.793 154.188 396.636 155.283 394.584 156.556C390.28 159.263 386.371 162.552 382.969 166.33L380.308 163.925Z" fill="#BCD0ED"/>
<path fill-rule="evenodd" clip-rule="evenodd" d="M380.371 150.314C383.707 146.492 387.586 143.182 391.884 140.489C393.95 139.237 396.125 138.175 398.383 137.316C400.317 136.657 402.07 135.553 403.5 134.092C406.16 131.38 408.054 127.133 411.687 124.728C413.256 123.612 414.98 122.733 416.803 122.118C418.492 121.555 420.078 120.992 421.511 120.378C424.01 119.281 426.154 117.509 427.702 115.261C429.143 113.52 430.717 111.895 432.41 110.399C433.495 109.375 434.84 108.668 436.299 108.353C437.424 108.353 437.885 108.864 437.731 108.915C437.578 108.967 437.271 108.915 436.452 108.915C435.259 109.496 434.196 110.314 433.331 111.321C431.87 112.947 430.504 114.656 429.237 116.438C428.47 117.461 427.754 118.587 426.679 119.815C425.511 121.073 424.101 122.082 422.534 122.783C419.304 123.986 416.187 125.476 413.222 127.235C410.305 129.231 408.872 132.915 405.649 136.548C403.956 138.322 401.895 139.702 399.611 140.591C397.548 141.422 395.562 142.432 393.675 143.61C389.742 146.144 386.177 149.209 383.083 152.719L380.371 150.314Z" fill="#BCD0ED"/>
<path fill-rule="evenodd" clip-rule="evenodd" d="M380.463 137.06C383.571 133.548 387.194 130.528 391.209 128.105C393.14 127 395.159 126.058 397.247 125.29C398.939 124.699 400.477 123.738 401.75 122.476C404.206 120.07 406.099 116.13 409.527 113.981C412.509 112.436 415.626 111.169 418.84 110.194C421.167 109.215 423.158 107.579 424.571 105.486C425.948 103.931 427.436 102.477 429.022 101.137C430.068 100.221 431.341 99.6028 432.707 99.3457C433.73 99.3457 434.139 99.8574 434.037 99.9086C433.935 99.9598 433.525 99.9086 432.809 99.9086C431.723 100.41 430.749 101.123 429.943 102.007C428.579 103.469 427.298 105.006 426.106 106.612C425.389 107.533 424.673 108.557 423.701 109.682C422.589 110.813 421.269 111.717 419.812 112.343C416.826 113.416 413.933 114.734 411.165 116.284C408.504 117.972 407.122 121.401 404.103 124.625C402.508 126.236 400.59 127.492 398.475 128.309C396.578 129.039 394.746 129.929 393 130.97C389.337 133.176 386.04 135.938 383.227 139.158L380.463 137.06Z" fill="#BCD0ED"/>
<path fill-rule="evenodd" clip-rule="evenodd" d="M380.216 123.345C383.209 120.116 386.656 117.341 390.45 115.107C392.238 114.044 394.122 113.153 396.078 112.446C397.687 111.906 399.155 111.015 400.376 109.836C402.679 107.635 404.419 103.951 407.642 101.904C410.432 100.42 413.363 99.2204 416.392 98.3221C418.479 97.3925 420.255 95.8827 421.509 93.9724C422.801 92.5026 424.204 91.1339 425.705 89.8786C426.676 89.0199 427.86 88.4368 429.133 88.1899C430.156 88.1899 430.515 88.6505 430.412 88.7528C430.31 88.8552 429.952 88.7528 429.287 88.7528C428.269 89.2239 427.363 89.9039 426.626 90.7486C425.344 92.106 424.148 93.5416 423.044 95.047C422.379 95.9169 421.714 96.8892 420.793 97.9638C419.74 99.0327 418.489 99.8846 417.108 100.471C414.315 101.47 411.61 102.702 409.024 104.156C406.568 105.793 405.288 108.915 402.372 112.036C400.924 113.523 399.181 114.691 397.255 115.465C395.483 116.137 393.771 116.959 392.138 117.921C388.723 120.036 385.608 122.6 382.877 125.546L380.216 123.345Z" fill="#BCD0ED"/>
<path fill-rule="evenodd" clip-rule="evenodd" d="M357.956 77.649C377.503 75.5509 395.974 75.6533 407.027 81.7939C409.482 83.0512 411.657 84.7918 413.423 86.9111C414.723 88.7341 415.629 90.808 416.084 93.0006C416.953 96.4292 416.595 98.4249 416.851 98.4761C417.107 98.5272 417.926 96.5315 417.465 92.7448C417.096 90.4502 416.26 88.2557 415.009 86.2971C413.264 83.7455 410.975 81.6132 408.306 80.0541C396.486 72.8388 377.349 72.4294 357.547 74.4763L357.956 77.649Z" fill="#BCD0ED"/>
<path fill-rule="evenodd" clip-rule="evenodd" d="M365.215 86.9621C371.778 85.7673 378.46 85.355 385.12 85.734C390.469 86.0689 395.63 87.8363 400.061 90.8512C402.998 92.904 405.345 95.692 406.867 98.9364C407.31 100.216 407.84 101.464 408.453 102.672C408.453 102.672 408.913 101.086 408.146 98.4247C406.958 94.6436 404.658 91.3086 401.545 88.8555C396.878 85.3029 391.277 83.1869 385.427 82.766C378.456 82.1366 371.432 82.4638 364.55 83.7383L365.215 86.9621Z" fill="#BCD0ED"/>
<path fill-rule="evenodd" clip-rule="evenodd" d="M372.026 95.4057C379.966 94.6759 387.915 96.6996 394.54 101.137C396.923 103.379 398.807 106.099 400.066 109.12C400.527 109.12 401.089 104.412 396.28 99.2948C393.411 96.5346 389.89 94.5454 386.046 93.5124C381.456 92.2995 376.721 91.7311 371.974 91.8237L372.026 95.4057Z" fill="#BCD0ED"/>
<path fill-rule="evenodd" clip-rule="evenodd" d="M377.499 105.026C379.621 104.789 381.769 105.081 383.751 105.876C385.733 106.67 387.488 107.943 388.859 109.58C390.803 112.292 391.212 114.697 391.724 114.697C392.236 114.697 392.747 112.19 391.008 108.454C389.89 106.247 388.098 104.454 385.891 103.337C383.24 102.079 380.33 101.466 377.397 101.546L377.499 105.026Z" fill="#BCD0ED"/>
<path fill-rule="evenodd" clip-rule="evenodd" d="M256.887 106.51C254.622 108.513 251.98 110.043 249.115 111.01C246.25 111.976 243.221 112.36 240.206 112.139C235.394 111.888 230.756 110.253 226.851 107.431C220.403 102.314 218.715 97.5033 219.073 97.1963C221.939 100.065 224.999 102.732 228.232 105.179C231.904 107.378 236.081 108.594 240.359 108.71C245.493 108.817 250.479 106.99 254.328 103.593L256.887 106.51Z" fill="#BCD0ED"/>
<path fill-rule="evenodd" clip-rule="evenodd" d="M263.395 115.874C256.634 120.469 248.427 122.435 240.318 121.401C233.868 120.907 227.643 118.814 222.204 115.311C218.628 112.939 215.494 109.961 212.943 106.51C211.152 104.105 210.487 102.518 210.691 102.416C214.551 106.563 218.859 110.27 223.535 113.469C228.762 116.466 234.61 118.217 240.625 118.586C247.83 119.249 255.047 117.445 261.092 113.469L263.395 115.874Z" fill="#BCD0ED"/>
<path fill-rule="evenodd" clip-rule="evenodd" d="M252.077 100.574C248.603 103.034 244.321 104.077 240.104 103.491C236.826 103.174 233.688 102.01 230.996 100.114C226.544 96.7362 225.419 93.3588 225.879 93.2053C226.34 93.0518 228.233 95.6104 232.429 98.0155C235.078 99.5277 238.076 100.323 241.127 100.323C244.178 100.323 247.176 99.5277 249.826 98.0155L252.077 100.574Z" fill="#BCD0ED"/>
<path fill-rule="evenodd" clip-rule="evenodd" d="M248.291 93.3076C246.326 94.2695 244.148 94.7133 241.962 94.5969C239.777 94.4805 237.658 93.8077 235.806 92.6424C233.248 90.442 232.941 88.3439 233.299 88.1904C233.657 88.0369 234.885 89.3673 237.188 90.5443C240.331 91.6554 243.785 91.49 246.808 90.0837L248.291 93.3076Z" fill="#BCD0ED"/>
<path fill-rule="evenodd" clip-rule="evenodd" d="M304.32 195.037C306.186 192.303 307.361 189.156 307.745 185.867C308.128 182.578 307.707 179.245 306.52 176.155C304.86 173.665 302.762 171.498 300.328 169.758C298.229 167.855 296.327 165.747 294.649 163.464C292.134 160.158 290.56 156.232 290.095 152.104C290.095 149.136 290.862 147.601 291.016 147.703C291.082 149.108 291.218 150.508 291.425 151.899C292.31 155.663 294.062 159.167 296.542 162.134C298.18 164.169 300.033 166.022 302.068 167.66C304.838 169.495 307.234 171.84 309.129 174.568C311.05 177.949 311.737 181.893 311.074 185.724C310.483 189.668 309.164 193.468 307.185 196.931L304.32 195.037Z" fill="#BCD0ED"/>
<path fill-rule="evenodd" clip-rule="evenodd" d="M277.259 202.509C281.962 196.939 284.854 190.066 285.548 182.808C285.55 182.047 285.447 181.289 285.241 180.556C285.112 179.847 284.888 179.159 284.576 178.509C283.88 177.182 283.001 175.96 281.966 174.876C279.957 172.626 278.238 170.134 276.85 167.456C274.71 163.462 274.04 158.844 274.956 154.407C275.724 151.388 276.952 150.058 277.105 150.211C277.259 150.365 276.594 151.797 276.338 154.663C276.041 158.662 277.007 162.654 279.101 166.074C280.557 168.473 282.273 170.704 284.218 172.727C285.452 173.964 286.518 175.358 287.39 176.872C287.858 177.723 288.203 178.636 288.414 179.584C288.675 180.517 288.813 181.481 288.823 182.45C288.902 186.409 288.062 190.333 286.367 193.912C284.692 197.678 282.58 201.233 280.073 204.505L277.259 202.509Z" fill="#BCD0ED"/>
<path fill-rule="evenodd" clip-rule="evenodd" d="M260.511 207.574C263.814 205.661 266.641 203.023 268.777 199.858C270.913 196.694 272.303 193.086 272.842 189.306C273.001 185.948 272.497 182.592 271.358 179.43C270.376 176.424 269.64 173.344 269.158 170.219C268.254 165.646 268.572 160.915 270.079 156.505C271.358 153.383 272.996 152.308 273.098 152.462C273.2 152.615 272.126 153.997 271.358 156.965C270.475 161.194 270.562 165.568 271.614 169.758C272.236 172.732 273.074 175.657 274.121 178.509C275.52 182.02 276.165 185.785 276.015 189.562C275.54 193.911 274.052 198.089 271.67 201.759C269.288 205.429 266.08 208.49 262.301 210.696L260.511 207.574Z" fill="#BCD0ED"/>
<path fill-rule="evenodd" clip-rule="evenodd" d="M237.555 212.744C245.874 209.421 252.745 203.256 256.948 195.345C258.512 191.866 259.113 188.031 258.688 184.241C258.251 180.675 258.029 177.087 258.022 173.494C257.856 168.176 259.016 162.9 261.4 158.143C263.293 154.817 265.186 153.742 265.288 153.895C265.391 154.049 264.009 155.482 262.628 158.706C260.893 163.397 260.178 168.403 260.53 173.392C260.678 176.82 261.019 180.237 261.553 183.627C262.207 187.939 261.658 192.348 259.967 196.368C255.581 205.236 248.1 212.189 238.937 215.916L237.555 212.744Z" fill="#BCD0ED"/>
<path fill-rule="evenodd" clip-rule="evenodd" d="M233.717 199.182C237.171 198.587 240.424 197.151 243.191 195C245.957 192.849 248.151 190.05 249.579 186.85C250.652 183.922 251.106 180.802 250.91 177.69C250.804 174.75 250.941 171.806 251.319 168.888C251.669 164.538 253.229 160.373 255.822 156.863C257.818 154.509 259.66 154.048 259.711 154.253C259.762 154.458 258.38 155.328 256.897 157.682C254.973 161.202 253.92 165.133 253.826 169.144C253.621 171.955 253.621 174.777 253.826 177.588C254.182 181.033 253.833 184.515 252.803 187.822C251.261 191.642 248.769 195.006 245.563 197.594C242.357 200.182 238.544 201.909 234.485 202.611L233.717 199.182Z" fill="#BCD0ED"/>
<path fill-rule="evenodd" clip-rule="evenodd" d="M290.29 199.029C293.287 196.012 295.561 192.356 296.942 188.334C298.121 184.7 297.976 180.766 296.532 177.23C294.904 174.033 292.78 171.114 290.239 168.581C288.05 166.034 286.098 163.294 284.405 160.394C282.98 157.967 281.912 155.347 281.233 152.616C280.74 150.495 280.74 148.289 281.233 146.168C282.205 142.637 284.252 141.614 284.303 141.818C283.479 143.25 282.892 144.805 282.563 146.424C282.344 150.978 283.719 155.465 286.452 159.115C288.244 161.764 290.228 164.278 292.388 166.637C295.259 169.325 297.663 172.472 299.5 175.95C301.324 180.174 301.578 184.911 300.217 189.306C298.8 193.891 296.329 198.079 293.002 201.536L290.29 199.029Z" fill="#BCD0ED"/>
<path fill-rule="evenodd" clip-rule="evenodd" d="M252.841 25.8111C256.944 24.3715 261.347 24.0017 265.633 24.7365C269.086 25.5619 272.24 27.334 274.741 29.8537C277.013 32.3639 279.148 34.9945 281.137 37.7342C281.547 37.7342 281.137 33.3334 276.532 28.1139C273.878 24.8606 270.287 22.5025 266.247 21.3591C261.366 20.2769 256.281 20.5782 251.562 22.2291L252.841 25.8111Z" fill="#BCD0ED"/>
<path fill-rule="evenodd" clip-rule="evenodd" d="M258.218 13.4789C260.338 12.5131 262.705 12.2258 264.995 12.6563C267.284 13.0868 269.385 14.2141 271.01 15.884C273.778 18.9712 275.916 22.5695 277.304 26.4766C279.862 33.1802 280.63 37.7345 281.141 37.6322C281.663 33.5795 281.153 29.4606 279.657 25.6579C278.476 21.2481 276.326 17.1574 273.364 13.6836C271.495 11.5384 269.012 10.0199 266.251 9.33395C263.199 8.73341 260.039 9.01747 257.143 10.1527L258.218 13.4789Z" fill="#BCD0ED"/>
<path d="M271.015 205.937V240.274H242.514V213.92" stroke="#BCD0ED" stroke-width="3.29723" stroke-miterlimit="10"/>
<path d="M262.625 208.599V231.063H250.907V211.567" stroke="#BCD0ED" stroke-width="3.29723" stroke-miterlimit="10"/>
<path d="M321.301 191.814V240.274H292.801V199.848" stroke="#BCD0ED" stroke-width="3.29723" stroke-miterlimit="10"/>
<path d="M312.908 194.167V231.063H301.19V197.494" stroke="#BCD0ED" stroke-width="3.29723" stroke-miterlimit="10"/>
<path d="M371.555 199.848V240.274H343.105V191.814" stroke="#BCD0ED" stroke-width="3.29723" stroke-miterlimit="10"/>
<path d="M363.221 197.494V231.063H351.452V194.167" stroke="#BCD0ED" stroke-width="3.29723" stroke-miterlimit="10"/>
<path d="M421.861 213.971V240.274H393.36V205.63" stroke="#BCD0ED" stroke-width="3.29723" stroke-miterlimit="10"/>
<path d="M413.474 211.567V231.063H401.757V208.087" stroke="#BCD0ED" stroke-width="3.29723" stroke-miterlimit="10"/>
<path d="M307.094 357.356L343.577 363.65L350.229 396.042" stroke="#BCD0ED" stroke-width="2.77661" stroke-miterlimit="10"/>
<path d="M398.872 512.612V502.378L369.86 482.421L344.89 487.538L309.481 453.713V430.737L249.051 375.317L211.186 333.51C223.262 324.657 243.422 352.853 243.422 352.853L241.017 346.405C238.612 339.957 239.38 338.371 228.123 332.691C224.988 331.104 222.529 328.441 221.195 325.191C219.861 321.94 219.741 318.317 220.857 314.985L226.537 319.028L298.991 351.113C298.991 351.113 345.708 385.757 363.413 412.52C381.117 439.283 385.159 440.715 385.159 440.715L402.915 446.089L419.749 480.016L439.705 486.105" stroke="#BCD0ED" stroke-width="3.29723" stroke-miterlimit="10"/>
<path d="M255.502 381.202L303.856 397.065L298.995 351.113" stroke="#BCD0ED" stroke-width="3.29723" stroke-miterlimit="10"/>
<path d="M266.245 347.48C266.255 348.2 266.05 348.908 265.657 349.512C265.264 350.116 264.701 350.59 264.038 350.872C263.375 351.155 262.643 351.235 261.935 351.1C261.227 350.966 260.575 350.624 260.061 350.118C259.548 349.612 259.197 348.965 259.053 348.259C258.908 347.552 258.977 346.819 259.251 346.152C259.524 345.486 259.99 344.915 260.588 344.513C261.187 344.112 261.891 343.898 262.612 343.897C263.566 343.897 264.483 344.273 265.163 344.943C265.842 345.614 266.231 346.525 266.245 347.48V347.48Z" stroke="#BCD0ED" stroke-width="3.29723" stroke-miterlimit="10"/>
<path fill-rule="evenodd" clip-rule="evenodd" d="M386.743 439.436C395.647 454.788 402.094 467.427 401.275 467.939C400.457 468.451 392.577 456.528 383.622 441.227L386.743 439.436Z" fill="#BCD0ED"/>
<path fill-rule="evenodd" clip-rule="evenodd" d="M368.283 483.905L315.784 435.854C318.878 437.912 321.835 440.168 324.637 442.609L343.467 457.961L370.637 480.784L368.283 483.905Z" fill="#BCD0ED"/>
<path d="M565.138 447.573L654.887 447.317V498.233L595.89 498.847" stroke="#BCD0ED" stroke-width="3.29723" stroke-miterlimit="10"/>
<path d="M94.8347 504.783H1.65674V447.317H110.288L132.904 447.368L157.567 447.317L333.127 556.928L499.476 447.317L534.68 447.368" stroke="#BCD0ED" stroke-width="3.29723" stroke-miterlimit="10"/>
<path d="M523.421 502.327L333.125 626.164L168.26 518.805" stroke="#BCD0ED" stroke-width="3.29723" stroke-miterlimit="10"/>
<path fill-rule="evenodd" clip-rule="evenodd" d="M103.829 497.568C104.615 506.021 106.331 514.361 108.946 522.438C109.097 513.849 108.308 505.269 106.592 496.852L103.829 497.568Z" fill="#BCD0ED"/>
<path fill-rule="evenodd" clip-rule="evenodd" d="M115.105 459.803C115.514 467.683 115.975 475.154 116.384 482.011C116.869 488.048 117.741 494.047 118.994 499.973C119.794 505.497 121.131 510.93 122.985 516.194C122.751 510.646 122.118 505.123 121.092 499.666C120.478 494.548 119.403 488.561 119.096 481.807C118.789 475.052 118.431 467.581 118.073 459.7L115.105 459.803Z" fill="#BCD0ED"/>
<path fill-rule="evenodd" clip-rule="evenodd" d="M129.229 459.035L129.689 473.005L129.945 480.016C129.945 482.267 130.406 484.621 130.661 486.924C131.838 496.135 134.09 505.244 135.778 514.404C134.741 511.666 133.886 508.862 133.22 506.011C131.941 500.894 129.996 494.139 128.87 487.18C127.85 480.809 127.2 474.385 126.926 467.939L126.261 459.189L129.229 459.035Z" fill="#BCD0ED"/>
<path fill-rule="evenodd" clip-rule="evenodd" d="M141.807 472.801C144.604 486.735 148.505 500.424 153.474 513.739C152.276 511.764 151.281 509.672 150.506 507.496C148.538 503.026 146.83 498.447 145.389 493.781C142.012 483.547 139.249 473.312 139.249 473.312L141.807 472.801Z" fill="#BCD0ED"/>
<path fill-rule="evenodd" clip-rule="evenodd" d="M268.961 119.354C273.685 119.527 278.242 121.153 282.009 124.011C279.895 123.266 277.742 122.634 275.561 122.117C274.074 121.855 272.569 121.701 271.059 121.657H269.012L268.961 119.354Z" fill="#BCD0ED"/>
<path d="M343.005 511.078C342.975 513.777 342.145 516.408 340.621 518.637C339.097 520.865 336.947 522.592 334.442 523.6C331.937 524.607 329.19 524.85 326.547 524.297C323.904 523.745 321.485 522.421 319.594 520.494C317.702 518.567 316.424 516.123 315.921 513.47C315.418 510.818 315.712 508.075 316.766 505.589C317.82 503.104 319.587 500.986 321.844 499.504C324.1 498.021 326.746 497.241 329.445 497.261C333.073 497.302 336.538 498.778 339.079 501.368C341.621 503.958 343.032 507.449 343.005 511.078Z" stroke="#BCD0ED" stroke-width="3.29723" stroke-miterlimit="10"/>
<path d="M335.729 511.077C335.729 512.322 335.36 513.539 334.668 514.574C333.977 515.609 332.994 516.416 331.844 516.893C330.694 517.369 329.428 517.494 328.207 517.251C326.987 517.008 325.865 516.408 324.985 515.528C324.105 514.648 323.505 513.526 323.263 512.305C323.02 511.084 323.144 509.819 323.621 508.669C324.097 507.519 324.904 506.536 325.939 505.844C326.974 505.152 328.191 504.783 329.435 504.783C331.105 504.783 332.705 505.446 333.886 506.627C335.066 507.807 335.729 509.408 335.729 511.077Z" stroke="#BCD0ED" stroke-width="3.29723" stroke-miterlimit="10"/>
<path d="M438.22 354.644C438.22 356.465 437.68 358.246 436.668 359.761C435.656 361.276 434.217 362.456 432.534 363.153C430.851 363.851 428.999 364.033 427.213 363.678C425.426 363.322 423.785 362.445 422.497 361.157C421.209 359.869 420.332 358.227 419.976 356.441C419.621 354.654 419.803 352.802 420.5 351.119C421.197 349.436 422.378 347.997 423.893 346.985C425.407 345.973 427.188 345.433 429.01 345.433C431.452 345.433 433.795 346.403 435.522 348.13C437.25 349.858 438.22 352.201 438.22 354.644V354.644Z" stroke="#BCD0ED" stroke-width="3.29723" stroke-miterlimit="10"/>
<path d="M261.691 429.509C261.691 433.021 260.649 436.454 258.698 439.374C256.747 442.294 253.974 444.57 250.73 445.914C247.486 447.258 243.916 447.609 240.471 446.924C237.027 446.239 233.863 444.548 231.38 442.065C228.897 439.581 227.206 436.417 226.521 432.973C225.836 429.528 226.187 425.958 227.531 422.714C228.875 419.469 231.151 416.696 234.071 414.745C236.991 412.793 240.423 411.752 243.935 411.752C248.644 411.752 253.16 413.623 256.49 416.953C259.82 420.283 261.691 424.799 261.691 429.509Z" stroke="#BCD0ED" stroke-width="3.29723" stroke-miterlimit="10"/>
<path d="M243.961 416.255L247.747 422.345L254.86 421.475L252.455 428.23L257.572 433.296L250.817 435.598L250.05 442.763L243.961 438.925L237.923 442.763L237.155 435.598L230.35 433.296L235.467 428.23L233.062 421.475L240.174 422.345L243.961 416.255Z" stroke="#BCD0ED" stroke-width="3.29723" stroke-miterlimit="10"/>
<path d="M404.398 341.339C404.398 344.851 403.356 348.284 401.405 351.204C399.454 354.124 396.681 356.4 393.437 357.744C390.192 359.088 386.622 359.44 383.178 358.755C379.734 358.07 376.57 356.379 374.087 353.895C371.604 351.412 369.913 348.248 369.228 344.803C368.543 341.359 368.894 337.789 370.238 334.544C371.582 331.299 373.858 328.526 376.778 326.575C379.698 324.624 383.13 323.583 386.642 323.583C391.351 323.583 395.867 325.453 399.197 328.783C402.527 332.113 404.398 336.63 404.398 341.339V341.339Z" stroke="#BCD0ED" stroke-width="3.29723" stroke-miterlimit="10"/>
<path d="M394.648 341.339C394.648 342.959 394.168 344.542 393.268 345.888C392.369 347.235 391.09 348.284 389.594 348.904C388.098 349.523 386.452 349.686 384.864 349.37C383.276 349.054 381.817 348.274 380.672 347.129C379.527 345.984 378.747 344.525 378.431 342.937C378.115 341.348 378.278 339.702 378.897 338.206C379.517 336.71 380.566 335.431 381.913 334.532C383.259 333.632 384.842 333.152 386.461 333.152C388.632 333.152 390.715 334.014 392.25 335.55C393.785 337.085 394.648 339.168 394.648 341.339Z" stroke="#BCD0ED" stroke-width="3.29723" stroke-miterlimit="10"/>
<path fill-rule="evenodd" clip-rule="evenodd" d="M556.531 447.521C556.224 468.468 555.815 489.415 555.303 510.361C555.166 509.462 555.166 508.548 555.303 507.649C555.303 505.909 555.303 503.453 554.996 500.536C554.996 494.651 554.996 486.771 554.536 478.941L553.922 447.521H556.531Z" fill="#BCD0ED"/>
<path fill-rule="evenodd" clip-rule="evenodd" d="M546.646 446.447L545.214 510.361C544.446 510.361 543.781 446.447 543.781 446.447H546.646Z" fill="#BCD0ED"/>
<path fill-rule="evenodd" clip-rule="evenodd" d="M536.116 447.368L535.195 510.361C534.428 510.361 533.251 447.368 533.251 447.368H536.116Z" fill="#BCD0ED"/>
<path d="M565.124 447.573C565.124 446.216 564.584 444.914 563.625 443.955C562.665 442.995 561.364 442.456 560.007 442.456C558.65 442.456 557.348 442.995 556.389 443.955C555.429 444.914 554.89 446.216 554.89 447.573C554.89 446.216 554.351 444.914 553.391 443.955C552.432 442.995 551.13 442.456 549.773 442.456C549.126 442.399 548.473 442.477 547.858 442.685C547.242 442.893 546.676 443.226 546.195 443.664C545.714 444.101 545.33 444.634 545.065 445.227C544.8 445.821 544.661 446.463 544.656 447.112C544.644 446.465 544.5 445.827 544.233 445.237C543.965 444.647 543.58 444.117 543.101 443.681C542.622 443.246 542.059 442.912 541.447 442.701C540.834 442.49 540.185 442.407 539.539 442.456C538.199 442.476 536.908 442.97 535.897 443.851C534.886 444.731 534.218 445.941 534.013 447.266C534.013 447.266 520.044 464.153 523.165 524.843L546.294 549.099C546.961 549.78 547.757 550.32 548.635 550.69C549.514 551.059 550.457 551.249 551.41 551.249C552.363 551.249 553.307 551.059 554.185 550.69C555.064 550.32 555.86 549.78 556.527 549.099L579.553 526.071L596.285 500.076C596.285 500.076 593.573 494.037 581.446 499.052C576.947 500.944 572.836 503.651 569.319 507.035L565.124 447.573Z" stroke="#BCD0ED" stroke-width="3.29723" stroke-miterlimit="10"/>
<path d="M609.902 498.847L653.089 542.497V612.705L589.077 549.559" stroke="#BCD0ED" stroke-width="3.29723" stroke-miterlimit="10"/>
<path d="M268.034 1194.89C270.376 1208.54 276.37 1221.31 285.378 1231.83C294.386 1242.35 306.074 1250.24 319.202 1254.66" stroke="#BCD0ED" stroke-width="3.29723" stroke-miterlimit="10"/>
<path d="M344.895 1180.31L353.389 1226.46" stroke="#BCD0ED" stroke-width="3.29723" stroke-miterlimit="10"/>
<path d="M215.743 831.313H165.239" stroke="#BCD0ED" stroke-width="3.29723" stroke-miterlimit="10"/>
<path d="M201.565 754.351H177.004" stroke="#BCD0ED" stroke-width="3.29723" stroke-miterlimit="10"/>
<path d="M187.3 436.059V466.045" stroke="#BCD0ED" stroke-width="3.29723" stroke-miterlimit="10"/>
<path d="M187.3 307.361V335.096" stroke="#BCD0ED" stroke-width="3.29723" stroke-miterlimit="10"/>
<path d="M201.41 403.411V474.643" stroke="#BCD0ED" stroke-width="3.29723" stroke-miterlimit="10"/>
<path d="M201.41 291.907V368.052" stroke="#BCD0ED" stroke-width="3.29723" stroke-miterlimit="10"/>
<path d="M215.908 340.623V484.263" stroke="#BCD0ED" stroke-width="3.47077" stroke-miterlimit="10"/>
<path d="M215.908 284.589V331.719" stroke="#BCD0ED" stroke-width="3.47077" stroke-miterlimit="10"/>
<path d="M230.078 440.562V492.553" stroke="#BCD0ED" stroke-width="3.47077" stroke-miterlimit="10"/>
<path d="M230.078 354.286V418.404" stroke="#BCD0ED" stroke-width="3.47077" stroke-miterlimit="10"/>
<path d="M230.078 333.612V335.812V338.627" stroke="#BCD0ED" stroke-width="3.47077" stroke-miterlimit="10"/>
<path d="M230.078 286.943V320.512" stroke="#BCD0ED" stroke-width="3.47077" stroke-miterlimit="10"/>
<path d="M243.943 447.266V502.123" stroke="#BCD0ED" stroke-width="3.29723" stroke-miterlimit="10"/>
<path d="M243.943 369.638V411.752" stroke="#BCD0ED" stroke-width="3.29723" stroke-miterlimit="10"/>
<path d="M243.943 302.5V326.653" stroke="#BCD0ED" stroke-width="3.29723" stroke-miterlimit="10"/>
<path d="M258.13 440.204V510.771" stroke="#BCD0ED" stroke-width="3.29723" stroke-miterlimit="10"/>
<path d="M258.13 383.607V418.814" stroke="#BCD0ED" stroke-width="3.29723" stroke-miterlimit="10"/>
<path d="M258.13 302.5V332.947" stroke="#BCD0ED" stroke-width="3.29723" stroke-miterlimit="10"/>
<path d="M272.583 396.963V520.339" stroke="#BCD0ED" stroke-width="3.47077" stroke-miterlimit="10"/>
<path d="M272.583 302.5V339.395" stroke="#BCD0ED" stroke-width="3.47077" stroke-miterlimit="10"/>
<path d="M286.77 409.961V529.141" stroke="#BCD0ED" stroke-width="3.47077" stroke-miterlimit="10"/>
<path d="M286.77 303.216V345.689" stroke="#BCD0ED" stroke-width="3.47077" stroke-miterlimit="10"/>
<path d="M300.787 423.01V537.636" stroke="#BCD0ED" stroke-width="3.29723" stroke-miterlimit="10"/>
<path d="M300.787 302.5V352.495" stroke="#BCD0ED" stroke-width="3.29723" stroke-miterlimit="10"/>
<path d="M314.964 458.626V546.335" stroke="#BCD0ED" stroke-width="3.29723" stroke-miterlimit="10"/>
<path d="M314.964 303.216V358.738" stroke="#BCD0ED" stroke-width="3.29723" stroke-miterlimit="10"/>
<path d="M329.434 524.741V555.598" stroke="#BCD0ED" stroke-width="3.47077" stroke-miterlimit="10"/>
<path d="M329.434 472.494V497.414" stroke="#BCD0ED" stroke-width="3.47077" stroke-miterlimit="10"/>
<path d="M329.434 302.96V361.757" stroke="#BCD0ED" stroke-width="3.47077" stroke-miterlimit="10"/>
<path d="M343.568 486.003V550.378" stroke="#BCD0ED" stroke-width="3.47077" stroke-miterlimit="10"/>
<path d="M343.568 302.5V364.674" stroke="#BCD0ED" stroke-width="3.47077" stroke-miterlimit="10"/>
<path d="M357.794 484.775V540.246" stroke="#BCD0ED" stroke-width="3.29723" stroke-miterlimit="10"/>
<path d="M357.794 302.5V404.742" stroke="#BCD0ED" stroke-width="3.29723" stroke-miterlimit="10"/>
<path d="M371.907 483.905V530.983" stroke="#BCD0ED" stroke-width="3.29723" stroke-miterlimit="10"/>
<path d="M371.907 351.522V424.699" stroke="#BCD0ED" stroke-width="3.29723" stroke-miterlimit="10"/>
<path d="M371.907 302.96V331.156" stroke="#BCD0ED" stroke-width="3.29723" stroke-miterlimit="10"/>
<path d="M386.434 494.242V521.414" stroke="#BCD0ED" stroke-width="3.47077" stroke-miterlimit="10"/>
<path d="M386.434 359.096V440.921" stroke="#BCD0ED" stroke-width="3.47077" stroke-miterlimit="10"/>
<path d="M386.434 303.216V323.582" stroke="#BCD0ED" stroke-width="3.47077" stroke-miterlimit="10"/>
<path d="M400.575 352.085V445.423" stroke="#BCD0ED" stroke-width="3.47077" stroke-miterlimit="10"/>
<path d="M400.575 303.216V330.593" stroke="#BCD0ED" stroke-width="3.47077" stroke-miterlimit="10"/>
<path d="M415.052 302.5V470.447" stroke="#BCD0ED" stroke-width="3.29723" stroke-miterlimit="10"/>
<path d="M429.18 363.855V483.905" stroke="#BCD0ED" stroke-width="3.29723" stroke-miterlimit="10"/>
<path d="M429.18 302.96V345.433" stroke="#BCD0ED" stroke-width="3.29723" stroke-miterlimit="10"/>
<path d="M443.654 286.79L441.658 484.263" stroke="#BCD0ED" stroke-width="3.47077" stroke-miterlimit="10"/>
<path d="M457.816 285.152V474.643" stroke="#BCD0ED" stroke-width="3.47077" stroke-miterlimit="10"/>
<path d="M471.89 408.477V466.046" stroke="#BCD0ED" stroke-width="3.47077" stroke-miterlimit="10"/>
<path d="M471.89 293.186V362.627" stroke="#BCD0ED" stroke-width="3.47077" stroke-miterlimit="10"/>
<path d="M486.017 437.646V456.477" stroke="#BCD0ED" stroke-width="3.47077" stroke-miterlimit="10"/>
<path d="M486.017 307.975V333.51" stroke="#BCD0ED" stroke-width="3.47077" stroke-miterlimit="10"/>
<path d="M501.173 329.058C503.014 328.704 504.878 328.482 506.751 328.393C516.776 328.379 526.4 332.331 533.522 339.387C540.645 346.443 544.688 356.03 544.769 366.055" stroke="#BCD0ED" stroke-width="3.29723" stroke-miterlimit="10"/>
<path d="M521.215 331.258C517.573 325.208 515.713 318.251 515.848 311.19C515.984 304.129 518.111 297.25 521.983 291.344" stroke="#BCD0ED" stroke-width="3.29723" stroke-miterlimit="10"/>
<path d="M470.414 291.344C465.859 283.674 463.307 274.981 462.994 266.065C463.034 257.3 465.611 248.733 470.414 241.4" stroke="#BCD0ED" stroke-width="3.29723" stroke-miterlimit="10"/>
<path d="M522.693 380.383C524.44 380.832 526.151 381.414 527.81 382.123C532.609 384.191 536.914 387.253 540.442 391.108C543.971 394.963 546.641 399.522 548.277 404.485" stroke="#BCD0ED" stroke-width="3.29723" stroke-miterlimit="10"/>
<path d="M539.937 390.209C539.061 383.563 540.016 376.804 542.701 370.661C545.543 364.06 550.28 358.45 556.311 354.542" stroke="#BCD0ED" stroke-width="3.29723" stroke-miterlimit="10"/>
<path d="M564.36 386.013C564.36 386.013 638.298 349.885 653.086 336.12" stroke="#BCD0ED" stroke-width="3.29723" stroke-miterlimit="10"/>
<path d="M426.044 144.634C426.044 144.634 381.681 174.416 381.323 180.761" stroke="#BCD0ED" stroke-width="3.29723" stroke-miterlimit="10"/>
<path d="M212.516 222.363L245.52 284.077H425.019L451.831 222.363" stroke="#BCD0ED" stroke-width="3.29723" stroke-miterlimit="10"/>
<path d="M394.898 517.065L427.134 563.683" stroke="#BCD0ED" stroke-width="3.47077" stroke-miterlimit="10"/>
<path d="M271.364 517.065L238.054 564.246" stroke="#BCD0ED" stroke-width="3.47077" stroke-miterlimit="10"/>
<path d="M93.366 498.591C95.1351 502.881 96.5888 507.293 97.7154 511.794C98.9946 517.423 98.3294 523.052 103.344 530.574C108.358 538.096 111.429 545.107 126.421 549.508C132.709 551.772 139.564 551.923 145.945 549.938C152.326 547.952 157.885 543.938 161.778 538.506C168.635 529.755 169.403 518.344 164.49 505.039C161.932 498.182 156.406 486.771 153.438 480.681C148.321 470.447 145.967 461.645 142.846 462.873C139.725 464.101 140.953 475.41 140.953 475.41C140.953 475.41 135.836 448.545 131.077 447.931C126.319 447.317 127.802 459.138 127.802 459.138C127.802 459.138 124.63 448.187 120.281 447.573C115.931 446.959 116.545 459.752 116.545 459.752C116.545 459.752 113.936 447.061 110.763 447.675C107.591 448.289 104.009 492.144 105.237 497.261C106.465 502.378 98.3294 489.841 93.366 498.591Z" stroke="#BCD0ED" stroke-width="3.29723" stroke-miterlimit="10"/>
<path d="M569.828 498.847H581.955" stroke="#BCD0ED" stroke-width="3.29723" stroke-miterlimit="10"/>
<path d="M46.6376 459.854H39.7298V490.864H46.6376V459.854Z" stroke="#BCD0ED" stroke-width="3.29723" stroke-miterlimit="10"/>
<path d="M46.5811 480.016H56.8149C58.294 480.296 59.8167 480.247 61.2745 479.871C62.7323 479.496 64.0893 478.803 65.2487 477.843C66.4081 476.882 67.3414 475.678 67.982 474.316C68.6226 472.953 68.9547 471.466 68.9547 469.961C68.9547 468.455 68.6226 466.968 67.982 465.606C67.3414 464.243 66.4081 463.039 65.2487 462.078C64.0893 461.118 62.7323 460.425 61.2745 460.05C59.8167 459.674 58.294 459.625 56.8149 459.905H46.5811" stroke="#BCD0ED" stroke-width="3.29723" stroke-miterlimit="10"/>
<path d="M67.4033 491.529L59.5233 480.323" stroke="#BCD0ED" stroke-width="3.29723" stroke-miterlimit="10"/>
<path d="M603.2 457.347H596.292V488.357H603.2V457.347Z" stroke="#BCD0ED" stroke-width="3.29723" stroke-miterlimit="10"/>
<path d="M623.711 489.841L606.518 469.628" stroke="#BCD0ED" stroke-width="3.29723" stroke-miterlimit="10"/>
<path d="M622.794 456.323L603.197 472.954" stroke="#BCD0ED" stroke-width="3.29723" stroke-miterlimit="10"/>
<path d="M495.33 465.785L489.458 469.447L505.893 495.806L511.764 492.144L495.33 465.785Z" stroke="#BCD0ED" stroke-width="3.30283" stroke-miterlimit="10"/>
<path d="M430.414 509.943L424.588 513.655L441.249 539.809L447.075 536.097L430.414 509.943Z" stroke="#BCD0ED" stroke-width="3.29723" stroke-miterlimit="10"/>
<path d="M430.255 509.389L468.017 523.154" stroke="#BCD0ED" stroke-width="3.29723" stroke-linejoin="bevel"/>
<path d="M468.525 523.922L450.462 495.624" stroke="#BCD0ED" stroke-width="3.29723" stroke-linejoin="bevel"/>
<path d="M206.032 514.865L204.906 490.2L213.042 495.112L214.066 518.037L207.874 528.272L200.557 523.871L206.032 514.865Z" stroke="#BCD0ED" stroke-width="3.29723" stroke-miterlimit="10"/>
<path d="M213.743 517.883L235.541 507.751" stroke="#BCD0ED" stroke-width="3.29723" stroke-miterlimit="10"/>
<path d="M326.109 569.875H319.201V600.885H326.109V569.875Z" stroke="#BCD0ED" stroke-width="3.29723" stroke-miterlimit="10"/>
<path d="M326.113 584.254H339.57C341.359 584.102 343.026 583.284 344.24 581.962C345.455 580.64 346.129 578.91 346.129 577.115C346.129 575.32 345.455 573.59 344.24 572.268C343.026 570.946 341.359 570.128 339.57 569.977H326.113" stroke="#BCD0ED" stroke-width="3.29723" stroke-miterlimit="10"/>
<path d="M326.113 600.936H340.952C343.057 600.771 345.024 599.818 346.458 598.267C347.892 596.716 348.688 594.682 348.688 592.569C348.688 590.457 347.892 588.422 346.458 586.871C345.024 585.32 343.057 584.367 340.952 584.203H326.113" stroke="#BCD0ED" stroke-width="3.29723" stroke-miterlimit="10"/>
</svg>
