<svg width="610" height="992" viewBox="0 0 610 992" fill="none" xmlns="http://www.w3.org/2000/svg">
<g clip-path="url(#clip0_526_4522)">
<path fill-rule="evenodd" clip-rule="evenodd" d="M285.893 431.855L299.334 433.119C306.434 434.445 313.353 436.598 319.951 439.536C312.826 439.201 305.76 438.082 298.88 436.201L285.59 435.089L285.893 431.855Z" fill="#BCD0ED"/>
<path d="M276.439 434.032L351.933 138.828" stroke="#BCD0ED" stroke-width="2.88029" stroke-miterlimit="10"/>
<path d="M267.954 195.727L267.701 212.2L234.553 226.197L235.109 484.362H204.941H259.364" stroke="#BCD0ED" stroke-width="2.88029" stroke-miterlimit="10"/>
<path fill-rule="evenodd" clip-rule="evenodd" d="M248.752 238.93C254.63 238.299 260.559 238.299 266.438 238.93C271.352 239.227 276.106 240.794 280.233 243.478C282.836 245.407 285.21 247.628 287.307 250.098C288.823 251.866 289.177 253.231 288.924 253.281C288.672 253.332 288.166 252.271 286.549 250.805C284.209 248.71 281.709 246.801 279.071 245.095C272.704 240.952 261.031 240.649 249.106 241.76L248.752 238.93Z" fill="#BCD0ED"/>
<path fill-rule="evenodd" clip-rule="evenodd" d="M325.967 243.883C318.085 244.07 310.463 246.741 304.188 251.513C301.414 253.889 299.322 256.958 298.124 260.407C297.118 263.887 296.358 267.432 295.85 271.019C293.071 285.218 289.584 297.75 288.169 308.462C287.302 313.173 287.302 318.002 288.169 322.712C288.54 324.435 289.267 326.063 290.302 327.489C291.338 328.916 292.659 330.112 294.182 330.999C299.235 334.132 302.621 335.092 302.52 335.294C301.699 335.269 300.892 335.08 300.145 334.739C297.896 334.023 295.729 333.075 293.677 331.909C291.96 331.019 290.45 329.775 289.248 328.26C288.046 326.744 287.179 324.991 286.704 323.116C285.538 318.148 285.332 313.003 286.097 307.957C287.31 296.992 290.595 284.409 293.222 270.261C293.741 266.539 294.518 262.858 295.547 259.245C296.828 255.328 299.151 251.834 302.267 249.138C308.974 243.93 317.174 241.007 325.663 240.801L325.967 243.883Z" fill="#BCD0ED"/>
<path fill-rule="evenodd" clip-rule="evenodd" d="M278.314 325.694C274.205 329.904 268.922 332.775 263.154 333.931C258.622 334.971 254.005 335.596 249.359 335.801C245.141 336.293 240.871 336.071 236.727 335.144C240.744 334.535 244.793 334.164 248.854 334.032C253.341 333.577 257.785 332.766 262.144 331.607C267.412 330.46 272.227 327.789 275.989 323.926L278.314 325.694Z" fill="#BCD0ED"/>
<path fill-rule="evenodd" clip-rule="evenodd" d="M268.813 211.289C272.693 215.523 277.43 218.882 282.71 221.143C285.041 221.812 287.335 222.604 289.582 223.518C287.084 224.117 284.459 223.886 282.103 222.861C276.115 220.983 270.764 217.485 266.641 212.754L268.813 211.289Z" fill="#BCD0ED"/>
<path d="M456.434 384.812C459.842 395.966 464.81 406.581 471.189 416.344C483.317 436.557 485.591 441.61 484.782 447.926L429.905 455.304L368.358 454.495C368.358 454.495 327.933 428.118 318.938 426.956C316.462 426.602 293.673 426.956 293.673 426.956L285.689 433.676L272.753 434.333C269.636 435.254 266.709 436.725 264.112 438.679C262.972 442.216 262.492 445.933 262.697 449.644C261.348 452.398 260.216 455.254 259.311 458.184C259.095 460.976 259.095 463.78 259.311 466.572C258.253 469.466 257.508 472.464 257.088 475.516C257.587 478.179 258.348 480.786 259.362 483.298C259.483 485.792 259.873 488.265 260.524 490.676C261.28 492.057 262.303 493.274 263.536 494.255C264.768 495.235 266.183 495.96 267.699 496.386L299.837 499.316C307.474 501.516 314.996 504.096 322.374 507.048C326.467 507.856 365.781 501.186 365.781 501.186C385.514 506.914 405.698 510.954 426.115 513.263C450.421 514.88 504.237 525.441 534.202 523.016C564.167 520.59 571.443 508.463 571.443 508.463C571.443 508.463 583.621 493.303 580.387 483.197C577.153 473.091 561.741 428.926 560.175 420.791C558.608 412.655 556.233 404.772 556.233 404.772L553.151 387.137" stroke="#BCD0ED" stroke-width="2.88029" stroke-miterlimit="10"/>
<path fill-rule="evenodd" clip-rule="evenodd" d="M259.414 468.089C269.52 468.089 279.627 468.089 286.954 467.786C293.373 469.096 299.907 469.756 306.459 469.756C300.202 467.533 293.734 465.958 287.156 465.057C279.172 465.057 269.824 464.754 259.414 464.754V468.089Z" fill="#BCD0ED"/>
<path fill-rule="evenodd" clip-rule="evenodd" d="M262.75 447.824C274.221 447.824 284.377 447.824 292.614 448.228C297.975 449.145 303.214 450.671 308.228 452.776C302.882 452.71 297.561 452.049 292.361 450.806C284.63 450.806 274.069 451.21 262.75 451.21V447.824Z" fill="#BCD0ED"/>
<path fill-rule="evenodd" clip-rule="evenodd" d="M479.326 503.008C471.058 502.952 462.803 502.344 454.616 501.189C451.074 500.734 447.564 500.059 444.105 499.168C441.111 498.255 438.054 497.562 434.959 497.096C430.361 496.539 425.712 496.539 421.114 497.096C419.375 497.152 417.662 497.529 416.061 498.208C422.241 498.068 428.423 498.389 434.555 499.168C437.618 499.742 440.64 500.518 443.6 501.492C447.14 502.487 450.734 503.28 454.363 503.867C462.722 505.181 471.168 505.857 479.629 505.889C488.141 506.296 496.665 505.375 504.895 503.16C511.243 501.076 517.453 498.595 523.49 495.732C528.543 493.357 532.99 491.386 535.971 490.274C538.953 489.163 540.721 488.809 540.671 488.607C538.958 488.391 537.218 488.617 535.618 489.264C531.215 490.549 526.895 492.101 522.682 493.913C516.486 496.523 510.161 498.817 503.732 500.785C495.747 502.703 487.526 503.452 479.326 503.008Z" fill="#BCD0ED"/>
<path fill-rule="evenodd" clip-rule="evenodd" d="M508.939 447.879C500.722 447.629 492.5 448.154 484.381 449.445C477.847 450.643 471.449 452.488 465.28 454.953C461.088 456.609 457.062 458.657 453.254 461.068C450.576 462.786 449.262 463.948 449.363 464.099C449.464 464.251 455.174 460.36 465.786 456.823C471.943 454.535 478.305 452.843 484.785 451.77C492.748 450.616 500.797 450.176 508.838 450.456C514.296 450.549 519.744 450.937 525.16 451.618C527.737 451.972 530.213 452.326 532.588 452.78L536.125 453.538C537.287 453.842 538.045 453.993 540.521 454.802C540.967 453.931 541.323 453.016 541.583 452.073C541.583 451.467 541.835 450.911 541.936 450.304C542.06 449.162 542.06 448.01 541.936 446.868C541.932 444.747 541.626 442.637 541.027 440.602C539.986 437.427 538.667 434.349 537.085 431.406C536.006 428.701 534.39 426.243 532.335 424.18C532.335 424.18 533.7 426.959 535.771 432.012C537.113 434.955 538.228 437.995 539.106 441.108C539.596 442.969 539.8 444.895 539.713 446.818C539.712 447.853 539.611 448.885 539.41 449.9C539.41 450.405 539.41 450.911 539.056 451.416C538.702 451.921 539.056 451.719 539.056 451.82L536.681 451.113L533.093 450.254C530.617 449.749 528.04 449.294 525.463 448.94C519.983 448.243 514.464 447.888 508.939 447.879Z" fill="#BCD0ED"/>
<path fill-rule="evenodd" clip-rule="evenodd" d="M564.777 495.223C566.444 496.537 568.516 496.992 569.223 497.649C569.931 498.306 569.678 499.519 569.223 501.035C568.132 503.931 566.779 506.722 565.181 509.372C563.884 511.708 561.958 513.633 559.622 514.931C557.543 515.908 555.205 516.192 552.952 515.739C549.48 515.049 546.192 513.638 543.301 511.596C541.178 510.231 540.067 509.322 539.915 509.473C539.764 509.625 540.673 510.787 542.644 512.455C545.545 514.946 549.016 516.682 552.75 517.508C555.425 518.211 558.26 517.98 560.785 516.851C563.618 515.463 565.975 513.264 567.556 510.534C569.387 507.776 570.88 504.807 572.003 501.691C572.339 500.797 572.56 499.863 572.66 498.912C572.675 497.726 572.221 496.582 571.396 495.729C569.425 494.162 567.859 494.061 566.747 493.101C564.625 491.434 564.524 488.048 564.372 484.561C564.363 481.196 563.694 477.866 562.402 474.758C560.937 471.931 558.824 469.49 556.237 467.633C554.198 466.04 551.996 464.668 549.668 463.54C545.209 461.021 540.129 459.812 535.014 460.054C539.746 461.296 544.348 462.988 548.758 465.107C553.409 467.368 557.254 471.001 559.774 475.516C560.876 478.418 561.392 481.51 561.29 484.612C561.31 486.305 561.462 487.995 561.745 489.665C562.016 491.835 563.099 493.821 564.777 495.223Z" fill="#BCD0ED"/>
<path fill-rule="evenodd" clip-rule="evenodd" d="M259.361 484.715C268.002 484.715 276.138 484.715 282.757 484.412C289.172 485.278 295.663 485.43 302.111 484.867C295.828 483.101 289.373 482.017 282.858 481.633C276.037 481.633 268.053 481.633 259.361 481.633V484.715Z" fill="#BCD0ED"/>
<path d="M452.392 384.56C450.272 378.046 449.498 371.169 450.118 364.347L450.926 352.22L423.387 306.742L489.077 324.579L536.072 301.891H595.193V353.938L608.18 370.158V388.754L452.392 384.56Z" stroke="#BCD0ED" stroke-width="2.88029" stroke-miterlimit="10"/>
<path d="M536.023 302.09L494.537 205.727C471.879 210.357 448.787 212.526 425.662 212.195C407.275 212.101 388.931 210.411 370.836 207.141" stroke="#BCD0ED" stroke-width="2.88029" stroke-miterlimit="10"/>
<path d="M396.505 210.581L375.889 187.387" stroke="#BCD0ED" stroke-width="2.88029" stroke-miterlimit="10"/>
<path d="M369.371 133.926L439.205 212.148" stroke="#BCD0ED" stroke-width="2.88029" stroke-miterlimit="10"/>
<path d="M308.73 426.805L385.74 153.684H348.145" stroke="#BCD0ED" stroke-width="2.88029" stroke-miterlimit="10"/>
<path d="M273.512 566.777L292.36 498.812" stroke="#BCD0ED" stroke-width="2.88029" stroke-miterlimit="10"/>
<path d="M249.158 654.702L266.288 592.953" stroke="#BCD0ED" stroke-width="2.88029" stroke-miterlimit="10"/>
<path d="M261.136 491.586L214.092 654.6" stroke="#BCD0ED" stroke-width="2.88029" stroke-miterlimit="10"/>
<path d="M267.696 208.156H110.999L132.879 262.831L107.31 442.622L95.1824 451.161L63.6004 647.981L38.082 702.656L136.517 718.422L193.516 410.585" stroke="#BCD0ED" stroke-width="2.88029" stroke-miterlimit="10"/>
<path d="M449.967 211.695L368.156 454.397" stroke="#BCD0ED" stroke-width="2.88029" stroke-miterlimit="10"/>
<path d="M347.994 441.208L416.919 212.301" stroke="#BCD0ED" stroke-width="2.88029" stroke-miterlimit="10"/>
<path d="M326.467 363.998C340.425 360.029 353.151 352.589 363.456 342.371C371.837 334.541 379.312 325.795 385.74 316.297" stroke="#BCD0ED" stroke-width="2.88029" stroke-miterlimit="10"/>
<path d="M332.434 342.719C349.201 336.017 363.922 325.041 375.133 310.884C385.028 298.785 393.129 285.323 399.185 270.914" stroke="#BCD0ED" stroke-width="2.88029" stroke-miterlimit="10"/>
<path d="M429.705 455.203L456.436 384.812" stroke="#BCD0ED" stroke-width="2.88029" stroke-miterlimit="10"/>
<path fill-rule="evenodd" clip-rule="evenodd" d="M489.936 324.229C497.263 291.889 503.731 266.068 504.489 266.219C505.247 266.371 499.941 292.496 492.715 324.836L489.936 324.229Z" fill="#BCD0ED"/>
<path d="M393.83 289.36L424.149 288.754" stroke="#BCD0ED" stroke-width="2.88029" stroke-miterlimit="10"/>
<path d="M363.006 393.098L385.593 403.356" stroke="#BCD0ED" stroke-width="2.88029" stroke-miterlimit="10"/>
<path fill-rule="evenodd" clip-rule="evenodd" d="M440.821 243.783C440.278 254.622 442.504 265.422 447.289 275.163C451.147 283.222 455.984 290.774 461.691 297.649C465.344 302.392 469.748 306.506 474.728 309.827C476.603 310.962 478.627 311.829 480.741 312.404C480.741 312.404 478.164 312.809 474.223 310.787C468.867 307.723 464.122 303.697 460.225 298.913C454.181 292.061 449.082 284.43 445.066 276.224C439.865 266.073 437.474 254.715 438.143 243.328L440.821 243.783Z" fill="#BCD0ED"/>
<path fill-rule="evenodd" clip-rule="evenodd" d="M433.645 265.003C433.613 271.542 435.065 278.004 437.89 283.902C440.119 288.848 442.899 293.526 446.177 297.848C448.266 300.836 450.825 303.464 453.757 305.63C454.855 306.352 456.023 306.961 457.243 307.449C457.243 307.449 455.626 307.853 453.201 306.54C449.885 304.641 446.968 302.119 444.611 299.112C441.026 294.793 437.972 290.06 435.515 285.013C432.376 278.741 430.766 271.815 430.816 264.801L433.645 265.003Z" fill="#BCD0ED"/>
<path fill-rule="evenodd" clip-rule="evenodd" d="M523.291 338.783C508.796 338.599 494.354 340.575 480.44 344.645C474.605 346.008 469.138 348.629 464.422 352.325C465.933 351.857 467.404 351.266 468.818 350.557C472.798 348.98 476.864 347.63 480.996 346.514C494.775 343.064 508.935 341.367 523.139 341.461C537.363 341.323 551.545 343.021 565.333 346.514C569.459 347.618 573.51 348.985 577.46 350.607C578.882 351.315 580.351 351.923 581.857 352.427C577.188 348.663 571.729 346.003 565.889 344.645C552.065 340.561 537.704 338.585 523.291 338.783Z" fill="#BCD0ED"/>
<path fill-rule="evenodd" clip-rule="evenodd" d="M407.978 438.63C402.839 436.864 397.908 434.543 393.273 431.707C392.97 431.707 393.93 433.728 396.355 435.75C399.554 438.303 403.231 440.193 407.169 441.308C412.566 443.346 418.462 443.664 424.047 442.218C424.097 441.359 416.568 441.207 407.978 438.63Z" fill="#BCD0ED"/>
<path d="M313.789 290.422L344.664 299.669" stroke="#BCD0ED" stroke-width="2.88029" stroke-miterlimit="10"/>
<path d="M304.334 328.016L336.27 329.127" stroke="#BCD0ED" stroke-width="2.88029" stroke-miterlimit="10"/>
<path d="M203.682 208.562L235.112 484.363" stroke="#BCD0ED" stroke-width="2.88029" stroke-miterlimit="10"/>
<path d="M162.24 208.562L204.99 484.363" stroke="#BCD0ED" stroke-width="2.88029" stroke-miterlimit="10"/>
<path d="M180.787 328.773H217.473" stroke="#BCD0ED" stroke-width="2.88029" stroke-miterlimit="10"/>
<path fill-rule="evenodd" clip-rule="evenodd" d="M134.094 262.121C141.838 274.47 148.792 287.297 154.913 300.525C146.443 288.684 138.714 276.331 131.77 263.536L134.094 262.121Z" fill="#BCD0ED"/>
<path d="M107.316 442.623L152.289 421.652" stroke="#BCD0ED" stroke-width="2.88029" stroke-miterlimit="10"/>
<path d="M174.522 287.945L162.041 377.032L179.929 484.361" stroke="#BCD0ED" stroke-width="2.88029" stroke-miterlimit="10"/>
<path d="M162.041 377.031H188.317" stroke="#BCD0ED" stroke-width="2.88029" stroke-miterlimit="10"/>
<path d="M203.677 75.2618L185.031 37.3633H292.663L292.562 65.7114L203.677 75.2618Z" stroke="#BCD0ED" stroke-width="2.88029" stroke-miterlimit="10"/>
<path d="M292.764 37.3633L428.592 87.6925L396.959 130.644L353.603 135.445" stroke="#BCD0ED" stroke-width="2.88029" stroke-miterlimit="10"/>
<path d="M185.034 37.3633H165.125L201.76 98.2535L221.265 110.381" stroke="#BCD0ED" stroke-width="2.88029" stroke-miterlimit="10"/>
<path d="M203.682 75.2575L223.136 114.116L230.868 116.996L229.907 126.85C229.907 126.85 247.24 155.653 249.867 166.972C250.593 168.836 251.489 170.629 252.545 172.328C253.152 173.743 254.971 174.4 255.931 176.674C257.869 181.578 259.341 186.653 260.327 191.833C260.327 191.833 263.814 198.807 278.62 193.551C293.425 188.296 302.167 186.578 304.795 183.091L307.422 179.605L325.967 168.892C331.35 164.553 335.411 158.794 337.691 152.267C340.268 142.666 342.239 141.251 342.239 141.251C342.239 141.251 353.608 141.251 353.608 135.188C353.626 129.034 354.201 122.895 355.326 116.845C356.185 113.358 365.786 103.808 360.379 98.5524C354.972 93.2971 292.566 65.707 292.566 65.707L203.682 75.2575Z" stroke="#BCD0ED" stroke-width="2.88029" stroke-miterlimit="10"/>
<path fill-rule="evenodd" clip-rule="evenodd" d="M249.41 165.455L256.737 163.029C259.052 162.173 261.436 161.513 263.862 161.058C268.208 160.452 272.2 159.088 275.686 158.633C279.348 157.812 283.115 157.556 286.854 157.875C283.345 159.129 279.724 160.043 276.04 160.604C272.756 161.26 268.966 162.776 264.266 163.585C262.011 164.11 259.799 164.803 257.647 165.657L250.32 168.133L249.41 165.455Z" fill="#BCD0ED"/>
<path fill-rule="evenodd" clip-rule="evenodd" d="M256.183 175.413C260.353 174.933 264.488 174.19 268.563 173.19C271.965 172.662 275.179 171.29 277.912 169.198C280.478 167.106 283.339 165.403 286.401 164.145C284.241 166.682 281.742 168.91 278.973 170.764C277.692 171.875 276.304 172.857 274.829 173.695C273.033 174.617 271.108 175.264 269.119 175.615C264.75 176.908 260.265 177.771 255.729 178.192L256.183 175.413Z" fill="#BCD0ED"/>
<path fill-rule="evenodd" clip-rule="evenodd" d="M306.205 179.104C308.316 174.806 310.82 170.712 313.684 166.875C313.32 171.839 311.569 176.602 308.631 180.62L306.205 179.104Z" fill="#BCD0ED"/>
<path fill-rule="evenodd" clip-rule="evenodd" d="M293.469 160.099C292.661 155.046 289.477 152.368 288.922 152.873C288.366 153.378 290.084 156.461 290.69 160.503C291.297 164.546 290.185 167.881 290.993 168.235C291.802 168.588 294.177 165.152 293.469 160.099Z" fill="#BCD0ED"/>
<path fill-rule="evenodd" clip-rule="evenodd" d="M233.895 114.32C237.139 120.85 239.909 127.605 242.182 134.533C243.451 137.493 244.35 140.599 244.86 143.78C244.86 145.296 244.86 146.812 245.214 148.328V150.551C245.214 151.511 245.214 152.471 245.214 153.431L251.429 155.958L252.743 156.514C253.197 156.514 254.158 157.423 254.663 156.514L256.987 154.796C259.666 152.724 261.788 150.45 263.506 149.086C264.15 148.533 264.935 148.17 265.774 148.036C266.612 147.902 267.471 148.003 268.256 148.328C269.368 148.782 269.822 149.338 269.923 149.237C270.024 149.136 269.923 148.479 268.559 147.721C267.676 147.227 266.671 146.994 265.66 147.047C264.65 147.101 263.675 147.44 262.849 148.025C260.676 149.49 258.655 151.41 255.926 153.078L254.006 154.391C254.006 154.391 254.006 154.391 253.501 154.391L252.237 153.785L247.437 151.612V148.075C247.437 146.559 247.437 144.993 247.184 143.376C246.699 139.917 245.818 136.526 244.557 133.269C242.296 126.207 239.492 119.331 236.168 112.703L233.895 114.32Z" fill="#BCD0ED"/>
<path fill-rule="evenodd" clip-rule="evenodd" d="M272.6 141.154C269.949 139.303 266.717 138.477 263.504 138.83C263.504 139.386 267.344 140.447 271.589 142.872C275.834 145.298 278.057 148.633 278.562 148.431C279.068 148.229 278.562 147.218 277.602 145.753C276.304 143.861 274.594 142.289 272.6 141.154Z" fill="#BCD0ED"/>
<path fill-rule="evenodd" clip-rule="evenodd" d="M310.402 120.533C312.54 126.087 315.339 131.363 318.739 136.248C321.721 140.745 324.55 144.687 327.026 147.971C329.503 151.256 331.473 153.833 332.888 155.602C333.584 156.575 334.399 157.458 335.314 158.229C333.147 154.356 330.733 150.626 328.088 147.062C325.814 143.676 323.035 139.634 320.205 135.086C316.988 130.346 314.31 125.261 312.221 119.927C311.087 117.243 310.535 114.35 310.604 111.437C310.781 108.766 311.729 106.203 313.332 104.06C316.318 100.321 319.102 96.4241 321.67 92.387C323.529 89.6395 324.627 86.4491 324.854 83.1398C324.878 82.5186 324.769 81.8995 324.533 81.3242C324.298 80.7488 323.942 80.2307 323.489 79.8047C323.888 80.8716 324.093 82.0009 324.096 83.1398C323.547 86.155 322.32 89.0061 320.508 91.4774C318.285 94.9136 315.455 98.5013 311.817 102.847C309.956 105.29 308.85 108.223 308.633 111.286C308.536 114.461 309.14 117.618 310.402 120.533Z" fill="#BCD0ED"/>
<path fill-rule="evenodd" clip-rule="evenodd" d="M291.094 116.747C286.747 116.204 282.342 117.11 278.562 119.324C278.563 119.83 284.171 118.314 290.993 118.718C295.063 119.176 299.066 120.108 302.919 121.497C301.381 119.934 299.537 118.705 297.503 117.887C295.468 117.07 293.286 116.682 291.094 116.747Z" fill="#BCD0ED"/>
<path fill-rule="evenodd" clip-rule="evenodd" d="M335.869 128.72C336.173 131.684 337.235 134.52 338.951 136.956C340.518 138.876 342.286 138.978 342.236 138.674C342.185 138.371 341.073 137.916 340.063 136.148C338.84 133.659 338.07 130.973 337.789 128.214C337.623 125.142 336.55 122.188 334.707 119.725C333.856 119.213 332.866 118.983 331.877 119.068C331.27 119.068 330.917 119.068 330.866 119.068C330.816 119.068 331.169 119.371 331.725 119.624C332.281 119.877 333.393 120.079 333.797 120.584C335.012 123.135 335.716 125.899 335.869 128.72Z" fill="#BCD0ED"/>
<path fill-rule="evenodd" clip-rule="evenodd" d="M269.471 92.4421C262.085 99.0501 253.511 104.194 244.205 107.602C244.205 108.056 247.793 107.955 253.2 106.187C256.343 105.124 259.36 103.717 262.194 101.993C265.622 99.8036 268.852 97.318 271.846 94.5644C273.031 93.5088 274.129 92.3597 275.13 91.1283L279.526 92.1389C281.143 92.4421 282.71 92.7453 284.175 92.9474C286.783 93.3442 289.421 93.5132 292.058 93.4527C296.505 93.4527 299.133 92.4421 299.032 92.0379C296.687 91.7117 294.324 91.5261 291.957 91.482C289.443 91.2432 286.946 90.8551 284.479 90.3198L279.981 89.2586L274.625 87.8438L273.614 88.5007L272.604 89.1576C271.492 90.4714 270.633 91.482 269.471 92.4421Z" fill="#BCD0ED"/>
<path fill-rule="evenodd" clip-rule="evenodd" d="M338.441 117C339.797 118.811 340.823 120.847 341.473 123.014C341.843 124.975 342.472 126.878 343.343 128.673C343.629 129.359 344.094 129.956 344.689 130.4C345.285 130.845 345.989 131.121 346.728 131.2C347.789 131.2 348.194 130.694 348.143 130.593C347.341 130.677 346.535 130.468 345.875 130.003C345.216 129.539 344.747 128.851 344.555 128.067C343.929 126.277 343.473 124.433 343.191 122.559C342.584 120.13 341.502 117.846 340.008 115.838C338.839 114.277 337.381 112.956 335.712 111.947L335.056 113.716C337.959 114.362 340.729 115.508 343.242 117.101C345.061 118.314 345.718 119.476 345.97 119.375C346.223 119.274 345.97 117.809 343.949 116.192C341.511 114.048 338.603 112.508 335.46 111.695L329.295 109.977L334.853 113.413C336.242 114.399 337.455 115.611 338.441 117Z" fill="#BCD0ED"/>
<path fill-rule="evenodd" clip-rule="evenodd" d="M283.365 107.345C278.919 109.669 274.624 111.438 270.632 113.358C268.894 114.312 267.066 115.091 265.174 115.682C264.402 115.761 263.622 115.661 262.894 115.389C262.167 115.117 261.512 114.682 260.98 114.116C258.859 112.494 256.437 111.309 253.855 110.629C252.087 110.225 251.025 110.174 251.025 110.326C254.308 111.479 257.368 113.188 260.071 115.379C260.751 116.118 261.593 116.689 262.531 117.048C263.469 117.408 264.477 117.545 265.477 117.451C267.528 116.919 269.511 116.156 271.39 115.177C275.28 113.459 279.778 111.64 284.224 109.315C292 105.624 299.241 100.899 305.751 95.2676C307.699 93.5212 309.476 91.5922 311.057 89.507C311.629 88.7341 312.089 87.8833 312.421 86.9805C312.118 86.9805 309.945 90.2145 304.892 94.2065C298.217 99.3573 290.998 103.763 283.365 107.345Z" fill="#BCD0ED"/>
<path fill-rule="evenodd" clip-rule="evenodd" d="M217.675 74.1445C219.076 79.3846 221.729 84.2057 225.407 88.1922C228.439 91.3964 231.869 94.1985 235.614 96.5299C238.154 98.1912 240.908 99.5001 243.8 100.421C245.821 101.078 246.984 101.027 247.034 101.179C247.085 101.33 245.821 101.836 243.547 101.482C240.423 100.91 237.416 99.8167 234.654 98.248C229.822 95.9341 225.527 92.6348 222.046 88.562C218.565 84.4891 215.975 79.733 214.441 74.5993L217.675 74.1445Z" fill="#BCD0ED"/>
<path fill-rule="evenodd" clip-rule="evenodd" d="M210.906 75.2109C211.827 81.2817 214.24 87.0289 217.93 91.9368C220.918 96.0791 224.303 99.9208 228.036 103.407C231.58 106.524 235.346 109.378 239.305 111.947C234.547 110.773 230.198 108.328 226.722 104.873C222.65 101.49 218.971 97.6594 215.757 93.4527C211.651 88.1837 209.002 81.9277 208.076 75.312L210.906 75.2109Z" fill="#BCD0ED"/>
<path fill-rule="evenodd" clip-rule="evenodd" d="M208.173 75.1562C209.942 85.8395 214.569 95.8449 221.564 104.111C224.494 107.522 227.687 110.699 231.115 113.611C231.115 114.065 226.062 111.842 220.099 105.425C212.282 97.1253 207.141 86.6673 205.344 75.4089L208.173 75.1562Z" fill="#BCD0ED"/>
<path fill-rule="evenodd" clip-rule="evenodd" d="M222.727 72.7812C224.166 78.0164 226.834 82.8325 230.509 86.829C233.605 90.0951 237.122 92.9331 240.969 95.2677C243.499 96.9154 246.234 98.2236 249.105 99.1586C251.126 99.765 252.288 99.7145 252.339 99.9166C252.389 100.119 251.126 100.573 248.852 100.22C245.722 99.6414 242.714 98.5305 239.959 96.9352C235.123 94.64 230.824 91.3527 227.341 87.2871C223.859 83.2214 221.271 78.4684 219.746 73.3371L222.727 72.7812Z" fill="#BCD0ED"/>
<path fill-rule="evenodd" clip-rule="evenodd" d="M228.234 72.7812C229.695 77.7923 232.408 82.3486 236.117 86.0205C239.156 89.0894 242.548 91.7865 246.223 94.0549C248.69 95.6483 251.358 96.9058 254.157 97.7943C256.128 98.4006 257.239 98.3501 257.29 98.5522C257.34 98.7544 256.128 99.1586 253.904 98.8554C250.866 98.3406 247.941 97.2973 245.263 95.773C240.538 93.6025 236.307 90.4878 232.831 86.6206C229.355 82.7534 226.707 78.2156 225.051 73.2866L228.234 72.7812Z" fill="#BCD0ED"/>
<path fill-rule="evenodd" clip-rule="evenodd" d="M237.887 71.9727C239.396 77.0031 242.041 81.6193 245.618 85.4645C248.397 88.5469 250.368 90.2145 250.115 90.5177C249.863 90.8208 247.488 89.6586 244.254 86.8289C239.874 83.016 236.696 78.0127 235.107 72.4274L237.887 71.9727Z" fill="#BCD0ED"/>
<path fill-rule="evenodd" clip-rule="evenodd" d="M242.939 70.7109C244.487 76.0086 247.197 80.8941 250.873 85.0113C253.703 88.2453 255.926 90.0644 255.522 90.3171C255.117 90.5698 252.844 89.4075 249.458 86.3756C245.007 82.2872 241.787 77.0368 240.16 71.2162L242.939 70.7109Z" fill="#BCD0ED"/>
<path fill-rule="evenodd" clip-rule="evenodd" d="M247.992 70.4102C249.363 75.2918 251.874 79.7776 255.319 83.4978C257.997 86.4286 259.918 88.1467 259.665 88.5509C259.412 88.9552 257.088 87.7424 253.955 84.9632C249.649 81.3048 246.593 76.3939 245.213 70.9155L247.992 70.4102Z" fill="#BCD0ED"/>
<path fill-rule="evenodd" clip-rule="evenodd" d="M251.73 69.8516C253.153 74.3842 255.67 78.4971 259.057 81.8275C261.685 84.5562 263.454 86.1227 263.201 86.4764C262.948 86.8301 260.776 85.7184 257.744 83.2424C253.491 79.973 250.407 75.4184 248.951 70.2558L251.73 69.8516Z" fill="#BCD0ED"/>
<path fill-rule="evenodd" clip-rule="evenodd" d="M262.141 68.1836C266.638 72.2766 271.337 74.8537 270.883 75.6117C266.773 75.1734 262.964 73.251 260.17 70.2048L262.141 68.1836Z" fill="#BCD0ED"/>
<path fill-rule="evenodd" clip-rule="evenodd" d="M268.716 67.5273C270.048 68.9611 271.484 70.2953 273.011 71.5193C274.173 72.5299 274.881 73.2374 274.729 73.5911C274.578 73.9448 273.516 73.5911 272 73.2374C270.082 72.3662 268.362 71.1107 266.947 69.5486L268.716 67.5273Z" fill="#BCD0ED"/>
<path fill-rule="evenodd" clip-rule="evenodd" d="M275.328 67.2266C277.248 68.793 278.461 70.5111 278.006 71.1175C277.552 71.7239 275.48 71.1175 273.357 69.2478L275.328 67.2266Z" fill="#BCD0ED"/>
<path fill-rule="evenodd" clip-rule="evenodd" d="M273.717 97.8466C271.39 98.1238 269.158 98.9367 267.198 100.222C265.679 101.215 264.243 102.331 262.903 103.557C260.68 105.679 259.619 107.296 259.922 107.549C260.225 107.801 261.691 106.74 264.167 105.123C267.101 102.795 270.578 101.247 274.273 100.626C279.799 100.488 285.285 99.6388 290.594 98.0993C285.044 96.8708 279.302 96.7848 273.717 97.8466Z" fill="#BCD0ED"/>
<path fill-rule="evenodd" clip-rule="evenodd" d="M272.198 104.112C268.964 105.223 265.781 105.476 263.557 106.082C261.334 106.689 259.869 107.144 259.919 107.548C259.97 107.952 261.385 108.104 263.76 108.053C266.979 108.055 270.18 107.578 273.26 106.638C277.602 105.71 281.616 103.633 284.882 100.625C280.5 101.131 276.223 102.307 272.198 104.112Z" fill="#BCD0ED"/>
<path fill-rule="evenodd" clip-rule="evenodd" d="M338.947 104.165C335.842 104.166 332.75 104.574 329.751 105.377C328.938 105.672 328.224 106.188 327.688 106.866C327.153 107.545 326.817 108.359 326.719 109.218C326.6 110.289 326.414 111.353 326.163 112.401C325.903 113.892 325.39 115.328 324.647 116.646C324.091 117.555 323.535 117.757 323.535 117.96C323.535 118.162 324.445 118.263 325.455 117.404C326.673 116.152 327.574 114.627 328.083 112.957C328.458 111.849 328.762 110.718 328.993 109.571C328.993 108.611 329.649 108.207 330.711 107.803C333.422 107.25 336.18 106.962 338.947 106.944C344.468 106.599 349.856 105.101 354.764 102.548C358.503 100.678 360.575 99.1619 360.423 98.8082C360.271 98.4545 357.846 99.4146 354.006 100.779C349.178 102.635 344.105 103.775 338.947 104.165Z" fill="#BCD0ED"/>
<path d="M428.592 87.6914L361.992 101.385" stroke="#BCD0ED" stroke-width="2.88029" stroke-miterlimit="10"/>
<path fill-rule="evenodd" clip-rule="evenodd" d="M340.872 141.203C333.899 173.24 328.846 199.112 329.351 199.314C329.857 199.516 336.476 174.048 343.652 141.809L340.872 141.203Z" fill="#BCD0ED"/>
<path d="M226.469 37.3605L269.926 2.03906L366.036 19.8766V64.7484" stroke="#BCD0ED" stroke-width="2.88029" stroke-miterlimit="10"/>
<path d="M306.258 9.51953V42.3649" stroke="#BCD0ED" stroke-width="2.88029" stroke-miterlimit="10"/>
<path d="M343.043 571.426H266.488V737.876H343.043V571.426Z" stroke="#BCD0ED" stroke-width="2.88029" stroke-miterlimit="10"/>
<path d="M343.043 737.875H266.488V779.21H343.043V737.875Z" stroke="#BCD0ED" stroke-width="2.88029" stroke-miterlimit="10"/>
<path d="M266.488 566.577H343.043L304.791 550.508L266.488 566.577Z" stroke="#BCD0ED" stroke-width="2.62763" stroke-miterlimit="10"/>
<path d="M297.969 737.876V571.426" stroke="#BCD0ED" stroke-width="2.88029" stroke-miterlimit="10"/>
<path d="M186.294 654.599C186.294 654.599 186.294 616.903 155.975 606.645C155.975 606.645 124.292 570.262 128.031 494.869C130.507 446.258 165.728 401.336 165.728 401.336" stroke="#BCD0ED" stroke-width="2.88029" stroke-miterlimit="10"/>
<path d="M286.398 520.438L304.792 550.756" stroke="#BCD0ED" stroke-width="2.88029" stroke-miterlimit="10"/>
<path d="M318.436 505.887L324.853 534.841" stroke="#BCD0ED" stroke-width="2.88029" stroke-miterlimit="10"/>
<path fill-rule="evenodd" clip-rule="evenodd" d="M315.096 571.527C315.096 648.84 314.489 710.994 313.681 710.994C312.872 710.994 312.316 648.84 312.316 571.527H315.096Z" fill="#BCD0ED"/>
<path fill-rule="evenodd" clip-rule="evenodd" d="M284.222 571.527C284.222 647.678 283.565 708.922 282.807 708.922C282.049 708.922 281.393 647.678 281.393 571.527H284.222Z" fill="#BCD0ED"/>
<path fill-rule="evenodd" clip-rule="evenodd" d="M330.869 571.527C330.869 647.678 330.212 708.922 329.454 708.922C328.696 708.922 328.039 647.678 328.039 571.527H330.869Z" fill="#BCD0ED"/>
<path d="M204.993 484.363H179.93" stroke="#BCD0ED" stroke-width="2.88029" stroke-miterlimit="10"/>
<path d="M254.815 513.465H174.773" stroke="#BCD0ED" stroke-width="2.88029" stroke-miterlimit="10"/>
<path d="M343.195 643.633C405.804 616.397 439.205 595.73 489.736 553.94L465.178 518.164" stroke="#BCD0ED" stroke-width="2.88029" stroke-miterlimit="10"/>
<path d="M342.996 692.803C386.716 678.461 427.356 656.042 462.806 626.708L439.157 592.195" stroke="#BCD0ED" stroke-width="2.88029" stroke-miterlimit="10"/>
<path d="M342.996 734.335C372.439 723.753 400.434 709.509 426.322 691.939L410.304 663.035" stroke="#BCD0ED" stroke-width="2.88029" stroke-miterlimit="10"/>
<path d="M441.225 515.031C413.335 542.407 379.837 563.406 343.043 576.578" stroke="#BCD0ED" stroke-width="2.88029" stroke-miterlimit="10"/>
<path d="M477.409 536.156C437.115 570.489 391.781 598.423 342.996 618.977" stroke="#BCD0ED" stroke-width="2.88029" stroke-miterlimit="10"/>
<path d="M342.996 759.756H449.971V637.016" stroke="#BCD0ED" stroke-width="2.88029" stroke-miterlimit="10"/>
<path d="M100.846 911.655H449.967V759.758" stroke="#BCD0ED" stroke-width="2.88029" stroke-miterlimit="10"/>
<path d="M416.564 911.655V759.758" stroke="#BCD0ED" stroke-width="2.88029" stroke-miterlimit="10"/>
<path d="M259.971 814.078C259.971 814.078 286.095 844.801 343.044 868.854C399.993 892.907 416.567 893.109 416.567 893.109" stroke="#BCD0ED" stroke-width="2.88029" stroke-miterlimit="10"/>
<path d="M252.591 852.582C252.237 851.975 265.022 876.129 309.085 876.129" stroke="#BCD0ED" stroke-width="2.88029" stroke-miterlimit="10"/>
<path d="M250.119 867.184C250.119 867.184 262.398 885.88 308.988 885.88" stroke="#BCD0ED" stroke-width="2.88029" stroke-miterlimit="10"/>
<path d="M45.3628 703.867C38.7163 709.83 34.0934 717.716 32.1372 726.429C30.181 735.141 30.9887 744.246 34.448 752.478C46.5756 781.635 40.057 787.85 40.057 787.85" stroke="#BCD0ED" stroke-width="2.88029" stroke-miterlimit="10"/>
<path d="M449.967 1201.35V911.652" stroke="#BCD0ED" stroke-width="2.88029" stroke-miterlimit="10"/>
<path d="M530.612 1270.73L309.133 1270.43V911.199" stroke="#BCD0ED" stroke-width="2.88029" stroke-miterlimit="10"/>
<path d="M141.676 911.199L214.239 1220.25L213.077 1270.43" stroke="#BCD0ED" stroke-width="2.88029" stroke-miterlimit="10"/>
<path d="M187.208 1270.43L102.821 911.199L91.8555 999.073" stroke="#BCD0ED" stroke-width="2.88029" stroke-miterlimit="10"/>
<path d="M186.295 654.598L266.488 654.699" stroke="#BCD0ED" stroke-width="2.88029" stroke-miterlimit="10"/>
<path d="M134.5 729.187C134.5 729.187 176.34 715.897 192.257 787.399C204.536 842.63 216.714 911.201 216.714 911.201" stroke="#BCD0ED" stroke-width="2.88029" stroke-miterlimit="10"/>
<path d="M241.727 911.25C241.727 911.25 228.134 827.672 213.127 760.01C193.622 672.237 142.383 688.559 142.383 688.559" stroke="#BCD0ED" stroke-width="2.88029" stroke-miterlimit="10"/>
<path d="M149.656 647.02C149.656 647.02 217.671 636.661 240.259 738.279C258.602 821.201 258.905 819.584 258.905 819.584" stroke="#BCD0ED" stroke-width="2.88029" stroke-miterlimit="10"/>
<path d="M266.485 779.211L241.725 911.249L192.355 1127.12" stroke="#BCD0ED" stroke-width="2.88029" stroke-miterlimit="10"/>
<path d="M343.039 911.199V779.211H309.133V911.199" stroke="#BCD0ED" stroke-width="2.88029" stroke-miterlimit="10"/>
<path fill-rule="evenodd" clip-rule="evenodd" d="M134.352 731.963C122.877 735.32 112.319 741.247 103.478 749.295C96.6558 755.46 93.3713 760.058 92.7649 759.755C92.1586 759.452 93.3713 758.391 94.8872 756.269C97.0621 753.264 99.4788 750.441 102.113 747.83C110.922 739.04 121.827 732.64 133.796 729.234L134.352 731.963Z" fill="#BCD0ED"/>
<path d="M120.704 805.945C105.22 798.675 88.8907 793.362 72.0931 790.129C50.2205 786.068 27.6927 787.315 6.40234 793.767L11.4555 900.691L100.946 911.657" stroke="#BCD0ED" stroke-width="2.88029" stroke-miterlimit="10"/>
<path d="M96.5051 954.051L14.998 945.662L19.5459 901.902" stroke="#BCD0ED" stroke-width="2.88029" stroke-miterlimit="10"/>
<path d="M28.0788 947.023L25.4512 972.441L93.8706 979.515" stroke="#BCD0ED" stroke-width="2.88029" stroke-miterlimit="10"/>
<path d="M91.8527 999.073L33.2363 993.009L35.2576 973.453" stroke="#BCD0ED" stroke-width="2.88029" stroke-miterlimit="10"/>
<path d="M308.934 979.871L395.645 1154.61L356.837 1202.21H310.399" stroke="#BCD0ED" stroke-width="2.88029" stroke-miterlimit="10"/>
<path d="M416.564 911.652V954.048H449.966" stroke="#BCD0ED" stroke-width="2.88029" stroke-miterlimit="10"/>
<path d="M379.527 911.246L352.291 1067.24H310.805" stroke="#BCD0ED" stroke-width="2.88029" stroke-miterlimit="10"/>
<path fill-rule="evenodd" clip-rule="evenodd" d="M284.983 336C282.271 357.494 278.118 378.782 272.552 399.72C270.581 407.755 269.015 414.273 267.903 418.821C267.236 421.136 266.763 423.502 266.488 425.895C267.553 423.738 268.367 421.466 268.914 419.124C270.329 414.677 272.198 408.209 274.472 400.225C280.645 379.301 285.09 357.905 287.762 336.253L284.983 336Z" fill="#BCD0ED"/>
<path d="M136.521 718.418L102.816 911.195" stroke="#BCD0ED" stroke-width="2.88029" stroke-miterlimit="10"/>
<path fill-rule="evenodd" clip-rule="evenodd" d="M371.492 464.147C373.57 468.349 375.163 472.773 376.241 477.336C376.595 477.336 377.05 475.718 376.848 472.99C376.457 469.445 375.376 466.012 373.664 462.884C371.548 458.356 368.137 454.557 363.861 451.969C363.305 452.626 367.803 457.275 371.492 464.147Z" fill="#BCD0ED"/>
</g>
<defs>
<clipPath id="clip0_526_4522">
<rect width="608.953" height="1271.67" fill="white" transform="translate(0.388672 0.523438)"/>
</clipPath>
</defs>
</svg>
