<svg width="223" height="60" viewBox="0 0 223 60" fill="none" xmlns="http://www.w3.org/2000/svg">
<g clip-path="url(#clip0_421_3772)">
<path d="M90.4806 40.1613L85.6306 32.0613H80.6306V40.1613H71.8906V13.2812H86.7506C94.8106 13.2812 99.1806 17.0113 99.1806 22.2813V23.0013C99.2026 24.6202 98.7377 26.2085 97.8462 27.5601C96.9546 28.9117 95.6776 29.9642 94.1806 30.5812L99.8506 40.1413L90.4806 40.1613ZM80.6206 26.4213H85.4006C88.9506 26.4213 90.4006 24.8513 90.4006 23.0213V22.2713C90.4006 20.4813 88.9806 18.8812 85.4006 18.8812H80.6206V26.4213Z" fill="#1D1D1B"/>
<path d="M126.7 20.7109L118.7 38.3309C116.05 43.9709 112.76 47.3309 105.07 47.7809L103.55 42.0009C104.862 41.8339 106.112 41.3483 107.193 40.5865C108.274 39.8248 109.152 38.8101 109.75 37.6309L101 20.7109H110L114.26 30.5309L118.03 20.7109H126.7Z" fill="#1D1D1B"/>
<path d="M154.079 30.1512V30.7113C154.079 36.9913 149.409 40.7113 143.919 40.7113C141.269 40.7113 138.359 39.8513 136.639 37.5713L135.219 40.1513H128.869V12.5312H137.309V22.5313C139.113 20.8934 141.485 20.025 143.919 20.1113C149.409 20.1513 154.079 23.8812 154.079 30.1512ZM145.339 30.1512C145.339 27.4312 143.729 25.6713 141.339 25.6713C140.567 25.693 139.809 25.8832 139.118 26.2287C138.427 26.5742 137.82 27.0665 137.339 27.6713V33.2313C137.818 33.838 138.425 34.3318 139.116 34.6775C139.807 35.0232 140.566 35.2123 141.339 35.2313C143.759 35.2313 145.339 33.4813 145.339 30.7513V30.1512Z" fill="#1D1D1B"/>
<path d="M181.11 27.4992V40.1592H172.67V29.8492C172.67 27.4292 171.67 26.5292 169.84 26.5292C168.276 26.5621 166.787 27.2044 165.69 28.3192V40.1592H157.25V20.7092H163.6L165 23.7692C166.026 22.5768 167.308 21.6317 168.75 21.0049C170.193 20.378 171.758 20.0855 173.33 20.1492C178.39 20.1492 181.11 22.7192 181.11 27.4992Z" fill="#1D1D1B"/>
<path d="M185.369 13.2422H193.809V17.7622H185.369V13.2422ZM185.369 20.7122H193.809V40.1622H185.369V20.7122Z" fill="#1D1D1B"/>
<path d="M198.071 12.5312H206.511V27.0913L213.161 20.7112H222.161L215.001 27.6512L222.441 40.1613H213.301L209.001 33.3613L206.501 35.7913V40.1613H198.061L198.071 12.5312Z" fill="#1D1D1B"/>
<path d="M26.7 60C19.6749 60.0084 12.9301 57.2446 7.93089 52.309C2.93164 47.3734 0.081652 40.6647 0 33.64L0 0H53.37V0.56C53.37 0.56 53.37 33.09 53.37 33.27C53.3753 40.3505 50.5691 47.1433 45.568 52.1556C40.567 57.1679 33.7805 59.9894 26.7 60V60ZM1.13 1.13V33.63C1.17774 40.4063 3.91539 46.8861 8.7407 51.6439C11.13 53.9997 13.9598 55.8618 17.0687 57.124C20.1777 58.3862 23.5047 59.0236 26.86 59C30.2153 58.9764 33.533 58.2921 36.6239 56.9862C39.7147 55.6804 42.518 53.7785 44.8739 51.3893C47.2297 49 49.0918 46.1702 50.354 43.0613C51.6162 39.9523 52.2536 36.6253 52.23 33.27C52.23 33.1 52.23 5.44 52.23 1.13H1.13Z" fill="#1D1D1B"/>
<path fill-rule="evenodd" clip-rule="evenodd" d="M34.0599 4.68928C34.2159 5.18689 34.2802 5.70868 34.2499 6.22928C34.2459 6.30256 34.2459 6.376 34.2499 6.44928C34.2499 6.44928 34.3599 6.55928 34.4099 6.60928C34.8145 6.95971 35.1531 7.37965 35.4099 7.84928C35.1317 8.39622 34.7313 8.87183 34.2399 9.23928C34.2771 9.83605 34.1955 10.4343 33.9999 10.9993C33.4955 11.1557 32.9671 11.2201 32.4399 11.1893C30.8799 11.0793 29.9799 9.99928 30.2099 8.18928C29.6512 8.34857 29.1685 8.70352 28.8499 9.18928C28.6585 9.44526 28.5238 9.73908 28.4548 10.0512C28.3859 10.3633 28.3842 10.6865 28.4499 10.9993C28.4888 11.3091 28.5898 11.6079 28.7469 11.8777C28.9041 12.1475 29.114 12.3829 29.3643 12.5696C29.6145 12.7564 29.8999 12.8907 30.2033 12.9645C30.5067 13.0383 30.8218 13.0502 31.1299 12.9993C31.7815 12.9513 32.4171 12.7746 32.9999 12.4793C33.5399 12.2293 33.9999 11.9693 34.5599 11.6993C35.6693 11.0169 36.959 10.6857 38.2599 10.7493C38.1721 10.497 38.1151 10.2352 38.0899 9.96928C38.04 9.43921 38.1859 8.90922 38.4999 8.47928C38.5508 8.38357 38.6219 8.30003 38.7082 8.23443C38.7945 8.16883 38.894 8.12272 38.9999 8.09928C39.0599 8.21928 38.9999 8.35928 38.9999 8.46928C38.8481 8.86041 38.7899 9.28163 38.8299 9.69928C38.8787 10.0622 39.0199 10.4065 39.2399 10.6993C39.297 10.7956 39.3716 10.8804 39.4599 10.9493C39.5633 10.9898 39.6705 11.0199 39.7799 11.0393C40.9361 11.3873 41.9495 12.0985 42.6699 13.0675C43.3904 14.0365 43.7796 15.2118 43.7799 16.4193C43.8202 17.7511 43.4038 19.0567 42.5999 20.1193C42.3436 20.4173 42.1376 20.755 41.9899 21.1193C41.6577 22.0447 41.6158 23.0494 41.8699 23.9993C41.9807 24.3944 42.2043 24.7486 42.5134 25.0186C42.8224 25.2886 43.2035 25.4626 43.6099 25.5193C44.0358 25.5889 44.4728 25.5311 44.866 25.3532C45.2592 25.1753 45.591 24.8852 45.8199 24.5193C45.3998 24.5315 44.9845 24.4278 44.6193 24.2197C44.2542 24.0116 43.9534 23.707 43.7499 23.3393C43.5383 22.9248 43.4319 22.4646 43.4399 21.9993C43.4521 21.5243 43.5295 21.0532 43.6699 20.5993C44.2365 20.412 44.8379 20.3539 45.4299 20.4293C45.4849 20.3809 45.5352 20.3273 45.5799 20.2693C45.9356 19.8662 46.3586 19.5278 46.8299 19.2693C47.3747 19.5595 47.8492 19.9657 48.2199 20.4593C48.8017 20.4001 49.3894 20.4719 49.9399 20.6693C50.1016 21.1863 50.166 21.7288 50.1299 22.2693C49.9999 23.8493 48.8199 24.7493 46.9999 24.4393C46.7878 24.9404 46.4667 25.3879 46.0599 25.7493C45.6183 26.1258 45.0824 26.3747 44.5099 26.4693C43.9203 26.5828 43.3105 26.5255 42.7525 26.304C42.1944 26.0825 41.7112 25.7062 41.3599 25.2193C41.2066 25.5216 40.9865 25.785 40.7162 25.9894C40.4459 26.1939 40.1325 26.3341 39.7999 26.3993C39.6499 26.3993 39.0899 26.4793 39.0599 26.2993C39.0299 26.1193 39.2299 26.1393 39.2899 26.1093C39.5565 25.9808 39.808 25.8232 40.0399 25.6393C40.3473 25.3707 40.5784 25.0258 40.7099 24.6393C40.797 24.4064 40.8245 24.1555 40.7899 23.9093C40.7899 23.6993 40.6999 23.4693 40.6699 23.2193C40.628 22.7051 40.6515 22.1876 40.7399 21.6793C39.9802 22.0908 39.1484 22.3523 38.2899 22.4493C37.3458 22.548 36.3922 22.4034 35.5199 22.0293C34.8054 21.7168 34.1673 21.2528 33.6499 20.6693C33.1748 20.1405 32.8321 19.5064 32.6499 18.8193C32.6072 18.6763 32.5837 18.5284 32.5799 18.3793C32.5633 17.9232 32.412 17.4822 32.145 17.112C31.8781 16.7418 31.5074 16.459 31.0799 16.2993C30.9899 16.2993 30.7799 16.1793 30.7899 16.0793C30.7999 15.9793 31.1999 15.9393 31.3399 15.9493C31.8621 16.0112 32.3482 16.2472 32.7199 16.6193C32.8756 16.0912 33.1687 15.6139 33.5693 15.2361C33.9699 14.8584 34.4636 14.5937 34.9999 14.4693C34.9999 14.2893 35.1099 14.0993 35.1699 13.9293C35.6313 13.743 36.1225 13.6413 36.6199 13.6293C37.0959 13.6188 37.5614 13.7704 37.9399 14.0593C38.3184 13.7704 38.7839 13.6188 39.2599 13.6293C39.7604 13.6425 40.2547 13.7441 40.7199 13.9293C40.8943 14.4103 40.9856 14.9176 40.9899 15.4293C40.9979 15.9111 40.8467 16.3821 40.5599 16.7693C40.8502 17.1585 41.0016 17.6338 40.9899 18.1193C40.9856 18.631 40.8943 19.1382 40.7199 19.6193C40.2547 19.8045 39.7604 19.9061 39.2599 19.9193C38.7856 19.9278 38.3229 19.7724 37.9499 19.4793C37.5657 19.7656 37.0991 19.92 36.6199 19.9193C36.1225 19.9072 35.6313 19.8056 35.1699 19.6193C34.9909 19.1391 34.8962 18.6317 34.8899 18.1193C34.8804 17.6342 35.0316 17.1596 35.3199 16.7693C35.0612 16.4365 34.9142 16.0305 34.8999 15.6093C34.5278 15.7965 34.2139 16.0817 33.9919 16.4341C33.7699 16.7866 33.6482 17.1928 33.6399 17.6093C33.6046 18.0442 33.6592 18.4817 33.8003 18.8946C33.9413 19.3075 34.1659 19.6869 34.4599 20.0093C34.8708 20.4962 35.3864 20.884 35.9682 21.1438C36.5501 21.4035 37.183 21.5285 37.8199 21.5093C38.2943 21.4994 38.7653 21.4254 39.2199 21.2893C39.9879 21.0725 40.6908 20.6698 41.2663 20.117C41.8419 19.5641 42.2724 18.878 42.5199 18.1193C42.6606 17.6719 42.7413 17.2079 42.7599 16.7393C42.787 16.0915 42.6812 15.445 42.4491 14.8396C42.2169 14.2342 41.8632 13.6828 41.4099 13.2193C40.8447 12.6726 40.16 12.2652 39.4099 12.0293C38.9543 11.8741 38.4802 11.7799 37.9999 11.7493C37.519 11.7282 37.0383 11.7925 36.5799 11.9393C34.9399 12.4193 33.7599 13.4993 32.0599 13.9393C31.5719 14.0525 31.0693 14.0896 30.5699 14.0493C29.9563 14.0216 29.3634 13.8185 28.8618 13.464C28.3602 13.1095 27.9708 12.6185 27.7399 12.0493C27.5587 11.6378 27.4504 11.1979 27.4199 10.7493C27.4199 10.4593 27.4199 10.2093 27.4199 9.95928C27.4241 9.54139 27.3086 9.13103 27.0871 8.77664C26.8656 8.42225 26.5474 8.13864 26.1699 7.95928C26.0299 7.87928 25.6699 7.75928 25.6799 7.63928C25.6899 7.51928 26.2399 7.49928 26.4099 7.52928C26.7355 7.59548 27.0428 7.73174 27.3104 7.92859C27.5781 8.12545 27.7997 8.37819 27.9599 8.66928C28.4773 7.90668 29.2689 7.37298 30.1699 7.17928C30.1237 6.83622 30.1538 6.4872 30.2582 6.15715C30.3626 5.8271 30.5385 5.52419 30.7736 5.27005C31.0086 5.01592 31.2969 4.81684 31.6178 4.68706C31.9387 4.55727 32.2843 4.49998 32.6299 4.51928C33.1118 4.51643 33.5921 4.57353 34.0599 4.68928ZM31.3099 6.21928C31.1635 6.6089 31.1323 7.0324 31.2199 7.43928C31.2641 7.5656 31.2942 7.69638 31.3099 7.82928C31.2957 7.902 31.2722 7.97259 31.2399 8.03928C31.1776 8.28773 31.1473 8.54314 31.1499 8.79928C31.1499 9.79928 31.9899 10.2993 33.1499 10.1193C33.2296 9.6477 33.1777 9.16327 32.9999 8.71928C33.4534 8.54094 33.8482 8.23966 34.1399 7.84928C33.8446 7.45283 33.4519 7.13937 32.9999 6.93928C33.2045 6.50647 33.2709 6.02113 33.1899 5.54928C32.847 5.4314 32.4742 5.43349 32.1326 5.55522C31.7911 5.67695 31.501 5.91109 31.3099 6.21928ZM37.3599 14.9993C37.1662 14.8361 36.9318 14.7285 36.6817 14.688C36.4316 14.6474 36.1752 14.6756 35.9399 14.7693C35.8579 15.011 35.8324 15.2683 35.8653 15.5213C35.8982 15.7744 35.9888 16.0166 36.1299 16.2293C36.1999 16.2993 36.3799 16.3693 36.4199 16.4593C36.4305 16.569 36.4305 16.6795 36.4199 16.7893C36.4199 16.8993 36.4199 17.0093 36.4199 17.1193C36.4199 17.2293 36.2199 17.2493 36.1199 17.3293C35.9579 17.5414 35.8519 17.791 35.8117 18.0549C35.7715 18.3187 35.7984 18.5885 35.8899 18.8393C36.1213 18.9326 36.3738 18.9615 36.6203 18.9227C36.8668 18.884 37.0982 18.7791 37.2899 18.6193C37.3799 18.5193 37.4099 18.4093 37.5099 18.2993C37.6099 18.1893 37.9699 18.2993 38.1799 18.2993C38.3899 18.2993 38.3199 18.5293 38.4299 18.6393C38.6246 18.7784 38.8509 18.8668 39.0884 18.8965C39.3258 18.9261 39.5669 18.8962 39.7899 18.8093C39.8751 18.5664 39.9022 18.307 39.8692 18.0517C39.8363 17.7965 39.744 17.5525 39.5999 17.3393C39.5399 17.2793 39.2799 17.1593 39.2599 17.0793C39.2416 16.97 39.2416 16.8585 39.2599 16.7493C39.2538 16.6394 39.2538 16.5292 39.2599 16.4193C39.3228 16.3543 39.3933 16.2973 39.4699 16.2493C39.6405 16.0417 39.7534 15.7929 39.7973 15.5278C39.8412 15.2627 39.8145 14.9908 39.7199 14.7393C39.4991 14.6527 39.2603 14.622 39.0248 14.6499C38.7893 14.6779 38.5643 14.7635 38.3699 14.8993C38.3099 14.9593 38.1799 15.2193 38.1099 15.2393C38.0235 15.2493 37.9363 15.2493 37.8499 15.2393H37.4299C37.4699 15.1693 37.4299 15.0593 37.3599 14.9993ZM45.9099 21.6393C45.4745 21.4435 44.9908 21.3809 44.5199 21.4593C44.4394 21.7643 44.4415 22.0852 44.5258 22.3892C44.6101 22.6932 44.7738 22.9693 44.9999 23.1893C45.2815 23.3507 45.5961 23.4463 45.92 23.4688C46.2438 23.4913 46.5686 23.4402 46.8699 23.3193C46.9192 23.3508 46.9732 23.3745 47.0299 23.3893C47.3112 23.4886 47.6121 23.5195 47.9077 23.4795C48.2033 23.4395 48.4851 23.3297 48.7299 23.1593C48.9304 22.9403 49.073 22.6746 49.1446 22.3864C49.2162 22.0982 49.2146 21.7967 49.1399 21.5093C48.6671 21.4181 48.1781 21.4632 47.7299 21.6393C47.558 21.1877 47.2637 20.7929 46.8799 20.4993C46.4629 20.7756 46.1279 21.159 45.9099 21.6093V21.6393Z" fill="#1D1D1B"/>
<path fill-rule="evenodd" clip-rule="evenodd" d="M40.2991 39.2404C40.6005 40.0413 40.958 40.82 41.3691 41.5704C41.4191 41.6504 41.4991 41.8304 41.5591 41.8404C41.6191 41.8504 45.4491 41.8404 47.1991 41.8404C47.3205 43.0048 46.9833 44.1706 46.2591 45.0904C45.596 45.9246 44.6354 46.4694 43.5791 46.6104C43.4581 47.6794 42.9407 48.6642 42.1291 49.3704C41.6936 49.7456 41.1859 50.0278 40.6374 50.1998C40.0888 50.3718 39.5109 50.4298 38.9391 50.3704V44.0004C38.6191 43.6204 38.1391 43.0004 37.7891 42.7004C37.7891 42.7804 37.7891 43.2004 37.7891 43.2804C37.7281 43.6497 37.5789 43.9987 37.3544 44.2981C37.1298 44.5975 36.8365 44.8384 36.4991 45.0004C35.8845 45.3387 35.162 45.4235 34.4857 45.2367C33.8095 45.0499 33.233 44.6063 32.8791 44.0004C32.6241 43.6013 32.476 43.1433 32.4491 42.6704C32.4491 42.0904 32.4491 41.5004 32.4491 40.9104V39.0504C32.4491 38.9704 32.2091 38.7704 32.1291 38.6804C31.5691 38.1204 31.0191 37.5504 30.4891 36.9704C30.2791 36.7404 30.0391 36.5404 29.8291 36.3004C29.0291 35.4404 28.2791 34.6904 27.4891 33.8804C27.4891 33.8804 27.3191 33.0504 27.2891 33.0204C27.2722 33.2117 27.2455 33.4019 27.2091 33.5904C27.1041 34.1798 26.8251 34.7242 26.4081 35.1537C25.9911 35.5831 25.4551 35.878 24.8691 36.0004C24.3551 35.7815 23.9034 35.4385 23.5544 35.0023C23.2053 34.566 22.9699 34.05 22.8691 33.5004C22.728 32.9034 22.7363 32.2808 22.8932 31.6877C23.0502 31.0946 23.3511 30.5494 23.7691 30.1004C22.1291 28.3804 20.5391 26.7204 18.8891 25.0404C18.8091 24.9604 18.6291 24.2604 18.5591 24.1804C18.5834 24.4599 18.5834 24.741 18.5591 25.0204C18.483 25.5665 18.2422 26.0763 17.8688 26.4819C17.4953 26.8875 17.0071 27.1696 16.4691 27.2904C16.3938 27.3259 16.3123 27.3462 16.2291 27.3504C16.0841 27.3208 15.9475 27.2593 15.8291 27.1704C15.3931 26.9091 15.0213 26.5534 14.7409 26.1294C14.4606 25.7054 14.2789 25.2239 14.2091 24.7204C14.0987 24.052 14.1466 23.367 14.3491 22.7204C14.5449 22.1908 14.8718 21.7195 15.2991 21.3504L11.8491 17.7704C10.7291 16.5004 9.64914 15.2304 8.56914 14.0004C7.45997 12.7302 6.42812 11.3944 5.47914 10.0004C4.97702 9.30268 4.56697 8.54308 4.25914 7.74044C4.07045 7.26092 4.00846 6.74088 4.07914 6.23044C4.08639 6.06481 4.13276 5.90325 4.21445 5.75899C4.29614 5.61473 4.41083 5.49186 4.54914 5.40044C4.70914 5.29044 4.89914 5.40044 5.09914 5.61044C5.29914 5.82044 5.72914 6.42044 5.81914 6.38044C5.90914 6.34044 5.69914 6.00044 5.58914 5.72044C5.47914 5.44044 5.44914 5.13044 5.66914 5.02044C5.88914 4.91044 6.47914 5.27044 6.66914 5.48044C7.42161 6.26886 8.27184 6.95778 9.19914 7.53044C9.86477 7.9446 10.5762 8.28018 11.3191 8.53044C11.9609 8.76575 12.636 8.8974 13.3191 8.92044C13.5823 8.93506 13.846 8.93506 14.1091 8.92044C17.7302 11.2664 21.1249 13.9447 24.2491 16.9204C25.0291 17.6504 25.7791 18.4104 26.5391 19.1704L27.2791 19.9304C29.2536 22.0025 31.1194 24.1754 32.8691 26.4404C34.6423 28.7478 36.2561 31.1734 37.6991 33.7004H39.4491C39.9941 33.6661 40.5412 33.6963 41.0791 33.7904C41.4918 33.897 41.8731 34.1005 42.1914 34.384C42.5096 34.6675 42.7557 35.0228 42.9091 35.4204C43.0966 35.8898 43.1653 36.3982 43.1091 36.9004C43.0498 37.3506 42.8891 37.7814 42.6391 38.1604C42.474 38.4637 42.2392 38.7233 41.9541 38.918C41.669 39.1128 41.3417 39.237 40.9991 39.2804C40.765 39.2913 40.5305 39.2779 40.2991 39.2404V39.2404ZM29.6591 24.1404C28.7291 23.0604 27.7791 22.0004 26.8191 21.0004C25.8591 20.0004 24.8191 19.0004 23.8191 18.0004C22.8191 17.0004 21.7391 16.0004 20.6691 15.1104C18.4926 13.2597 16.1977 11.5527 13.7991 10.0004C13.5827 10.0154 13.3655 10.0154 13.1491 10.0004C12.5866 9.97346 12.0294 9.87946 11.4891 9.72044C9.55914 9.17044 7.78914 7.36044 6.48914 6.14044C6.20914 5.89044 6.18914 6.19044 6.24914 6.28044C7.87914 8.72044 10.0091 11.9204 11.7591 14.1604C11.8591 14.2804 11.9791 14.3704 11.9291 14.5304C11.8791 14.6904 11.7191 14.4504 11.6491 14.3804L10.9991 13.6004C8.99914 11.3604 7.11914 9.00044 5.27914 6.64044L5.14914 6.46044C5.14914 6.46044 5.06914 6.46044 5.05914 6.57044C5.05109 7.17897 5.2367 7.7743 5.58914 8.27044C5.88656 8.79984 6.22071 9.30775 6.58914 9.79044C7.26914 10.7904 7.99914 11.6704 8.73914 12.5604C10.2291 14.3504 13.3891 17.6904 13.4091 17.7104C13.6011 17.9216 13.8339 18.0916 14.0934 18.2102C14.353 18.3288 14.6339 18.3935 14.9191 18.4004C15.2008 18.395 15.4783 18.3318 15.7346 18.2149C15.9909 18.0979 16.2205 17.9296 16.4091 17.7204C16.7837 17.2903 16.9929 16.7408 16.9991 16.1704C17.0047 15.854 16.9539 15.5391 16.8491 15.2404C16.7691 15.0204 16.6391 14.8204 16.5491 14.6004C16.5491 14.6004 16.5491 14.6004 16.6191 14.6004C16.9747 14.9095 17.2435 15.3058 17.3991 15.7504C17.5945 16.3448 17.5945 16.9861 17.3991 17.5804C17.2419 18.0717 16.9457 18.5069 16.5465 18.8334C16.1472 19.16 15.6618 19.3638 15.1491 19.4204H14.3191C14.3191 19.4904 15.3191 19.7504 15.4091 19.8204C15.9991 20.4604 16.4091 20.9004 17.0091 21.5304C16.5654 21.6773 16.1592 21.9197 15.8191 22.2404C15.4937 22.6185 15.2883 23.0851 15.2291 23.5804C15.141 24.0837 15.202 24.6018 15.4046 25.0708C15.6071 25.5399 15.9424 25.9395 16.3691 26.2204C16.6555 26.0972 16.9104 25.911 17.1148 25.6755C17.3191 25.44 17.4676 25.1614 17.5491 24.8604C17.656 24.4938 17.6833 24.1085 17.6291 23.7304C17.5691 23.3704 17.4491 23.0304 17.3791 22.7304C17.02 23.045 16.777 23.4712 16.6891 23.9404C16.603 24.3531 16.6448 24.7822 16.8091 25.1704C16.8091 25.2604 16.9591 25.4304 16.9391 25.5104C16.9191 25.5904 16.8691 25.5104 16.7991 25.5104C16.6861 25.4309 16.5907 25.3287 16.5191 25.2104C16.2123 24.7003 16.0922 24.0994 16.1791 23.5104C16.2891 22.8062 16.6139 22.1531 17.1091 21.6404C19.8591 24.5104 22.6691 27.3804 25.3991 30.2504C25.0019 30.4443 24.6455 30.7125 24.3491 31.0404C24.0606 31.4308 23.8905 31.896 23.8591 32.3804C23.8064 32.9099 23.9034 33.4435 24.1391 33.9204C24.3179 34.3332 24.6178 34.6819 24.9991 34.9204C25.4635 34.7051 25.841 34.3386 26.0699 33.8808C26.2988 33.423 26.3655 32.9011 26.2591 32.4004L26.1091 31.2504C25.8995 31.3866 25.7193 31.5634 25.5791 31.7704C25.4237 31.991 25.3023 32.2337 25.2191 32.4904C25.0787 32.993 25.1248 33.5293 25.3491 34.0004C25.3491 34.0004 25.4391 34.1404 25.4191 34.1804C25.3991 34.2204 25.3291 34.1804 25.2691 34.1804C25.211 34.1514 25.1624 34.1063 25.1291 34.0504C24.9214 33.7964 24.771 33.5004 24.6882 33.1829C24.6053 32.8653 24.592 32.5336 24.6491 32.2104C24.7506 31.4969 25.1056 30.8437 25.6491 30.3704C26.255 31.104 26.8993 31.8049 27.5791 32.4704C28.9091 33.8404 30.1891 35.1904 31.5791 36.5704C31.8991 36.9004 32.2491 37.2404 32.5791 37.5704C32.9091 37.9004 33.0791 38.0804 33.3191 38.3404C33.3891 38.4304 33.5291 38.5304 33.5591 38.6004C33.5742 38.7267 33.5742 38.8542 33.5591 38.9804V41.4904C33.5289 41.9543 33.5456 42.42 33.6091 42.8804C33.676 43.2222 33.8445 43.5357 34.0925 43.7802C34.3405 44.0246 34.6565 44.1885 34.9991 44.2504C35.3962 44.2856 35.7929 44.1794 36.1191 43.9504C36.4113 43.7596 36.6382 43.4839 36.7691 43.1604C36.8743 42.8586 36.9218 42.5398 36.9091 42.2204C36.9192 42.0973 36.9192 41.9736 36.9091 41.8504C36.8502 41.7518 36.7833 41.6582 36.7091 41.5704L36.1591 40.9204C36.1591 40.9204 36.0791 40.8204 36.0391 40.8304C36.0391 41.2204 35.9691 41.6104 35.9391 42.0404C35.9391 42.2404 35.9391 42.3704 35.9391 42.6504C35.9391 42.7104 35.9391 42.8204 35.9391 42.9504C35.9391 43.0804 35.9391 43.2004 35.8391 43.1804C35.7391 43.1604 35.7791 42.9804 35.7691 42.8604C35.6991 42.0704 35.6491 41.3904 35.5791 40.6204C35.5912 40.4941 35.5912 40.3668 35.5791 40.2404C35.4718 40.1174 35.351 40.0067 35.2191 39.9104C35.2191 39.9104 35.1291 39.8204 35.0991 39.8304C35.0291 40.7404 34.9591 41.7004 34.8891 42.6104C34.8891 42.7004 34.8891 42.9504 34.7991 42.9504C34.7091 42.9504 34.7191 42.6404 34.7091 42.5504C34.6391 41.5504 34.5591 40.5504 34.4891 39.5504C34.4891 39.4904 34.4891 39.3204 34.4291 39.3004L34.1391 39.1004C34.0334 39.0444 33.9386 38.9699 33.8591 38.8804C33.8591 38.8804 33.8591 38.8304 33.9091 38.8804C35.1924 39.2477 36.3709 39.9124 37.3491 40.8204C37.5991 41.0304 37.8191 41.2804 38.0491 41.5004C38.6407 42.0569 39.1952 42.6515 39.7091 43.2804C39.8278 43.4012 39.9318 43.5354 40.0191 43.6804C40.021 43.7875 40.0144 43.8945 39.9991 44.0004V49.3304C40.5852 49.226 41.1295 48.9572 41.5685 48.5553C42.0076 48.1534 42.3234 47.635 42.4791 47.0604C42.5995 46.5937 42.6534 46.1123 42.6391 45.6304C43.4735 45.7218 44.3106 45.4848 44.9733 44.9696C45.6359 44.4545 46.072 43.7016 46.1891 42.8704H40.9991C40.3513 41.865 39.8148 40.792 39.3991 39.6704C38.9691 38.5904 38.5391 37.5004 38.0591 36.4904L37.7891 36.0004C37.6691 35.7504 37.5491 35.5104 37.4391 35.2704C37.4391 35.2704 37.3591 35.1804 37.3791 35.1304C37.5754 35.2309 37.7463 35.3745 37.8791 35.5504C37.8791 35.6004 37.9791 35.6804 38.0291 35.7004C38.0791 35.7204 38.3091 35.7004 38.4491 35.7004L40.9691 35.9004C41.0591 35.9004 41.3291 35.9004 41.3291 35.9904C41.3291 36.0804 41.2691 36.0604 41.2091 36.0604C40.9891 36.0604 40.7691 36.0604 40.5391 36.1104L38.5391 36.2704C38.5991 36.3604 38.6691 36.4304 38.7291 36.5204C38.7891 36.6104 38.8591 36.7404 38.9491 36.7804C39.049 36.7879 39.1493 36.7879 39.2491 36.7804L41.1391 36.9504C41.2591 36.9504 41.4191 36.9504 41.3991 37.0604C41.3791 37.1704 41.0091 37.1404 40.9091 37.1504L39.3291 37.2904C39.5284 37.6648 39.7522 38.0256 39.9991 38.3704C40.2706 38.4157 40.5488 38.3994 40.8132 38.3229C41.0776 38.2464 41.3215 38.1115 41.5268 37.9282C41.7322 37.7449 41.8938 37.5179 41.9997 37.2639C42.1057 37.0099 42.1534 36.7353 42.1391 36.4604C42.1221 36.1126 42.0056 35.777 41.8036 35.4934C41.6015 35.2098 41.3223 34.9901 40.9991 34.8604C40.6041 34.7417 40.1903 34.6976 39.7791 34.7304H37.0791C34.9563 30.9674 32.4712 27.4206 29.6591 24.1404V24.1404Z" fill="#1D1D1B"/>
<path fill-rule="evenodd" clip-rule="evenodd" d="M14.2802 12.6225C14.2802 12.7047 14.2475 12.7836 14.1894 12.8417C14.1312 12.8998 14.0524 12.9325 13.9702 12.9325C13.8879 12.9325 13.8091 12.8998 13.751 12.8417C13.6928 12.7836 13.6602 12.7047 13.6602 12.6225C13.6602 12.5403 13.6928 12.4614 13.751 12.4033C13.8091 12.3452 13.8879 12.3125 13.9702 12.3125C14.0524 12.3125 14.1312 12.3452 14.1894 12.4033C14.2475 12.4614 14.2802 12.5403 14.2802 12.6225V12.6225Z" fill="#1D1D1B"/>
<path d="M14.1801 11.2669L11.9301 10.7969C11.7301 10.7969 11.9901 11.0469 12.0401 11.0969C12.3344 11.3124 12.615 11.5462 12.8801 11.7969C12.6964 12.0305 12.5977 12.3197 12.6001 12.6169C12.5993 12.879 12.6738 13.1359 12.8147 13.357C12.9556 13.578 13.157 13.754 13.3949 13.8641C13.6328 13.9742 13.8973 14.0136 14.157 13.9779C14.4167 13.9421 14.6607 13.8326 14.86 13.6623C15.0593 13.492 15.2056 13.2681 15.2814 13.0171C15.3573 12.7662 15.3596 12.4988 15.288 12.2466C15.2164 11.9944 15.074 11.768 14.8776 11.5944C14.6812 11.4207 14.4391 11.3071 14.1801 11.2669V11.2669ZM14.0001 13.3769C13.8473 13.3769 13.6981 13.3314 13.5712 13.2464C13.4444 13.1613 13.3457 13.0405 13.2878 12.8992C13.2298 12.7579 13.2151 12.6026 13.2457 12.4529C13.2762 12.3033 13.3505 12.1661 13.4592 12.0589C13.5679 11.9516 13.706 11.879 13.8561 11.8505C14.0061 11.8219 14.1612 11.8386 14.3017 11.8984C14.4422 11.9582 14.5618 12.0585 14.6452 12.1864C14.7286 12.3143 14.772 12.4642 14.7701 12.6169C14.7674 12.8194 14.6851 13.0126 14.541 13.1549C14.3969 13.2971 14.2026 13.3769 14.0001 13.3769V13.3769Z" fill="#1D1D1B"/>
<path fill-rule="evenodd" clip-rule="evenodd" d="M37.7707 16.1421C37.899 16.1339 38.0271 16.1601 38.1417 16.2181C38.2564 16.2761 38.3535 16.3637 38.4229 16.4719C38.4923 16.58 38.5314 16.7048 38.5363 16.8332C38.5412 16.9616 38.5117 17.089 38.4507 17.2021C38.4087 17.2911 38.3486 17.3704 38.2743 17.435C38.1999 17.4996 38.113 17.548 38.0189 17.5771C37.9249 17.6063 37.8258 17.6155 37.728 17.6044C37.6302 17.5932 37.5358 17.5617 37.4507 17.5121C37.3133 17.4346 37.2042 17.3151 37.1394 17.1712C37.0746 17.0273 37.0576 16.8664 37.0907 16.7121C37.1171 16.5514 37.2002 16.4055 37.3249 16.3009C37.4497 16.1963 37.6079 16.14 37.7707 16.1421V16.1421Z" fill="#1D1D1B"/>
<path fill-rule="evenodd" clip-rule="evenodd" d="M21.3502 19C21.3502 19.87 21.3502 20.74 21.4402 21.59C22.2902 21.59 23.2302 21.59 24.1202 21.54C24.1202 22.42 24.1202 23.31 24.1202 24.18H26.7502C26.7502 25.06 26.7502 25.97 26.7502 26.87H29.3502C29.3502 27.77 29.3502 28.7 29.3502 29.59C30.1802 29.59 31.0602 29.59 31.9102 29.64C31.9102 30.56 31.9102 31.5 31.8502 32.39C32.6502 32.46 33.5202 32.46 34.3602 32.5C34.3602 33.27 34.2902 34.07 34.2202 34.81C34.2076 35.0391 34.1604 35.265 34.0802 35.48C34.0002 35.48 33.9902 35.33 33.9702 35.25C33.8502 34.59 33.8602 33.77 33.7802 33.08C32.9402 33.14 31.9802 33.15 31.0702 33.17C31.0702 32.29 31.0702 31.4 31.0102 30.54H28.3602C28.3602 29.64 28.3602 28.77 28.3602 27.86H25.7502C25.7502 26.98 25.7502 26.06 25.7502 25.16C24.9102 25.16 24.0402 25.16 23.1802 25.16C23.1802 24.25 23.1802 23.3 23.1802 22.41C22.3502 22.41 21.4902 22.41 20.6402 22.35C20.6402 21.4 20.6402 20.44 20.7402 19.55C20.1702 19.49 19.5102 19.46 18.9302 19.39C18.7482 19.3948 18.5684 19.3498 18.4102 19.26C18.598 19.1715 18.8025 19.1238 19.0102 19.12C19.7702 19 20.5702 19 21.3502 19Z" fill="#1D1D1B"/>
<path fill-rule="evenodd" clip-rule="evenodd" d="M11.8209 29.0019C12.0205 29.5692 12.0822 30.1759 12.0009 30.7719C12.4691 31.1565 12.8537 31.633 13.1309 32.1719C12.8587 32.7083 12.4731 33.1792 12.0009 33.5519C12.0485 34.1401 11.9771 34.7319 11.7909 35.2919C11.2774 35.4378 10.7442 35.5019 10.2109 35.4819C8.65086 35.3619 7.74086 34.1719 8.21086 32.3719C7.83626 32.4904 7.49284 32.6911 7.20566 32.9592C6.91848 33.2274 6.69477 33.5563 6.55086 33.9219C6.4281 34.3088 6.4022 34.7199 6.47543 35.1192C6.54866 35.5185 6.71878 35.8937 6.97086 36.2119C7.19424 36.4949 7.48706 36.7154 7.82086 36.8519C8.65542 37.0764 9.53893 37.038 10.3509 36.7419C10.6762 36.6517 10.9913 36.5276 11.2909 36.3719C11.3409 36.3364 11.3945 36.3062 11.4509 36.2819C12.4707 35.5304 13.7149 35.1462 14.9809 35.1919C16.1487 35.2198 17.2813 35.598 18.2317 36.2773C19.1821 36.9567 19.9064 37.9059 20.3109 39.0019C20.5425 39.6429 20.6576 40.3203 20.6509 41.0019C20.6355 41.6645 20.5105 42.3201 20.2809 42.9419C20.6488 42.8505 21.0323 42.8417 21.404 42.9161C21.7757 42.9904 22.1264 43.1461 22.4309 43.3719C22.5245 43.4281 22.6039 43.5052 22.6628 43.5971C22.7218 43.689 22.7588 43.7933 22.7709 43.9019C22.623 43.9141 22.4745 43.8865 22.3409 43.8219C21.9159 43.6504 21.4583 43.5753 21.0009 43.6019C20.7247 43.6119 20.454 43.6814 20.2072 43.8057C19.9604 43.93 19.7434 44.106 19.5709 44.3219C19.0043 45.1387 18.5784 46.0445 18.3109 47.0019C18.1641 47.583 18.1167 48.1849 18.1709 48.7819C18.1874 49.5546 18.4831 50.2953 19.0033 50.8669C19.5236 51.4386 20.2331 51.8027 21.0009 51.8919C21.5626 51.9792 22.1374 51.9139 22.6652 51.7028C23.193 51.4917 23.6543 51.1425 24.0009 50.6919C23.383 50.8664 22.7263 50.8454 22.1209 50.6319C21.9419 50.1517 21.8471 49.6443 21.8409 49.1319C21.8267 48.6461 21.9784 48.17 22.2709 47.7819C21.9762 47.3949 21.8243 46.918 21.8409 46.4319C21.849 45.9238 21.9402 45.4205 22.1109 44.9419C22.5761 44.7566 23.0703 44.6551 23.5709 44.6419C24.0477 44.6366 24.5125 44.7916 24.8909 45.0819C25.2654 44.7855 25.7336 44.633 26.2109 44.6519C26.711 44.66 27.2056 44.7582 27.6709 44.9419C27.8397 45.4244 27.9308 45.9307 27.9409 46.4419C27.9528 46.9212 27.8011 47.3903 27.5109 47.7719C27.8207 48.1582 27.9931 48.6367 28.0009 49.1319C27.9954 49.6443 27.9006 50.1519 27.7209 50.6319C27.0909 50.9119 25.8209 51.0419 25.3109 50.4719C25.0012 51.3325 24.3804 52.046 23.5709 52.4719C22.6634 52.909 21.6373 53.0355 20.6509 52.8319C19.7848 52.6738 18.9906 52.2469 18.3809 51.6119C17.7754 50.9607 17.3814 50.1414 17.2509 49.2619C17.098 48.2355 17.187 47.1877 17.5109 46.2019C17.7933 45.3748 18.1761 44.5856 18.6509 43.8519C19.1818 43.1156 19.525 42.2608 19.6509 41.3619C19.7346 40.4573 19.5555 39.5478 19.1351 38.7425C18.7148 37.9372 18.0709 37.2703 17.2809 36.8219C16.4258 36.3331 15.442 36.1168 14.4609 36.2019C13.538 36.2482 12.6515 36.5763 11.9209 37.1419C11.2553 37.6531 10.7291 38.3238 10.3909 39.0919C10.1899 39.5323 10.0583 40.0012 10.0009 40.4819C9.90519 41.0075 9.90519 41.5462 10.0009 42.0719C10.1957 42.923 10.6253 43.7025 11.2409 44.3219C11.8303 44.9887 12.6464 45.4128 13.5309 45.5119C14.0138 45.5514 14.4961 45.4282 14.9009 45.1619C15.257 44.9381 15.5307 44.6047 15.6809 44.2119C15.352 44.141 15.0418 44.0013 14.7709 43.8019C14.3909 44.0806 13.9321 44.2312 13.4609 44.2319C12.9608 44.2227 12.4664 44.1245 12.0009 43.9419C11.8219 43.4617 11.7271 42.9543 11.7209 42.4419C11.7114 41.9537 11.8625 41.4759 12.1509 41.0819C11.863 40.6908 11.7087 40.2174 11.7109 39.7319C11.7321 39.2234 11.8298 38.7211 12.0009 38.2419C12.4822 38.0718 12.9905 37.9905 13.5009 38.0019C13.9738 37.9913 14.4362 38.143 14.8109 38.4319C15.1894 38.143 15.6548 37.9914 16.1309 38.0019C16.6275 38.012 17.1185 38.1102 17.5809 38.2919C17.7589 38.7688 17.8536 39.2728 17.8609 39.7819C17.875 40.2676 17.7233 40.7437 17.4309 41.1319C17.7206 41.5252 17.8718 42.0035 17.8609 42.4919C17.8546 43.0043 17.7599 43.5117 17.5809 43.9919C17.3209 44.0719 17.0809 44.1619 16.8009 44.2219C16.6369 44.9362 16.2172 45.5658 15.6209 45.9919C14.9537 46.4655 14.132 46.6691 13.3209 46.5619C13.4821 47.0864 13.4821 47.6473 13.3209 48.1719C13.2307 48.5116 13.0429 48.8176 12.7809 49.0519C12.6909 49.1219 12.5809 49.2119 12.4609 49.1819C12.3409 49.1519 12.4609 48.9219 12.5109 48.8019C12.6828 48.4162 12.7418 47.9897 12.6809 47.5719C12.6563 47.2621 12.565 46.9614 12.413 46.6903C12.2611 46.4193 12.0523 46.1844 11.8009 46.0019C10.5841 45.312 9.65997 44.203 9.20086 42.8819C8.91952 41.997 8.85099 41.0582 9.00086 40.1419C9.12569 39.3474 9.41522 38.5878 9.85086 37.9119C9.12291 38.0721 8.36881 38.0721 7.64086 37.9119C7.05905 37.7331 6.54376 37.385 6.16086 36.9119C5.76393 36.4356 5.50024 35.8627 5.39661 35.2514C5.29297 34.6402 5.3531 34.0123 5.57086 33.4319C5.6261 33.2945 5.65983 33.1495 5.67086 33.0019C5.60655 32.5715 5.43687 32.1637 5.17692 31.8148C4.91697 31.4659 4.5748 31.1866 4.18086 31.0019C4.09086 30.9519 3.88086 30.8919 3.88086 30.7919C3.88086 30.6919 4.11086 30.6519 4.26086 30.6519C4.68223 30.6336 5.0976 30.7568 5.44086 31.0019C5.86467 31.2855 6.18422 31.6999 6.35086 32.1819C6.8253 31.7873 7.39369 31.522 8.00086 31.4119C7.99106 31.0145 8.03478 30.6176 8.13086 30.2319C8.28383 29.7927 8.57509 29.4149 8.96093 29.1553C9.34677 28.8957 9.8064 28.7681 10.2709 28.7919C10.7956 28.7755 11.3194 28.8465 11.8209 29.0019V29.0019ZM9.59086 30.0019C9.37942 30.1087 9.20772 30.2804 9.10086 30.4919C8.90005 31.0304 8.90005 31.6233 9.10086 32.1619C8.96355 32.4551 8.90516 32.7791 8.93147 33.1018C8.95778 33.4245 9.06787 33.7347 9.25086 34.0019C9.46625 34.2082 9.73185 34.3545 10.0213 34.4265C10.3107 34.4984 10.614 34.4933 10.9009 34.4119C10.9923 33.9424 10.9472 33.4565 10.7709 33.0119C11.227 32.8432 11.6234 32.5441 11.9109 32.1519C11.7746 31.952 11.6095 31.7734 11.4209 31.6219C11.2309 31.4719 11.0009 31.3819 10.8109 31.2319C11.0081 30.8004 11.0742 30.3205 11.0009 29.8519C10.5273 29.7433 10.031 29.7961 9.59086 30.0019ZM14.2309 39.2319C14.0347 39.0919 13.8072 39.0022 13.5683 38.9709C13.3294 38.9395 13.0865 38.9673 12.8609 39.0519C12.7683 39.3037 12.7427 39.5752 12.7865 39.8399C12.8303 40.1045 12.9421 40.3533 13.1109 40.5619C13.1809 40.6319 13.2709 40.6519 13.3409 40.7419C13.4109 40.8319 13.3409 41.1819 13.3909 41.4019C13.3017 41.4741 13.2082 41.5409 13.1109 41.6019C12.9384 41.8125 12.8252 42.0653 12.783 42.3342C12.7408 42.6032 12.7711 42.8785 12.8709 43.1319C13.0995 43.2187 13.3467 43.2449 13.5884 43.2081C13.8302 43.1713 14.0584 43.0727 14.2509 42.9219C14.3207 42.8073 14.3975 42.6971 14.4809 42.5919H15.1609C15.2812 42.8407 15.4923 43.034 15.7509 43.1319C16.0781 43.2216 16.4236 43.2216 16.7509 43.1319C16.847 42.8831 16.8782 42.6139 16.8414 42.3497C16.8047 42.0855 16.7013 41.835 16.5409 41.6219C16.4279 41.5543 16.3209 41.4773 16.2209 41.3919C16.2209 41.1719 16.2709 40.9519 16.2909 40.7319C16.3109 40.5119 16.4509 40.6219 16.5309 40.5519C16.6912 40.3408 16.7962 40.093 16.8364 39.8311C16.8765 39.5691 16.8506 39.3012 16.7609 39.0519C16.5411 38.9687 16.3045 38.9399 16.0713 38.9677C15.838 38.9956 15.6149 39.0793 15.4209 39.2119C15.3711 39.2633 15.3274 39.3203 15.2909 39.3819C15.2909 39.4419 15.1909 39.5419 15.1509 39.5519C15.0712 39.5626 14.9905 39.5626 14.9109 39.5519H14.4709C14.3709 39.4619 14.3309 39.3319 14.2309 39.2319V39.2319ZM24.2309 45.8819C24.0465 45.7753 23.8421 45.7078 23.6304 45.6837C23.4188 45.6596 23.2045 45.6794 23.0009 45.7419C22.913 45.9882 22.8853 46.2519 22.9201 46.5111C22.9549 46.7703 23.0511 47.0174 23.2009 47.2319C23.2989 47.2954 23.3924 47.3655 23.4809 47.4419C23.4809 47.6619 23.4809 47.8819 23.4809 48.1019L23.1409 48.3519C23.0018 48.5698 22.9167 48.8176 22.8923 49.075C22.868 49.3323 22.9052 49.5917 23.0009 49.8319C23.2234 49.9147 23.4629 49.9416 23.6983 49.9102C23.9337 49.8788 24.1578 49.7901 24.3509 49.6519C24.4609 49.5319 24.4909 49.4019 24.6109 49.2919H25.2809C25.3709 49.3919 25.4109 49.4919 25.4909 49.5919C25.685 49.7472 25.9167 49.8484 26.1626 49.8853C26.4085 49.9222 26.6597 49.8934 26.8909 49.8019C26.982 49.5521 27.0078 49.2832 26.9658 49.0207C26.9238 48.7581 26.8154 48.5107 26.6509 48.3019C26.5509 48.2019 26.4409 48.1719 26.3509 48.0719C26.2609 47.9719 26.4009 47.6319 26.4209 47.4119C26.4409 47.1919 26.6009 47.2919 26.6809 47.2119C26.8322 46.9983 26.9303 46.7516 26.9668 46.4924C27.0034 46.2331 26.9773 45.969 26.8909 45.7219C26.661 45.6322 26.4117 45.6044 26.1678 45.6413C25.9239 45.6781 25.6939 45.7783 25.5009 45.9319C25.4409 46.0019 25.3609 46.2119 25.2809 46.2319C25.2016 46.2468 25.1202 46.2468 25.0409 46.2319H24.6009C24.5008 46.1062 24.3904 45.9891 24.2709 45.8819H24.2309Z" fill="#1D1D1B"/>
<path fill-rule="evenodd" clip-rule="evenodd" d="M14.6397 40.463C14.7484 40.4445 14.86 40.452 14.9653 40.4849C15.0706 40.5177 15.1667 40.575 15.2456 40.652C15.3246 40.729 15.3842 40.8236 15.4197 40.928C15.4552 41.0325 15.4654 41.1438 15.4497 41.253C15.4404 41.4387 15.3578 41.613 15.2199 41.7377C15.0821 41.8624 14.9004 41.9273 14.7147 41.918C14.5291 41.9087 14.3547 41.8261 14.23 41.6882C14.1053 41.5504 14.0404 41.3687 14.0497 41.183C14.0525 41.047 14.0867 40.9135 14.1497 40.793C14.2007 40.7042 14.2714 40.6283 14.3564 40.5711C14.4413 40.5139 14.5382 40.4769 14.6397 40.463V40.463Z" fill="#1D1D1B"/>
<path fill-rule="evenodd" clip-rule="evenodd" d="M41.5306 44.5619C41.4106 45.5619 41.2906 46.5619 41.1706 47.5619C41.1706 47.6619 41.1706 47.9219 41.0706 47.9319C40.9706 47.9419 40.9806 47.5819 40.9806 47.4819C40.9806 46.3119 40.9806 45.0819 40.8906 43.9219C41.5406 43.9219 42.1006 43.9219 42.7306 43.9219C43.3606 43.9219 44.0106 43.9219 44.6106 43.9219C44.6806 43.9219 44.8706 43.9219 44.8806 43.9219C44.8906 43.9219 44.8206 43.9919 44.7106 44.0119L41.5306 44.5619Z" fill="#1D1D1B"/>
<path fill-rule="evenodd" clip-rule="evenodd" d="M24.8105 47.1492C25.0053 47.1402 25.1958 47.2085 25.3405 47.3392C25.4326 47.4381 25.4962 47.5599 25.5248 47.6919C25.5533 47.8239 25.5456 47.9612 25.5026 48.0892C25.4596 48.2173 25.3828 48.3313 25.2804 48.4193C25.1779 48.5073 25.0536 48.566 24.9205 48.5892C24.8236 48.6013 24.7252 48.5924 24.632 48.5631C24.5388 48.5338 24.453 48.4847 24.3805 48.4192C24.2985 48.352 24.2338 48.2661 24.192 48.1686C24.1503 48.0711 24.1326 47.965 24.1405 47.8592C24.1351 47.7679 24.1483 47.6765 24.1796 47.5905C24.2108 47.5046 24.2593 47.4259 24.322 47.3594C24.3848 47.2929 24.4605 47.2399 24.5445 47.2038C24.6285 47.1676 24.7191 47.1491 24.8105 47.1492Z" fill="#1D1D1B"/>
</g>
<defs>
<clipPath id="clip0_421_3772">
<rect width="222.42" height="59.96" fill="white"/>
</clipPath>
</defs>
</svg>
