<svg width="183" height="37" viewBox="0 0 183 37" fill="none" xmlns="http://www.w3.org/2000/svg">
<g clip-path="url(#clip0_341_4062)">
<path d="M13.3649 27.2093C13.7087 27.1244 14.0721 27.1767 14.3781 27.3554C14.6841 27.534 14.9087 27.8249 15.0044 28.1665C15.0444 28.3359 15.05 28.5116 15.0207 28.6832C14.9915 28.8547 14.928 29.0186 14.8341 29.165C14.7402 29.3115 14.6179 29.4375 14.4743 29.5355C14.3307 29.6335 14.1689 29.7015 13.9986 29.7355L6.67027 31.4355C6.32638 31.5208 5.96283 31.4686 5.65674 31.2899C5.35065 31.1112 5.12611 30.8201 5.03075 30.4783C4.99072 30.3089 4.98517 30.1332 5.01443 29.9617C5.04369 29.7901 5.10715 29.6262 5.20103 29.4798C5.29491 29.3333 5.41728 29.2074 5.56084 29.1093C5.7044 29.0113 5.8662 28.9433 6.03659 28.9093L13.3649 27.2093ZM27.5013 34.2366L22.3039 35.4429C21.9601 35.5278 21.5967 35.4755 21.2907 35.2968C20.9847 35.1182 20.7601 34.8272 20.6644 34.4856C20.6244 34.3163 20.6188 34.1406 20.6481 33.969C20.6774 33.7975 20.7408 33.6336 20.8347 33.4872C20.9286 33.3407 21.051 33.2147 21.1945 33.1167C21.3381 33.0187 21.4999 32.9507 21.6703 32.9167L26.8676 31.7104L26.961 31.6888C27.3052 31.6054 27.6683 31.6594 27.9735 31.8394C28.2787 32.0194 28.502 32.3113 28.5962 32.6533C28.6364 32.8227 28.6422 32.9986 28.613 33.1703C28.5839 33.342 28.5204 33.5061 28.4265 33.6527C28.3326 33.7993 28.2102 33.9254 28.0665 34.0235C27.9228 34.1216 27.7609 34.1897 27.5904 34.2237L27.5013 34.2366ZM17.8639 2.64976C17.8225 2.61601 17.7788 2.58522 17.7331 2.55764L17.7058 2.54037L17.6785 2.52453L17.6498 2.5087L17.621 2.4943L17.5908 2.47991L17.5621 2.4684L17.5319 2.45544L17.5018 2.44249L17.4716 2.43097L17.4414 2.42089L17.4098 2.41082L17.3782 2.40218L17.348 2.39354H17.315L17.2833 2.38635H17.2503H17.2187H17.1856H17.1526H17.1195H17.0865H16.9184H16.8839H16.8494H16.8149H16.7819H16.7474H16.7129L16.6798 2.39354L11.4811 3.59259C11.3108 3.6266 11.1492 3.69459 11.0057 3.79252C10.8623 3.89044 10.74 4.01629 10.6461 4.16257C10.5523 4.30884 10.4888 4.47255 10.4594 4.64394C10.43 4.81532 10.4354 4.99087 10.4752 5.16013C10.5709 5.50167 10.7956 5.79246 11.1016 5.97088C11.4077 6.1493 11.7711 6.20132 12.1148 6.11591L17.3135 4.90967C17.5068 4.87393 17.6893 4.79379 17.8464 4.67552C18.0036 4.55726 18.1313 4.4041 18.2194 4.22807C18.3076 4.05204 18.3538 3.85795 18.3544 3.66102C18.3551 3.46409 18.3101 3.2697 18.2231 3.09311L18.2087 3.06288L18.1785 3.00818L18.1613 2.98083L18.1441 2.95348L18.1268 2.92757L18.1081 2.90166L18.088 2.87575L18.0679 2.84984L18.0478 2.82537L18.0262 2.80234L18.0047 2.77787L17.9817 2.75484L17.9587 2.73325L17.9357 2.71022L17.9113 2.68863L17.8869 2.66848L17.8639 2.64976ZM11.5026 10.224C11.1589 10.3094 10.7956 10.2571 10.4897 10.0784C10.1839 9.89964 9.95959 9.60852 9.86454 9.26682C9.82451 9.09747 9.81897 8.92177 9.84822 8.75022C9.87748 8.57867 9.94094 8.41478 10.0348 8.26834C10.1287 8.1219 10.2511 7.99591 10.3946 7.89789C10.5382 7.79988 10.7 7.73184 10.8704 7.69785L26.5888 4.04745C26.9327 3.9621 27.2963 4.01432 27.6024 4.19302C27.9084 4.37173 28.133 4.66287 28.2284 5.00467C28.2684 5.17403 28.2739 5.34973 28.2447 5.52128C28.2154 5.69283 28.152 5.85672 28.0581 6.00316C27.9642 6.1496 27.8418 6.27558 27.6983 6.3736C27.5547 6.47162 27.3929 6.53966 27.2225 6.57365L11.5026 10.224ZM33.0205 10.4774C33.3643 10.3924 33.7277 10.4448 34.0337 10.6234C34.3397 10.8021 34.5643 11.093 34.66 11.4346C34.7 11.604 34.7056 11.7797 34.6763 11.9512C34.6471 12.1228 34.5836 12.2867 34.4897 12.4331C34.3958 12.5795 34.2735 12.7055 34.1299 12.8035C33.9863 12.9016 33.8245 12.9696 33.6542 13.0036L33.5608 13.0252C33.2181 13.1092 32.8561 13.0565 32.5515 12.8782C32.2469 12.6998 32.0235 12.4098 31.9284 12.0694C31.8884 11.9 31.8828 11.7243 31.9121 11.5528C31.9414 11.3812 32.0048 11.2174 32.0987 11.0709C32.1926 10.9245 32.315 10.7985 32.4585 10.7005C32.6021 10.6024 32.7639 10.5344 32.9343 10.5004L33.0205 10.4774ZM20.4388 16.0725C20.0951 16.1579 19.7317 16.1058 19.4257 15.9274C19.1196 15.749 18.895 15.4582 18.7993 15.1167C18.7591 14.9472 18.7533 14.7714 18.7825 14.5997C18.8116 14.4279 18.8751 14.2639 18.969 14.1173C19.0629 13.9707 19.1853 13.8445 19.329 13.7464C19.4727 13.6483 19.6346 13.5802 19.8051 13.5463L29.1164 11.3871C29.4592 11.3034 29.8212 11.3562 30.1259 11.5345C30.4307 11.7128 30.6545 12.0026 30.7501 12.3429C30.7902 12.5122 30.7957 12.6879 30.7665 12.8595C30.7372 13.031 30.6737 13.1949 30.5799 13.3414C30.486 13.4878 30.3636 13.6138 30.2201 13.7118C30.0765 13.8098 29.9147 13.8779 29.7443 13.9119L20.4388 16.0725ZM3.92288 15.9458C3.5792 16.0307 3.21601 15.9783 2.91025 15.7996C2.60449 15.6209 2.38016 15.3301 2.28479 14.9886C2.24477 14.8192 2.23922 14.6435 2.26848 14.472C2.29774 14.3004 2.3612 14.1365 2.45508 13.9901C2.54896 13.8436 2.67133 13.7176 2.81489 13.6196C2.95845 13.5216 3.12025 13.4536 3.29064 13.4196L12.6019 11.2604C12.9442 11.1766 13.3056 11.2291 13.61 11.4069C13.9145 11.5846 14.1382 11.8737 14.2342 12.2133C14.2744 12.3828 14.2802 12.5586 14.251 12.7304C14.2219 12.9021 14.1584 13.0661 14.0645 13.2127C13.9706 13.3593 13.8482 13.4855 13.7045 13.5836C13.5609 13.6817 13.3989 13.7498 13.2284 13.7838L3.92288 15.9458ZM14.398 18.7627C14.7419 18.6778 15.1053 18.7302 15.4113 18.9088C15.7173 19.0875 15.9419 19.3784 16.0375 19.72C16.0776 19.8893 16.0831 20.065 16.0539 20.2366C16.0246 20.4081 15.9611 20.572 15.8673 20.7185C15.7734 20.8649 15.651 20.9909 15.5074 21.0889C15.3639 21.1869 15.2021 21.255 15.0317 21.2889L3.47456 23.9735C3.1307 24.0585 2.76732 24.0061 2.46132 23.8274C2.15533 23.6488 1.93072 23.3579 1.83504 23.0163C1.79502 22.8469 1.78947 22.6712 1.81872 22.4997C1.84798 22.3281 1.91144 22.1642 2.00532 22.0178C2.0992 21.8713 2.22157 21.7454 2.36513 21.6473C2.50869 21.5493 2.67049 21.4813 2.84088 21.4473L14.398 18.7627ZM18.5435 21.7625L18.6355 21.7409C18.9794 21.6556 19.3429 21.7078 19.649 21.8865C19.9551 22.0652 20.1796 22.3563 20.275 22.6982C20.315 22.8675 20.3206 23.0432 20.2913 23.2148C20.2621 23.3863 20.1986 23.5502 20.1047 23.6966C20.0108 23.8431 19.8885 23.9691 19.7449 24.0671C19.6014 24.1651 19.4396 24.2331 19.2692 24.2671L19.1758 24.2887L9.86597 26.4479C9.52228 26.5333 9.1589 26.4813 8.85284 26.3028C8.54679 26.1244 8.32212 25.8336 8.22645 25.4921C8.18621 25.3226 8.18049 25.1468 8.20965 24.9751C8.2388 24.8034 8.30222 24.6393 8.39612 24.4927C8.49002 24.3461 8.61246 24.22 8.75613 24.1218C8.89981 24.0237 9.06175 23.9556 9.23229 23.9217L18.5435 21.7625ZM35.6428 24.4269L26.3848 26.5774C26.0409 26.6631 25.6772 26.6111 25.371 26.4323C25.0648 26.2536 24.8403 25.9622 24.7453 25.6202C24.7052 25.4508 24.6997 25.2751 24.7289 25.1036C24.7582 24.932 24.8217 24.7682 24.9155 24.6217C25.0094 24.4753 25.1318 24.3493 25.2754 24.2513C25.4189 24.1532 25.5807 24.0852 25.7511 24.0512L35.0623 21.8921L35.1054 21.882C35.4493 21.797 35.8127 21.8494 36.1187 22.0281C36.4247 22.2067 36.6493 22.4976 36.745 22.8392C36.785 23.0086 36.7905 23.1843 36.7613 23.3558C36.732 23.5274 36.6686 23.6913 36.5747 23.8377C36.4808 23.9841 36.3584 24.1101 36.2149 24.2081C36.0713 24.3062 35.9095 24.3742 35.7391 24.4082L35.6428 24.4269ZM27.4797 27.6152C27.8234 27.5303 28.1866 27.5827 28.4923 27.7614C28.7981 27.9401 29.0224 28.231 29.1178 28.5725C29.1578 28.7418 29.1634 28.9175 29.1341 29.0891C29.1049 29.2606 29.0414 29.4245 28.9475 29.5709C28.8536 29.7174 28.7313 29.8434 28.5877 29.9414C28.4442 30.0394 28.2824 30.1075 28.112 30.1414L12.3935 33.7875C12.0496 33.8733 11.6859 33.8212 11.3797 33.6424C11.0735 33.4637 10.849 33.1723 10.754 32.8303C10.714 32.6609 10.7084 32.4852 10.7377 32.3137C10.7669 32.1421 10.8304 31.9783 10.9243 31.8318C11.0182 31.6854 11.1405 31.5594 11.2841 31.4614C11.4276 31.3634 11.5894 31.2953 11.7598 31.2613L27.4797 27.6152ZM32.029 29.2288C31.6851 29.3146 31.3214 29.2625 31.0152 29.0838C30.709 28.905 30.4845 28.6136 30.3895 28.2716C30.3495 28.1023 30.3439 27.9266 30.3732 27.755C30.4024 27.5835 30.4659 27.4196 30.5598 27.2731C30.6536 27.1267 30.776 27.0007 30.9196 26.9027C31.0631 26.8047 31.2249 26.7366 31.3953 26.7026L31.4873 26.6811C31.8313 26.5961 32.1949 26.6487 32.5009 26.8277C32.8069 27.0066 33.0314 27.2978 33.1268 27.6397C33.1666 27.809 33.172 27.9845 33.1426 28.1559C33.1133 28.3273 33.0498 28.491 32.9559 28.6373C32.862 28.7836 32.7397 28.9094 32.5963 29.0073C32.4529 29.1053 32.2912 29.1732 32.121 29.2073L32.029 29.2288ZM18.3955 36.3555C18.0518 36.4409 17.6884 36.3889 17.3824 36.2104C17.0763 36.032 16.8517 35.7412 16.756 35.3997C16.7158 35.2302 16.71 35.0544 16.7392 34.8827C16.7683 34.711 16.8318 34.5469 16.9257 34.4003C17.0196 34.2537 17.142 34.1275 17.2857 34.0294C17.4294 33.9313 17.5913 33.8632 17.7618 33.8293L17.8538 33.8077C18.1979 33.7228 18.5614 33.7753 18.8674 33.9543C19.1735 34.1332 19.3979 34.4245 19.4933 34.7663C19.5331 34.9356 19.5385 35.1111 19.5092 35.2825C19.4798 35.4539 19.4163 35.6176 19.3224 35.7639C19.2286 35.9102 19.1063 36.036 18.9628 36.134C18.8194 36.2319 18.6577 36.2999 18.4875 36.3339L18.3955 36.3555ZM5.96187 27.3576C5.61796 27.4433 5.25424 27.3913 4.94806 27.2125C4.64187 27.0337 4.41739 26.7424 4.32234 26.4004C4.28232 26.231 4.27677 26.0553 4.30603 25.8838C4.33529 25.7122 4.39875 25.5483 4.49263 25.4019C4.58651 25.2554 4.70888 25.1295 4.85244 25.0314C4.996 24.9334 5.1578 24.8654 5.32819 24.8314L5.42015 24.8098C5.76402 24.7248 6.12739 24.7772 6.43339 24.9559C6.73939 25.1345 6.96399 25.4254 7.05967 25.767C7.0997 25.9364 7.10525 26.1121 7.07599 26.2836C7.04673 26.4552 6.98327 26.6191 6.88939 26.7655C6.79551 26.9119 6.67314 27.0379 6.52958 27.1359C6.38602 27.234 6.22422 27.302 6.05383 27.336L5.96187 27.3576ZM36.4561 17.604C36.8 17.5187 37.1636 17.5709 37.4697 17.7496C37.7758 17.9283 38.0003 18.2194 38.0957 18.5612C38.1357 18.7306 38.1412 18.9063 38.112 19.0778C38.0827 19.2494 38.0193 19.4133 37.9254 19.5597C37.8315 19.7062 37.7091 19.8321 37.5656 19.9302C37.422 20.0282 37.2602 20.0962 37.0898 20.1302L27.7786 22.2894C27.4349 22.3748 27.0715 22.3227 26.7655 22.1443C26.4594 21.9659 26.2347 21.6751 26.1391 21.3336C26.0988 21.1641 26.0931 20.9883 26.1223 20.8166C26.1514 20.6448 26.2148 20.4808 26.3087 20.3342C26.4026 20.1876 26.5251 20.0614 26.6688 19.9633C26.8124 19.8652 26.9744 19.7971 27.1449 19.7632L36.4561 17.604ZM25.7066 10.8905C25.3627 10.9755 24.9993 10.9231 24.6933 10.7444C24.3873 10.5658 24.1627 10.2749 24.067 9.93328C24.0268 9.76383 24.0211 9.58798 24.0502 9.41626C24.0794 9.24455 24.1428 9.08048 24.2367 8.93388C24.3306 8.78727 24.453 8.66115 24.5967 8.56303C24.7404 8.46492 24.9023 8.39684 25.0729 8.36286L32.4012 6.66434C32.7449 6.57893 33.1082 6.63095 33.4143 6.80936C33.7204 6.98778 33.945 7.27858 34.0407 7.62012C34.0809 7.78957 34.0866 7.96542 34.0575 8.13713C34.0283 8.30885 33.9649 8.47292 33.871 8.61952C33.7771 8.76612 33.6547 8.89225 33.511 8.99036C33.3673 9.08848 33.2054 9.15656 33.0348 9.19054L25.7066 10.8905ZM20.5883 1.47951C20.9321 1.39415 21.2957 1.44637 21.6018 1.62508C21.9079 1.80379 22.1324 2.09492 22.2278 2.43673C22.2678 2.60608 22.2734 2.78178 22.2441 2.95333C22.2148 3.12488 22.1514 3.28877 22.0575 3.43521C21.9636 3.58165 21.8412 3.70764 21.6977 3.80566C21.5541 3.90368 21.3923 3.97171 21.2219 4.00571L21.13 4.0273C20.7861 4.11227 20.4227 4.05989 20.1167 3.88124C19.8107 3.70258 19.5861 3.41168 19.4905 3.07008C19.4504 2.90072 19.4449 2.72502 19.4741 2.55347C19.5034 2.38192 19.5669 2.21803 19.6607 2.07159C19.7546 1.92515 19.877 1.79916 20.0205 1.70115C20.1641 1.60313 20.3259 1.53509 20.4963 1.5011L20.5883 1.47951ZM6.95478 8.60613C7.29866 8.52077 7.66221 8.57299 7.9683 8.7517C8.27439 8.93041 8.49894 9.22154 8.5943 9.56335C8.63433 9.7327 8.63987 9.9084 8.61062 10.08C8.58136 10.2515 8.5179 10.4154 8.42402 10.5618C8.33014 10.7083 8.20777 10.8343 8.06421 10.9323C7.92065 11.0303 7.75885 11.0983 7.58846 11.1323L7.4965 11.1539C7.15342 11.2381 6.79113 11.1854 6.48605 11.0071C6.18097 10.8288 5.95696 10.5387 5.86128 10.1981C5.82126 10.0288 5.81571 9.85308 5.84497 9.68153C5.87422 9.50998 5.93769 9.34609 6.03157 9.19965C6.12545 9.05321 6.24782 8.92722 6.39138 8.82921C6.53494 8.73119 6.69674 8.66315 6.86713 8.62916L6.95478 8.60613ZM2.5262 20.231C2.18249 20.3168 1.81893 20.2649 1.51278 20.0864C1.20663 19.908 0.982018 19.6169 0.886673 19.2752C0.846431 19.1057 0.840715 18.9299 0.869868 18.7582C0.89902 18.5865 0.962441 18.4224 1.05634 18.2758C1.15024 18.1292 1.27268 18.003 1.41636 17.9049C1.56003 17.8068 1.72198 17.7387 1.89252 17.7048L11.2037 15.5456H11.2382H11.2727H11.3058H11.3403H11.3747H11.4078H11.6104H11.6434H11.6765H11.7095H11.7426H11.7756H11.8073H11.8389L11.8705 15.5543H11.9035L11.9337 15.5629L11.9653 15.5744L11.9955 15.5845L12.0271 15.596L12.0573 15.6075L12.086 15.6205L12.1162 15.6334L12.1464 15.6478L12.1737 15.6622L12.2024 15.678L12.2297 15.6939L12.2584 15.7112L12.2857 15.727L12.3116 15.7457L12.3389 15.7644L12.3648 15.7831L12.3892 15.8018L12.4151 15.822L12.4395 15.8421L12.4625 15.8637L12.4869 15.8868L12.5085 15.9084L12.5315 15.9314L12.553 15.9544L12.5746 15.9789L12.5947 16.0034L12.6148 16.0278C12.7227 16.1661 12.8005 16.3254 12.8433 16.4956C12.8833 16.665 12.8888 16.8407 12.8596 17.0122C12.8303 17.1838 12.7669 17.3477 12.673 17.4941C12.5791 17.6406 12.4567 17.7666 12.3132 17.8646C12.1696 17.9626 12.0078 18.0306 11.8374 18.0646L2.5262 20.231ZM24.5843 19.0794C24.2395 19.1641 23.8753 19.1107 23.5691 18.9306C23.2629 18.7506 23.039 18.4579 22.9448 18.115C22.9048 17.9456 22.8992 17.7699 22.9285 17.5984C22.9577 17.4268 23.0212 17.263 23.1151 17.1165C23.209 16.9701 23.3313 16.8441 23.4749 16.7461C23.6185 16.6481 23.7803 16.58 23.9506 16.546L35.5063 13.8629C35.8501 13.7771 36.2136 13.829 36.5198 14.0075C36.8259 14.1859 37.0505 14.477 37.1459 14.8187C37.1861 14.9882 37.1918 15.164 37.1627 15.3357C37.1335 15.5074 37.0701 15.6715 36.9762 15.8181C36.8823 15.9647 36.7599 16.0908 36.6162 16.189C36.4725 16.2871 36.3106 16.3551 36.14 16.3891L24.5843 19.0794Z" fill="black"/>
<path d="M73.4578 15.7129H79.0618V17.7051H77.6795L74.9407 26.7893H72.2968L69.854 20.4731L67.2331 26.7893H64.6811L61.8188 17.7051H60.5098V15.7129H66.039V17.7051H64.171L66.1597 24.6028C66.1597 24.6028 68.1901 19.1978 68.535 18.2391C68.7575 17.6011 68.9337 16.9478 69.0623 16.2843H70.9116C70.9116 16.2843 71.0553 17.1322 71.3326 18.1556C71.5755 19.0797 73.488 24.5726 73.488 24.5726L75.356 17.6993H73.4578V15.7129Z" fill="black"/>
<path d="M82.6587 19.5534H80.6944C80.4683 19.0667 80.3525 18.5358 80.3553 17.9989C80.3553 16.5177 81.7132 15.4727 84.6661 15.4727C88.1147 15.4727 88.9093 16.5911 88.9093 19.6269V24.1884C88.9093 24.6994 89.1751 24.9182 89.5631 24.9182C89.8169 24.9129 90.0693 24.8801 90.316 24.8203V26.788C89.8287 26.8855 89.3329 26.9338 88.836 26.932C87.5758 26.932 86.8717 26.277 86.751 25.2565C86.3223 25.8266 85.7647 26.2869 85.124 26.5994C84.4833 26.9119 83.7778 27.0678 83.0653 27.0543C80.91 27.0543 79.7188 25.8639 79.7188 23.8962C79.7188 21.5643 81.7807 20.7626 84.9319 20.4704L86.6116 20.2732V17.8261C86.1992 17.6318 85.3184 17.5109 84.6718 17.5109C83.7493 17.5109 83.2651 17.6073 82.6601 17.8261L82.6587 19.5534ZM83.7493 25.1413C84.8184 25.117 85.8397 24.6923 86.6116 23.9509V21.8565L84.9865 22.0753C82.9015 22.3186 82.15 22.7562 82.15 23.7523C82.15 24.626 82.6343 25.137 83.7493 25.137V25.1413Z" fill="black"/>
<path d="M92.1875 15.7113H95.9451V18.1138C96.333 16.9723 97.6421 15.4652 99.0977 15.4652C99.6756 15.4602 100.253 15.5084 100.822 15.6091L100.625 18.2577L98.7341 17.8691C98.1755 17.9128 97.6378 18.1015 97.1742 18.4168C96.7106 18.7321 96.3369 19.1629 96.0902 19.6669V24.7913H98.6364V26.7834H92.1875V24.9899L93.8357 24.6013V17.7035H92.1875V15.7113Z" fill="black"/>
<path d="M102.652 24.7963H104.18V17.7042H102.701V15.712H106.193V16.9514C106.75 16.1741 107.865 15.4688 109.321 15.4688C110.902 15.4688 111.721 16.0762 112.352 17.0723C113.031 16.1741 114.22 15.4688 115.917 15.4688C118.461 15.4688 119.365 16.9269 119.365 19.5985V24.7963H120.868V26.7884H115.825V24.7963H117.109V19.7683C117.109 18.3836 116.721 17.6092 115.316 17.6092C114.871 17.6041 114.431 17.6895 114.02 17.8602C113.61 18.031 113.238 18.2835 112.928 18.6024V24.7919H114.237V26.7841H109.368V24.7963H110.703V18.7722C110.363 18.0684 109.709 17.6063 108.692 17.6063C108.265 17.599 107.842 17.6817 107.449 17.8491C107.056 18.0165 106.703 18.2648 106.413 18.5779V24.7963H107.722V26.7884H102.652V24.7963Z" fill="black"/>
<path d="M131.159 24.0434L131.733 25.9377C130.411 26.6629 128.93 27.0472 127.423 27.0562C123.786 27.0562 122.33 24.4321 122.33 21.2265C122.33 18.1173 124.004 15.4688 127.519 15.4688C128.937 15.4814 130.336 15.8047 131.617 16.4159L131.157 20.3024H129.315V17.7287C128.748 17.5228 128.148 17.4251 127.545 17.4408C125.629 17.4408 124.781 18.9954 124.781 21.0609C124.781 23.174 125.484 24.9229 127.667 24.9229C128.884 24.9118 130.081 24.6103 131.159 24.0434Z" fill="black"/>
<path d="M133.322 24.7973H134.874V11.9H133.273V9.88477H137.104V16.7595C137.76 16.1276 139.044 15.4712 140.717 15.4712C143.385 15.4712 144.453 16.9538 144.453 19.7708V24.7987H145.976V26.7909H140.451V24.7973H142.197V19.9867C142.197 18.5055 141.858 17.6059 139.965 17.6059C138.932 17.6331 137.932 17.9811 137.104 18.602V24.7915H138.829V26.7837H133.325L133.322 24.7973Z" fill="black"/>
<path d="M155.93 23.9706L156.682 25.7685C155.438 26.5974 153.981 27.0474 152.488 27.064C148.752 27.064 147.25 24.6342 147.25 21.2588C147.25 18.0762 148.875 15.4766 152.245 15.4766C155.471 15.4766 156.78 17.8084 156.78 20.1893C156.781 20.802 156.716 21.413 156.586 22.0116H149.676C149.7 23.8828 150.572 25.0229 152.512 25.0229C153.729 25.0107 154.917 24.6452 155.93 23.9706ZM154.525 20.2281C154.543 20.0994 154.551 19.9694 154.548 19.8395C154.548 18.2849 153.603 17.3924 152.222 17.3924C150.427 17.3924 149.796 18.6563 149.7 20.2353L154.525 20.2281Z" fill="black"/>
<path d="M167.36 24.0434L167.934 25.9377C166.612 26.663 165.131 27.0474 163.624 27.0562C159.987 27.0562 158.531 24.4321 158.531 21.2265C158.531 18.1173 160.205 15.4688 163.721 15.4688C165.139 15.482 166.537 15.8053 167.817 16.4159L167.355 20.3024H165.518V17.7287C164.951 17.5229 164.351 17.4252 163.749 17.4408C161.833 17.4408 160.984 18.9954 160.984 21.0609C160.984 23.174 161.687 24.9229 163.869 24.9229C165.086 24.9119 166.283 24.6104 167.36 24.0434Z" fill="black"/>
<path d="M177.79 24.8951L175.433 21.4938L173.614 23.0239V24.7973H175.723V26.7894H169.734V24.7973H171.36V11.9H169.686V9.88477H173.614V21.1555L177.761 17.7009H175.991V15.713H181.882V17.7052H180.189L177.086 20.3523L180.238 24.7973H182.348V26.7894H177.79V24.8951Z" fill="black"/>
<path d="M54.4353 24.5173C56.22 24.5173 57.1353 23.8969 57.1353 22.3208C57.1353 20.6712 55.8219 20.0105 53.4726 19.5729C49.7452 18.8935 48.1057 17.8153 48.1057 14.6126C48.1057 11.4603 50.0843 9.70703 52.9524 9.70703C54.3534 9.70703 56.1438 10.1921 57.2057 11.4056L57.4026 9.95029H59.3927L58.907 15.2618H56.8565C56.8565 14.889 56.5404 12.121 53.2542 12.1613C51.471 12.1829 50.4694 13.0019 50.514 14.5047C50.5786 16.7171 51.8417 17.0841 54.033 17.4958C57.7603 18.1997 59.4085 19.1871 59.4085 22.4129C59.4085 25.6142 57.3796 26.9514 54.5115 26.9514C53.0659 26.9514 51.3503 26.711 50.2438 25.4731L49.9694 26.9284H47.916L48.8486 21.6169H50.6778C50.8287 22.5856 50.8215 22.292 50.9163 22.5856C51.3718 23.9833 52.7915 24.5173 54.4353 24.5173Z" fill="black"/>
</g>
<defs>
<clipPath id="clip0_341_4062">
<rect width="181.5" height="35.695" fill="white" transform="translate(0.847656 0.697266)"/>
</clipPath>
</defs>
</svg>
