<svg id="Layer_1" data-name="Layer 1" xmlns="http://www.w3.org/2000/svg" xmlns:xlink="http://www.w3.org/1999/xlink" viewBox="0 0 60 60"><defs><style>.cls-1,.cls-4{fill:#1d1d1b;}.cls-1,.cls-3{stroke:#1d1d1b;stroke-linecap:round;stroke-linejoin:round;}.cls-1{stroke-width:2.98px;filter:url(#luminosity-noclip);}.cls-2{mask:url(#mask);}.cls-3{fill:none;stroke-width:0.91px;}.cls-4{font-size:21.25px;font-family:MyriadPro-Regular, Myriad Pro;}</style><filter id="luminosity-noclip" x="1.24" y="4.05" width="58.63" height="51.98" filterUnits="userSpaceOnUse" color-interpolation-filters="sRGB"><feFlood flood-color="#fff" result="bg"/><feBlend in="SourceGraphic" in2="bg"/></filter><mask id="mask" x="1.24" y="4.05" width="58.63" height="51.98" maskUnits="userSpaceOnUse"><path class="cls-1" d="M21.29,5.53C11,5.53,2.73,12.47,2.73,21A13.94,13.94,0,0,0,6.9,30.79C5.4,34,3.42,39.62,3.42,39.62l10.36-4.45a21.63,21.63,0,0,0,7.51,1.33c10.25,0,18.56-6.93,18.56-15.48S31.54,5.53,21.29,5.53Z"/></mask></defs><g class="cls-2"><path class="cls-3" d="M40.86,21.49c10.25,0,18.56,6.93,18.56,15.48a14,14,0,0,1-4.17,9.78c1.5,3.17,3.48,8.82,3.48,8.82L48.37,51.12a21.67,21.67,0,0,1-7.51,1.33C30.61,52.45,22.3,45.52,22.3,37S30.61,21.49,40.86,21.49Z"/></g><path class="cls-3" d="M20.43,5.53C10.18,5.53,1.87,12.47,1.87,21A13.94,13.94,0,0,0,6,30.79C4.54,34,2.56,39.62,2.56,39.62l10.36-4.45a21.67,21.67,0,0,0,7.51,1.33C30.68,36.5,39,29.57,39,21S30.68,5.53,20.43,5.53Z"/><text class="cls-4" transform="translate(36.8 44.99)">?</text><text class="cls-4" transform="translate(18.22 28.46)">!</text></svg>