<svg id="Layer_1" data-name="Layer 1" xmlns="http://www.w3.org/2000/svg" viewBox="0 0 60 60"><defs><style>.cls-1,.cls-2{fill:none;stroke:#1d1d1b;stroke-linecap:round;stroke-linejoin:round;}.cls-1{stroke-width:0.91px;}.cls-2{stroke-width:0.52px;}</style></defs><path class="cls-1" d="M40.54,39.41l12.3-1.8a3.16,3.16,0,0,1,2.59.82h0A2.49,2.49,0,0,1,56.12,41h0a3.53,3.53,0,0,1-2,2.27L33.5,52.1A2.47,2.47,0,0,1,31.36,52L17.91,45A2.52,2.52,0,0,0,16,44.88L4.6,48.62,1.33,34l16.53-3.57a11.66,11.66,0,0,1,4.67-.07h0a9.5,9.5,0,0,1,3.34,1.28l6.76,4.18a2.51,2.51,0,0,0,1.1.36l1.78.16h.22a5,5,0,0,1,4.17,2.27h0a2.51,2.51,0,0,1,0,2.71h0a2.53,2.53,0,0,1-1.46,1.06l-4.58,1.23a2.53,2.53,0,0,1-1.54-.08l-6-2.3"/><path class="cls-1" d="M55.29,8.8H33.67a3.37,3.37,0,0,0-3.37,3.37v8.72a3.37,3.37,0,0,0,3.37,3.37h4v8.82l6.88-8.82H55.29a3.37,3.37,0,0,0,3.38-3.37V12.17A3.37,3.37,0,0,0,55.29,8.8Z"/><line class="cls-2" x1="35.5" y1="12.92" x2="53.46" y2="12.92"/><line class="cls-2" x1="35.5" y1="16.29" x2="53.46" y2="16.29"/><line class="cls-2" x1="35.5" y1="19.66" x2="53.46" y2="19.66"/></svg>