<svg width="753" height="753" viewBox="0 0 753 753" fill="none" xmlns="http://www.w3.org/2000/svg">
<path d="M686.569 132.477H72.334V549.024H686.569V132.477Z" stroke="#BCD0ED" stroke-width="9.89691" stroke-linecap="round" stroke-linejoin="round"/>
<path d="M660.391 160.031H98.3965V521.456H660.391V160.031Z" stroke="#BCD0ED" stroke-width="8.89469" stroke-linecap="round" stroke-linejoin="round"/>
<path d="M403.925 611.545V549.031H354.941V611.545H234.926V640.609H524.066V611.545H403.925Z" stroke="#BCD0ED" stroke-width="8.89469" stroke-linecap="round" stroke-linejoin="round"/>
<path d="M278.608 279.75C277.835 285.495 275.183 292.676 270.654 301.293C266.124 309.8 260.711 318.362 254.414 326.979C248.227 335.486 242.427 342.501 237.014 348.025H269.825V324.328C273.25 319.467 276.73 313.722 280.265 307.093C283.801 300.464 286.121 294.996 287.225 290.687H301.311V348.025H317.22V372.385H301.311V395.751H269.825V372.385H214.311V347.693C220.276 339.076 226.187 328.636 232.042 316.373C237.897 304.11 242.593 291.902 246.128 279.75H278.608Z" fill="#BCD0ED"/>
<path d="M376.379 279.75C394.166 279.75 406.65 284.832 413.831 294.996C421.122 305.049 424.768 319.632 424.768 338.745C424.768 357.857 421.122 372.496 413.831 382.659C406.65 392.713 394.166 397.74 376.379 397.74C358.482 397.74 345.888 392.713 338.596 382.659C331.415 372.496 327.825 357.857 327.825 338.745C327.825 319.632 331.415 305.049 338.596 294.996C345.888 284.832 358.482 279.75 376.379 279.75ZM376.379 302.122C370.634 302.122 366.547 304.331 364.116 308.75C361.686 313.169 360.47 320.406 360.47 330.459V346.865C360.47 357.029 361.686 364.32 364.116 368.739C366.547 373.158 370.634 375.368 376.379 375.368C382.124 375.368 386.156 373.158 388.476 368.739C390.796 364.32 391.956 357.029 391.956 346.865V330.459C391.956 320.295 390.796 313.059 388.476 308.75C386.156 304.331 382.124 302.122 376.379 302.122Z" fill="#BCD0ED"/>
<path d="M499.67 279.75C498.897 285.495 496.246 292.676 491.716 301.293C487.186 309.8 481.773 318.362 475.476 326.979C469.289 335.486 463.489 342.501 458.076 348.025H490.887V324.328C494.312 319.467 497.792 313.722 501.328 307.093C504.863 300.464 507.183 294.996 508.288 290.687H522.373V348.025H538.282V372.385H522.373V395.751H490.887V372.385H435.373V347.693C441.338 339.076 447.249 328.636 453.104 316.373C458.96 304.11 463.655 291.902 467.19 279.75H499.67Z" fill="#BCD0ED"/>
</svg>
