<svg id="Layer_1" data-name="Layer 1" xmlns="http://www.w3.org/2000/svg" viewBox="0 0 60 60"><defs><style>.cls-1,.cls-2{fill:none;stroke:#1d1d1b;stroke-linecap:round;stroke-linejoin:round;}.cls-1{stroke-width:0.85px;}.cls-2{stroke-width:0.52px;}</style></defs><rect class="cls-1" x="24.76" y="28.75" width="8.99" height="8.99"/><rect class="cls-1" x="21.18" y="25.42" width="15.89" height="3.33"/><path class="cls-2" d="M45.11,10.61a4.45,4.45,0,0,0-8.67-1.44,4.21,4.21,0,0,0-8,1,6.18,6.18,0,0,0-2.29-.43,5.67,5.67,0,0,0-5.85,5.48,5.51,5.51,0,0,0,3.95,5.16,3.62,3.62,0,0,0-1.62,3,3.53,3.53,0,0,0,.7,2.1H34.76a3,3,0,0,0-.13-4.59c.08-.11.15-.24.22-.36a4.36,4.36,0,0,0,7.36-3.18,4.3,4.3,0,0,0-.67-2.3A4.47,4.47,0,0,0,45.11,10.61Z"/><circle class="cls-2" cx="41.48" cy="9.34" r="1.34"/><circle class="cls-2" cx="37.95" cy="16.03" r="1.54"/><circle class="cls-2" cx="27.87" cy="13.75" r="1.54"/><circle class="cls-2" cx="29.43" cy="22.16" r="1.27"/><circle class="cls-2" cx="25.85" cy="23.68" r="0.68"/><circle class="cls-2" cx="26.53" cy="18.38" r="0.8"/><circle class="cls-2" cx="32.71" cy="17.08" r="0.63"/><circle class="cls-2" cx="33.51" cy="9.26" r="0.99"/><circle class="cls-2" cx="35.52" cy="11.28" r="0.59"/><circle class="cls-2" cx="22.9" cy="14.51" r="0.64"/><polyline class="cls-1" points="52.07 37.76 16.16 37.76 6.54 55.21"/><line class="cls-2" x1="22.45" y1="37.92" x2="12.83" y2="55.21"/><line class="cls-2" x1="29.18" y1="37.92" x2="19.57" y2="55.21"/><line class="cls-2" x1="35.92" y1="37.92" x2="26.3" y2="55.21"/><line class="cls-2" x1="42.65" y1="37.92" x2="33.03" y2="55.21"/><line class="cls-2" x1="49.38" y1="37.92" x2="39.76" y2="55.21"/></svg>