<svg width="106" height="107" viewBox="0 0 106 107" fill="none" xmlns="http://www.w3.org/2000/svg">
<path d="M75.45 57.5891C75.3589 57.5588 75.2627 57.5471 75.167 57.5546C75.0714 57.5621 74.9782 57.5887 74.893 57.6328C74.8077 57.677 74.7322 57.7377 74.6709 57.8115C74.6096 57.8853 74.5636 57.9707 74.5358 58.0625C73.3278 62.0457 69.1324 61.4907 67.7121 61.1968C67.3203 48.431 53.9178 38.0322 37.4136 38.0322C34.6688 38.0268 31.9316 38.3224 29.2513 38.9137L20.8278 32.6614C20.7111 32.594 20.5788 32.5586 20.4441 32.5586C20.3094 32.5586 20.1771 32.594 20.0605 32.6614C19.9418 32.724 19.8425 32.818 19.7734 32.9331C19.7043 33.0483 19.6681 33.1801 19.6687 33.3144V42.5704C14.3439 45.3578 10.2302 50.006 8.11087 55.6301H2.65844C2.46361 55.6301 2.27676 55.7075 2.13899 55.8453C2.00122 55.9831 1.92383 56.1699 1.92383 56.3648V69.2449C1.92713 69.4132 1.98686 69.5754 2.09343 69.7057C2.2 69.8359 2.34724 69.9266 2.51151 69.9632L9.7923 71.465C11.535 74.4622 13.8942 77.0552 16.7139 79.0723V89.8629C16.7182 90.0549 16.7975 90.2376 16.9348 90.3718C17.0721 90.5061 17.2565 90.5812 17.4486 90.5812H26.672C26.841 90.5809 27.0048 90.5222 27.1357 90.4151C27.2665 90.3081 27.3564 90.1592 27.3903 89.9935L28.3861 84.3452C34.2042 85.7786 40.2785 85.8177 46.1146 84.4595L47.0941 89.9119C47.125 90.079 47.2141 90.2297 47.3456 90.3373C47.4771 90.4449 47.6425 90.5024 47.8124 90.4996H57.0031C57.1952 90.4996 57.3796 90.4245 57.5169 90.2902C57.6542 90.156 57.7335 89.9733 57.7378 89.7813V79.4478C60.5604 77.6084 62.924 75.1468 64.6474 72.2519C66.3707 69.357 67.408 66.1058 67.6795 62.7477C68.3248 62.8748 68.9807 62.9404 69.6384 62.9436C70.8387 62.9685 72.0268 62.6994 73.0992 62.16C73.7877 61.7866 74.393 61.2771 74.8785 60.6625C75.364 60.0479 75.7195 59.3411 75.9234 58.5849C75.9645 58.489 75.9847 58.3855 75.9827 58.2812C75.9807 58.1769 75.9565 58.0743 75.9117 57.9801C75.8669 57.8858 75.8026 57.8023 75.7229 57.7348C75.6433 57.6674 75.5503 57.6178 75.45 57.5891ZM56.6114 78.3867C56.5161 78.4524 56.4382 78.5402 56.3842 78.6425C56.3302 78.7448 56.3017 78.8587 56.3012 78.9744V89.0956H48.4164L47.4043 83.48C47.3896 83.3814 47.3525 83.2874 47.2959 83.2054C47.2393 83.1233 47.1647 83.0553 47.0778 83.0066C46.995 82.9505 46.9012 82.9127 46.8027 82.8959C46.7041 82.879 46.6031 82.8833 46.5064 82.9086C40.4264 84.4459 34.0548 84.4066 27.9943 82.7943C27.8965 82.7631 27.7929 82.7542 27.6911 82.7683C27.5894 82.7824 27.4922 82.8192 27.4066 82.876C27.2428 82.995 27.127 83.1687 27.0801 83.3657L25.9863 89.0956H18.1668V78.9254C18.2125 78.7775 18.2102 78.6189 18.1604 78.4723C18.1106 78.3257 18.0157 78.1986 17.8893 78.1092C15.009 76.1161 12.6152 73.4991 10.8861 70.4529C10.8365 70.3602 10.7668 70.2798 10.682 70.2176C10.5973 70.1555 10.4996 70.1132 10.3963 70.0938L3.37672 68.6246V57.0667H8.74752C8.90508 57.0664 9.05837 57.0155 9.18477 56.9214C9.31116 56.8274 9.40397 56.6952 9.44948 56.5443C11.4277 50.9019 15.5268 46.2524 20.8767 43.5826C20.9913 43.5164 21.0863 43.4212 21.1523 43.3066C21.2182 43.1919 21.2527 43.0618 21.2522 42.9296V34.7673L28.7779 40.2687C28.8656 40.3274 28.9644 40.3679 29.0682 40.3875C29.172 40.4071 29.2787 40.4056 29.3819 40.3829C32.0616 39.7861 34.7988 39.4851 37.5442 39.4851C53.4444 39.4851 66.3735 49.4758 66.3735 61.7519C66.2919 68.0205 62.7657 74.1423 56.6114 78.3867Z" fill="#1D1D1B"/>
<path d="M50.4728 43.5319C43.5975 41.0197 36.1425 40.5492 29.0059 42.177C28.8186 42.22 28.6556 42.3346 28.5518 42.4964C28.4481 42.6581 28.4118 42.854 28.4509 43.0422C28.5062 43.2043 28.6164 43.3419 28.7625 43.4313C28.9085 43.5208 29.0813 43.5564 29.2508 43.5319C36.111 41.9695 43.2766 42.423 49.8851 44.8379C49.966 44.8534 50.0491 44.8534 50.13 44.8379C50.2721 44.8166 50.4049 44.7541 50.5119 44.6582C50.6188 44.5622 50.6953 44.4369 50.7318 44.2979C50.7683 44.1589 50.7632 44.0122 50.7172 43.8761C50.6711 43.7399 50.5862 43.6203 50.4728 43.5319V43.5319Z" fill="#1D1D1B"/>
<path d="M17.823 52.6094C17.3896 52.6062 16.9651 52.7317 16.6032 52.9701C16.2414 53.2085 15.9585 53.549 15.7904 53.9484C15.6223 54.3479 15.5766 54.7882 15.6592 55.2136C15.7418 55.639 15.9488 56.0303 16.2541 56.3379C16.5593 56.6454 16.9491 56.8554 17.3738 56.9411C17.7986 57.0269 18.2393 56.9845 18.64 56.8194C19.0406 56.6544 19.3832 56.374 19.6243 56.0139C19.8654 55.6539 19.9941 55.2303 19.9941 54.7969C19.9963 54.5104 19.9417 54.2264 19.8336 53.961C19.7254 53.6957 19.5659 53.4545 19.364 53.2511C19.1622 53.0478 18.9221 52.8864 18.6576 52.7763C18.3931 52.6661 18.1095 52.6094 17.823 52.6094V52.6094ZM17.823 55.4989C17.6353 55.499 17.455 55.4255 17.3208 55.2943C17.1865 55.1631 17.1089 54.9846 17.1047 54.7969C17.1047 54.6064 17.1804 54.4237 17.3151 54.289C17.4498 54.1543 17.6325 54.0787 17.823 54.0787C18.0135 54.0787 18.1962 54.1543 18.3309 54.289C18.4656 54.4237 18.5413 54.6064 18.5413 54.7969C18.537 54.9846 18.4594 55.1631 18.3252 55.2943C18.1909 55.4255 18.0107 55.499 17.823 55.4989Z" fill="#1D1D1B"/>
<path d="M39.6173 37.0056C42.2268 37.0088 44.7786 36.238 46.9499 34.7906C49.1212 33.3432 50.8144 31.2843 51.8152 28.8743C52.8161 26.4644 53.0796 23.8118 52.5725 21.252C52.0654 18.6923 50.8104 16.3405 48.9664 14.4941C47.1223 12.6478 44.7721 11.3899 42.213 10.8797C39.6539 10.3694 37.0009 10.6296 34.5897 11.6275C32.1786 12.6254 30.1176 14.316 28.6675 16.4855C27.2174 18.655 26.4434 21.2058 26.4434 23.8153C26.4434 27.3108 27.8308 30.6633 30.3009 33.1365C32.7711 35.6097 36.1219 37.0013 39.6173 37.0056ZM39.6173 12.1105C41.9369 12.1073 44.2053 12.7924 46.1354 14.0791C48.0654 15.3658 49.5702 17.1962 50.4594 19.3386C51.3486 21.481 51.5821 23.8391 51.1303 26.1143C50.6786 28.3895 49.5619 30.4795 47.9217 32.1197C46.2815 33.7599 44.1915 34.8765 41.9163 35.3283C39.6411 35.78 37.2831 35.5465 35.1407 34.6574C32.9982 33.7682 31.1678 32.2634 29.8811 30.3333C28.5944 28.4033 27.9093 26.1349 27.9126 23.8153C27.9126 20.7095 29.1452 17.7307 31.3398 15.533C33.5344 13.3353 36.5115 12.0985 39.6173 12.0942V12.1105Z" fill="#1D1D1B"/>
<path d="M39.6161 34.179C41.6703 34.1822 43.6792 33.576 45.3888 32.4372C47.0983 31.2983 48.4316 29.6779 49.2199 27.781C50.0083 25.8842 50.2162 23.7961 49.8174 21.781C49.4187 19.766 48.4311 17.9144 46.9798 16.4608C45.5284 15.0072 43.6785 14.0167 41.664 13.6148C39.6496 13.2128 37.5612 13.4175 35.6631 14.2028C33.765 14.9882 32.1425 16.3189 31.0009 18.0266C29.8593 19.7344 29.25 21.7424 29.25 23.7965C29.25 26.5473 30.3416 29.1857 32.2852 31.1323C34.2287 33.0789 36.8654 34.1747 39.6161 34.179V34.179ZM39.6161 14.2629C41.5063 14.2597 43.355 14.8175 44.9279 15.8656C46.5009 16.9137 47.7275 18.405 48.4523 20.1507C49.1771 21.8964 49.3676 23.8179 48.9997 25.6719C48.6317 27.526 47.7218 29.2291 46.3853 30.5656C45.0487 31.9022 43.3456 32.8121 41.4916 33.18C39.6375 33.548 37.716 33.3575 35.9703 32.6327C34.2246 31.9078 32.7333 30.6813 31.6852 29.1083C30.6371 27.5353 30.0793 25.6867 30.0826 23.7965C30.0869 21.2694 31.0927 18.847 32.8796 17.06C34.6666 15.2731 37.089 14.2673 39.6161 14.2629V14.2629Z" fill="#1D1D1B"/>
</svg>
