<svg width="106" height="107" viewBox="0 0 106 107" fill="none" xmlns="http://www.w3.org/2000/svg">
<g clip-path="url(#clip0_791_3570)">
<path d="M37.5076 39.4384C37.5076 35.7576 36.4161 32.1595 34.3712 29.0991C32.3263 26.0386 29.4197 23.6533 26.0192 22.2448C22.6186 20.8362 18.8767 20.4676 15.2667 21.1857C11.6566 21.9038 8.34061 23.6763 5.73793 26.2789C3.13524 28.8816 1.36279 32.1977 0.644708 35.8077C-0.0733715 39.4177 0.295173 43.1596 1.70374 46.5602C3.1123 49.9608 5.49762 52.8673 8.55805 54.9122C11.6185 56.9571 15.2166 58.0486 18.8973 58.0486C23.8302 58.0393 28.5584 56.0756 32.0465 52.5875C35.5346 49.0994 37.4983 44.3712 37.5076 39.4384V39.4384ZM1.88781 39.4384C1.88085 36.0727 2.87252 32.7806 4.73731 29.9788C6.60211 27.177 9.25619 24.9913 12.3637 23.6985C15.4711 22.4057 18.8923 22.0639 22.1941 22.7162C25.496 23.3685 28.5301 24.9858 30.9124 27.3632C33.2947 29.7406 34.9182 32.7713 35.5774 36.0718C36.2366 39.3723 35.9018 42.7942 34.6154 45.9043C33.3291 49.0144 31.1489 51.673 28.351 53.5436C25.553 55.4142 22.263 56.4127 18.8973 56.4127C14.3951 56.4035 10.0793 54.6132 6.89243 51.4329C3.70553 48.2526 1.90638 43.9406 1.88781 39.4384V39.4384Z" fill="#1D1D1B"/>
<path d="M19.6885 51.1355V40.2297H30.6119C30.727 40.2468 30.8443 40.2389 30.9561 40.2065C31.0678 40.1742 31.1712 40.1181 31.2593 40.0421C31.3474 39.9662 31.4181 39.8721 31.4665 39.7664C31.5149 39.6606 31.54 39.5457 31.54 39.4293C31.54 39.313 31.5149 39.1981 31.4665 39.0923C31.4181 38.9866 31.3474 38.8925 31.2593 38.8166C31.1712 38.7406 31.0678 38.6845 30.9561 38.6522C30.8443 38.6198 30.727 38.6119 30.6119 38.629H19.6885V27.7056C19.6885 27.4957 19.6051 27.2943 19.4567 27.1459C19.3082 26.9975 19.1069 26.9141 18.897 26.9141C18.6854 26.914 18.4822 26.9968 18.3309 27.1448C18.1797 27.2928 18.0924 27.4941 18.0878 27.7056V38.629H7.18202C7.06697 38.6119 6.94959 38.6198 6.83787 38.6522C6.72615 38.6845 6.62272 38.7406 6.53463 38.8166C6.44655 38.8925 6.37587 38.9866 6.32743 39.0923C6.27898 39.1981 6.25391 39.313 6.25391 39.4293C6.25391 39.5457 6.27898 39.6606 6.32743 39.7664C6.37587 39.8721 6.44655 39.9662 6.53463 40.0421C6.62272 40.1181 6.72615 40.1742 6.83787 40.2065C6.94959 40.2389 7.06697 40.2468 7.18202 40.2297H18.0526V51.1355C18.0572 51.347 18.1445 51.5483 18.2958 51.6963C18.447 51.8443 18.6502 51.9271 18.8618 51.927C18.9687 51.9318 19.0754 51.9148 19.1755 51.8772C19.2756 51.8396 19.3671 51.782 19.4444 51.708C19.5216 51.634 19.5831 51.5452 19.6251 51.4468C19.667 51.3484 19.6886 51.2425 19.6885 51.1355V51.1355Z" fill="#1D1D1B"/>
<path d="M86.4426 42.815H82.1858V41.9706C82.2924 41.2223 82.2371 40.4598 82.0234 39.7347C81.8098 39.0097 81.4429 38.339 80.9475 37.768C80.4521 37.1971 79.8399 36.7392 79.1522 36.4254C78.4645 36.1116 77.7175 35.9492 76.9616 35.9492C76.2057 35.9492 75.4586 36.1116 74.771 36.4254C74.0833 36.7392 73.471 37.1971 72.9757 37.768C72.4803 38.339 72.1134 39.0097 71.8997 39.7347C71.6861 40.4598 71.6307 41.2223 71.7374 41.9706V42.34H68.7822V41.9882C68.8889 41.2399 68.8335 40.4774 68.6198 39.7523C68.4062 39.0273 68.0393 38.3565 67.5439 37.7856C67.0486 37.2146 66.4363 36.7568 65.7486 36.443C65.061 36.1292 64.3139 35.9668 63.558 35.9668C62.8021 35.9668 62.055 36.1292 61.3674 36.443C60.6797 36.7568 60.0675 37.2146 59.5721 37.7856C59.0767 38.3565 58.7098 39.0273 58.4962 39.7523C58.2825 40.4774 58.2271 41.2399 58.3338 41.9882V42.34H55.3787V41.9882C55.4753 41.2441 55.4122 40.4879 55.1934 39.7701C54.9747 39.0523 54.6054 38.3894 54.1101 37.8256C53.6149 37.2619 53.0051 36.8102 52.3214 36.5008C51.6378 36.1914 50.896 36.0314 50.1456 36.0314C49.3952 36.0314 48.6535 36.1914 47.9698 36.5008C47.2862 36.8102 46.6764 37.2619 46.1811 37.8256C45.6859 38.3894 45.3166 39.0523 45.0978 39.7701C44.8791 40.4879 44.8159 41.2441 44.9126 41.9882V42.34H41.9575V41.9882C41.9691 40.9384 41.6674 39.9091 41.0908 39.0317C40.5143 38.1543 39.6891 37.4689 38.7209 37.063C38.7209 37.6963 38.8441 38.3295 38.8792 38.9803C39.3437 39.3109 39.7208 39.7494 39.9782 40.258C40.2356 40.7667 40.3655 41.3303 40.3568 41.9003V85.6466C40.3568 86.6076 39.975 87.5293 39.2955 88.2088C38.6159 88.8884 37.6943 89.2701 36.7333 89.2701C35.7722 89.2701 34.8506 88.8884 34.171 88.2088C33.4915 87.5293 33.1097 86.6076 33.1097 85.6466V53.8439C32.6015 54.352 32.0672 54.8335 31.509 55.2863V84.8375H28.6067V57.2915C28.079 57.573 27.5513 57.8368 27.006 58.0831V85.6466C26.9419 86.5663 26.5314 87.4274 25.8573 88.0563C25.1831 88.6851 24.2956 89.0348 23.3736 89.0348C22.4517 89.0348 21.5642 88.6851 20.89 88.0563C20.2159 87.4274 19.8054 86.5663 19.7413 85.6466V59.7365H18.9498H18.1406V85.6466C18.2531 86.8895 18.8025 88.0524 19.6912 88.9286C20.5799 89.8048 21.7504 90.3377 22.9948 90.4326C24.2392 90.5276 25.477 90.1783 26.4883 89.447C27.4996 88.7157 28.219 87.6497 28.5187 86.4382H31.6322C31.8904 87.6128 32.5422 88.6639 33.4795 89.4175C34.4168 90.171 35.5834 90.5819 36.786 90.5819C37.9887 90.5819 39.1553 90.171 40.0926 89.4175C41.0298 88.6639 41.6816 87.6128 41.9399 86.4382H45.0533C45.319 87.604 45.9728 88.6451 46.9076 89.3908C47.8423 90.1365 49.0026 90.5426 50.1984 90.5426C51.3942 90.5426 52.5545 90.1365 53.4892 89.3908C54.424 88.6451 55.0778 87.604 55.3435 86.4382H58.4569C58.7226 87.604 59.3764 88.6451 60.3112 89.3908C61.2459 90.1365 62.4062 90.5426 63.602 90.5426C64.7977 90.5426 65.958 90.1365 66.8928 89.3908C67.8276 88.6451 68.4814 87.604 68.7471 86.4382H71.8781C72.1875 87.6381 72.9094 88.6908 73.9171 89.4119C74.9249 90.133 76.1543 90.4764 77.3899 90.382C78.6255 90.2876 79.7884 89.7614 80.6749 88.8956C81.5615 88.0298 82.115 86.8796 82.2386 85.6466V50.4666H86.4954C86.7069 50.4667 86.9101 50.3838 87.0614 50.2359C87.2126 50.0879 87.2999 49.8866 87.3045 49.6751V43.6241C87.3023 43.514 87.278 43.4054 87.2333 43.3048C87.1885 43.2042 87.1241 43.1136 87.0438 43.0382C86.9635 42.9628 86.869 42.9042 86.7657 42.8659C86.6625 42.8276 86.5526 42.8102 86.4426 42.815ZM44.9126 84.8375H41.9575V43.9231H44.9126V84.8375ZM53.7076 43.114V85.6466C53.6436 86.5663 53.2331 87.4274 52.5589 88.0563C51.8848 88.6851 50.9972 89.0348 50.0753 89.0348C49.1534 89.0348 48.2658 88.6851 47.5916 88.0563C46.9175 87.4274 46.507 86.5663 46.4429 85.6466C46.4429 85.6466 46.4776 42.0173 46.4429 41.5191C46.4082 41.0208 46.4764 40.5207 46.6433 40.0499C46.8101 39.5792 47.072 39.1477 47.4127 38.7825C47.7534 38.4173 48.1656 38.126 48.6236 37.9269C49.0817 37.7278 49.5758 37.625 50.0753 37.625C50.5747 37.625 51.0689 37.7278 51.5269 37.9269C51.985 38.126 52.3972 38.4173 52.7379 38.7825C53.0785 39.1477 53.3405 39.5792 53.5073 40.0499C53.6741 40.5207 53.7423 41.0208 53.7076 41.5191V43.114ZM58.3338 84.8375H55.3787V43.9231H58.3338V84.8375ZM67.1288 43.114V85.6466C67.1288 86.6076 66.747 87.5293 66.0675 88.2088C65.3879 88.8884 64.4663 89.2701 63.5052 89.2701C62.5442 89.2701 61.6226 88.8884 60.943 88.2088C60.2635 87.5293 59.8817 86.6076 59.8817 85.6466L59.9345 41.1202C59.9345 40.1592 60.3162 39.2376 60.9958 38.558C61.6753 37.8785 62.597 37.4967 63.558 37.4967C64.519 37.4967 65.4407 37.8785 66.1202 38.558C66.7998 39.2376 67.1815 40.1592 67.1815 41.1202L67.1288 43.114ZM71.6846 84.8375H68.7822V43.9231H71.7374L71.6846 84.8375ZM80.4796 43.6241V85.6466C80.4796 86.6076 80.0978 87.5293 79.4183 88.2088C78.7387 88.8884 77.8171 89.2701 76.856 89.2701C75.895 89.2701 74.9734 88.8884 74.2938 88.2088C73.6143 87.5293 73.2325 86.6076 73.2325 85.6466V41.9706C73.2325 41.0096 73.7198 39.2376 74.3994 38.558C75.0789 37.8785 76.0006 37.4967 76.9616 37.4967C77.9226 37.4967 78.8443 37.8785 79.5238 38.558C80.2034 39.2376 80.4796 41.0096 80.4796 41.9706V43.6241ZM85.5455 48.8131H82.0275V44.4156H85.5455V48.8131Z" fill="#1D1D1B"/>
</g>
<defs>
<clipPath id="clip0_791_3570">
<rect width="105.54" height="105.54" fill="white" transform="translate(0.185547 0.882812)"/>
</clipPath>
</defs>
</svg>
