<svg id="Layer_1" data-name="Layer 1" xmlns="http://www.w3.org/2000/svg" viewBox="0 0 60 60"><defs><style>.cls-1{fill:#1d1d1b;}</style></defs><path class="cls-1" d="M52.78,37.17,40.56,39a3,3,0,0,0-.28-.57,5.44,5.44,0,0,0-4.56-2.48h-.17l-1.78-.15a2,2,0,0,1-.9-.3l-6.76-4.17a10.06,10.06,0,0,0-3.49-1.35,12.42,12.42,0,0,0-4.86.07L1.23,33.57a.44.44,0,0,0-.28.2.41.41,0,0,0-.06.34L4.16,48.72a.42.42,0,0,0,.21.29.44.44,0,0,0,.37,0l11.38-3.74a2.07,2.07,0,0,1,1.58.13l13.45,7a2.83,2.83,0,0,0,1.36.34,2.87,2.87,0,0,0,1.17-.25l20.61-8.87a4,4,0,0,0,2.27-2.57,2.92,2.92,0,0,0-.82-3A3.55,3.55,0,0,0,52.78,37.17Zm2.91,3.65a3.08,3.08,0,0,1-1.75,2L33.32,51.68a2,2,0,0,1-1.75-.06l-13.45-7a3,3,0,0,0-1.37-.33,2.89,2.89,0,0,0-.92.14L4.93,48,1.87,34.36,18,30.88a11.36,11.36,0,0,1,4.5-.07A9.15,9.15,0,0,1,25.63,32l6.76,4.17a2.86,2.86,0,0,0,1.3.43l1.78.16h.26a4.5,4.5,0,0,1,3.79,2.06A2,2,0,0,1,38.33,42l-4.59,1.23a2,2,0,0,1-1.26-.07l-6-2.29a.45.45,0,0,0-.32.85l6,2.29a3,3,0,0,0,1.82.1l4.59-1.23a2.94,2.94,0,0,0,1.72-1.25,3,3,0,0,0,.47-1.75l12.16-1.78a2.67,2.67,0,0,1,2.21.7A2,2,0,0,1,55.69,40.82Z"/><path class="cls-1" d="M55.29,8.34H33.67a3.84,3.84,0,0,0-3.83,3.83v8.72a3.83,3.83,0,0,0,3.83,3.82h3.6v8.37a.45.45,0,0,0,.3.43.39.39,0,0,0,.15,0,.48.48,0,0,0,.36-.17l6.74-8.65H55.29a3.82,3.82,0,0,0,3.83-3.82V12.17A3.83,3.83,0,0,0,55.29,8.34Zm2.93,12.55a2.93,2.93,0,0,1-2.93,2.92H44.6a.43.43,0,0,0-.35.17l-6.08,7.78v-7.5a.45.45,0,0,0-.45-.45h-4a2.92,2.92,0,0,1-2.92-2.92V12.17a2.92,2.92,0,0,1,2.92-2.92H55.29a2.93,2.93,0,0,1,2.93,2.92Z"/><path class="cls-1" d="M53.46,12.67h-18a.26.26,0,1,0,0,.51h18a.26.26,0,1,0,0-.51Z"/><path class="cls-1" d="M53.46,16h-18a.26.26,0,0,0,0,.52h18a.26.26,0,1,0,0-.52Z"/><path class="cls-1" d="M53.46,19.4h-18a.26.26,0,0,0,0,.52h18a.26.26,0,1,0,0-.52Z"/></svg>