<svg id="Layer_1" data-name="Layer 1" xmlns="http://www.w3.org/2000/svg" viewBox="0 0 60 60"><defs><style>.cls-1{fill:#1d1d1b;}</style></defs><path class="cls-1" d="M41.52,31.43a14.84,14.84,0,1,0-21.91.4,12.75,12.75,0,0,1,3.24,7.23l.28,2.12h-.9a.51.51,0,0,0-.51.5v2.59a.51.51,0,0,0,.51.51h1v1.57h-1a.51.51,0,0,0-.51.51v2.59a.5.5,0,0,0,.51.5h2.68c.1,2.41,2.51,4.34,5.47,4.34s5.38-1.93,5.47-4.34h2.68a.5.5,0,0,0,.51-.5V46.86a.51.51,0,0,0-.51-.51h-1V44.78h1a.51.51,0,0,0,.51-.51V41.68a.51.51,0,0,0-.51-.5h-.9L37.91,39A14.24,14.24,0,0,1,41.52,31.43ZM30.38,53.28C28,53.28,26,51.8,25.93,50h8.9C34.73,51.8,32.78,53.28,30.38,53.28ZM38,48.94H22.73V47.37H38Zm-1.38-2.59H24.11V44.78H36.65ZM38,43.77H22.73V42.19H38ZM28.7,41.18,22.46,20.6c.76.06,1.17.6,1.64,1.24a2.75,2.75,0,0,0,2.25,1.51,2.74,2.74,0,0,0,2.24-1.51c.5-.68.92-1.27,1.78-1.27s1.29.59,1.79,1.27a2.75,2.75,0,0,0,2.25,1.51,2.78,2.78,0,0,0,2.25-1.51c.46-.64.88-1.18,1.64-1.24L32.06,41.18Zm4,0,6.62-21.83a.29.29,0,0,0-.19-.36.3.3,0,0,0-.36.19l-.25.83h0a2.77,2.77,0,0,0-2.25,1.5c-.49.69-.92,1.27-1.78,1.27s-1.29-.58-1.79-1.27A2.76,2.76,0,0,0,30.37,20a2.76,2.76,0,0,0-2.24,1.5c-.5.69-.92,1.27-1.78,1.27s-1.29-.58-1.78-1.27A2.79,2.79,0,0,0,22.32,20h0L22,19.18a.3.3,0,0,0-.36-.19.29.29,0,0,0-.19.36L28.1,41.18h-4l-.29-2.25a13.8,13.8,0,0,0-3.52-7.8A13.81,13.81,0,0,1,28.8,7.91a13.69,13.69,0,0,1,10.8,3.43,13.8,13.8,0,0,1,1.16,19.42,15.33,15.33,0,0,0-3.85,8.14l-.3,2.28Z"/><path class="cls-1" d="M42.5,8.27a.29.29,0,0,0-.41,0,.28.28,0,0,0,0,.4,18.13,18.13,0,0,1,1,25.93.3.3,0,0,0,0,.41.32.32,0,0,0,.2.08A.27.27,0,0,0,43.5,35a18.71,18.71,0,0,0-1-26.75Z"/><path class="cls-1" d="M51.55,20A18.59,18.59,0,0,0,50,14.3a.29.29,0,0,0-.53.25A17.7,17.7,0,0,1,51,20.05a18.06,18.06,0,0,1-.87,8,.29.29,0,0,0,.18.37h.09a.28.28,0,0,0,.27-.19A18.79,18.79,0,0,0,51.55,20Z"/><path class="cls-1" d="M12.81,20.05A18.13,18.13,0,0,1,18.65,8.69a.28.28,0,0,0,0-.4.29.29,0,0,0-.41,0,18.71,18.71,0,0,0-1,26.75.27.27,0,0,0,.21.09.32.32,0,0,0,.2-.08.3.3,0,0,0,0-.41A18.19,18.19,0,0,1,12.81,20.05Z"/><path class="cls-1" d="M10.8,14.3A18.59,18.59,0,0,0,9.21,20a18.79,18.79,0,0,0,.91,8.27.28.28,0,0,0,.27.19h.09a.29.29,0,0,0,.18-.37,18.06,18.06,0,0,1-.87-8,17.7,17.7,0,0,1,1.54-5.5.31.31,0,0,0-.14-.39A.3.3,0,0,0,10.8,14.3Z"/></svg>