<svg id="Layer_1" data-name="Layer 1" xmlns="http://www.w3.org/2000/svg" viewBox="0 0 60 60"><defs><style>.cls-1{fill:#1d1d1b;}</style></defs><path class="cls-1" d="M49.64,24.14H47.36a17,17,0,0,0-33.71,0H11.37A4.82,4.82,0,0,0,6.56,29v3.51a4.81,4.81,0,0,0,4.81,4.81H15.8a.4.4,0,0,0,.4-.4V26.19a14.31,14.31,0,1,1,28.61,0V42.25a6.13,6.13,0,0,1-6.13,6.12H35a2.87,2.87,0,0,0-2.62-1.7H28.28a2.88,2.88,0,1,0,0,5.76h4.13a2.89,2.89,0,0,0,2.45-1.38h3.82a8.82,8.82,0,0,0,8.82-8.81v-5h2.14a4.81,4.81,0,0,0,4.81-4.81V29A4.82,4.82,0,0,0,49.64,24.14ZM7.36,32.46V29a4,4,0,0,1,4-4h2.14V36.48H11.37A4,4,0,0,1,7.36,32.46Zm25,19.17H28.28a2.09,2.09,0,1,1,0-4.17h4.13a2.09,2.09,0,1,1,0,4.17Zm14.3-9.38a8,8,0,0,1-8,8H35.19a2.84,2.84,0,0,0,.1-.72,2.33,2.33,0,0,0,0-.38h3.43a6.94,6.94,0,0,0,6.93-6.92V26.19a15.1,15.1,0,0,0-30.2,0V36.48h-1.1V26.19a16.2,16.2,0,0,1,32.4,0V42.25Zm6.94-9.79a4,4,0,0,1-4,4H47.5V24.94h2.14a4,4,0,0,1,4,4Z"/></svg>