<svg width="94" height="81" viewBox="0 0 94 81" fill="none" xmlns="http://www.w3.org/2000/svg">
<path d="M24.3781 52.4176V52.1676H24.1281H12.6798C9.52119 52.1676 6.49152 50.915 4.25515 48.6845C2.01885 46.454 0.758332 43.4277 0.75 40.2693V12.5395C0.758308 9.37798 2.01789 6.34833 4.25342 4.1128C6.48896 1.87727 9.51859 0.617683 12.6801 0.609375H81.4335C84.5975 0.609375 87.6319 1.86626 89.8691 4.10353C92.1064 6.34079 93.3633 9.37518 93.3633 12.5392V40.206C93.3633 41.7711 93.0545 43.3208 92.4546 44.7664C91.8548 46.2119 90.9756 47.5249 89.8674 48.6302C88.7593 49.7354 87.444 50.6112 85.9969 51.2073C84.5498 51.8034 82.9992 52.1081 81.4342 52.104H81.4335H48.1379H48.0157L47.9407 52.2003L26.5101 79.704C26.3927 79.8418 26.2473 79.9531 26.0835 80.0304L26.1903 80.2564L26.0835 80.0304C25.9184 80.1084 25.7384 80.15 25.5558 80.1525L25.5332 80.1528L25.5111 80.1571C25.3913 80.1806 25.2682 80.1817 25.1481 80.1604C24.9228 80.0768 24.7282 79.9263 24.5905 79.729C24.4492 79.5266 24.375 79.285 24.3781 79.0382V79.035V52.4176ZM91.0012 40.2705V40.2696V12.5392V12.5383C90.9926 10.0065 89.9807 7.58125 88.1874 5.79402C86.394 4.00679 83.9654 3.00325 81.4335 3.00326H12.8388C10.3097 3.00326 7.88422 4.00794 6.09589 5.79626C4.30757 7.58459 3.30289 10.0101 3.30289 12.5392V40.2696C3.30289 42.7987 4.30757 45.2242 6.09589 47.0125C7.88422 48.8008 10.3097 49.8055 12.8388 49.8055H25.5592C25.8724 49.8055 26.1728 49.9299 26.3943 50.1514C26.6158 50.3729 26.7402 50.6733 26.7402 50.9865V74.8373V75.5632L27.1872 74.9912L46.5222 50.2501L46.5244 50.2472C46.6306 50.1073 46.7683 49.9943 46.9263 49.9176C47.0843 49.8408 47.2583 49.8024 47.4339 49.8055V49.8055H47.4382H81.4335C83.9654 49.8055 86.394 48.802 88.1874 47.0147C89.9807 45.2275 90.9926 42.8023 91.0012 40.2705Z" fill="#1D1D1B" stroke="#BCD0ED" stroke-width="0.5"/>
<path d="M75.6128 14.1175H18.371C18.2511 14.0936 18.1274 14.0966 18.0088 14.1263C17.8902 14.156 17.7796 14.2117 17.6851 14.2892C17.5906 14.3668 17.5145 14.4643 17.4622 14.5749C17.4099 14.6854 17.3828 14.8061 17.3828 14.9284C17.3828 15.0507 17.4099 15.1714 17.4622 15.2819C17.5145 15.3924 17.5906 15.49 17.6851 15.5676C17.7796 15.6451 17.8902 15.7007 18.0088 15.7304C18.1274 15.7601 18.2511 15.7632 18.371 15.7393H75.6128C75.7327 15.7632 75.8564 15.7601 75.975 15.7304C76.0936 15.7007 76.2042 15.6451 76.2987 15.5676C76.3932 15.49 76.4693 15.3924 76.5216 15.2819C76.5739 15.1714 76.601 15.0507 76.601 14.9284C76.601 14.8061 76.5739 14.6854 76.5216 14.5749C76.4693 14.4643 76.3932 14.3668 76.2987 14.2892C76.2042 14.2117 76.0936 14.156 75.975 14.1263C75.8564 14.0966 75.7327 14.0936 75.6128 14.1175Z" fill="#1D1D1B"/>
<path d="M75.6116 24.7109H18.3698C18.1505 24.7109 17.9402 24.7981 17.7851 24.9531C17.6301 25.1082 17.543 25.3185 17.543 25.5378C17.543 25.7571 17.6301 25.9674 17.7851 26.1224C17.9402 26.2775 18.1505 26.3646 18.3698 26.3646H75.6116C75.8308 26.3646 76.0412 26.2775 76.1962 26.1224C76.3513 25.9674 76.4384 25.7571 76.4384 25.5378C76.4384 25.3185 76.3513 25.1082 76.1962 24.9531C76.0412 24.7981 75.8308 24.7109 75.6116 24.7109Z" fill="#1D1D1B"/>
<path d="M75.6116 35.5156H18.3698C18.1505 35.5156 17.9402 35.6027 17.7851 35.7578C17.6301 35.9129 17.543 36.1232 17.543 36.3425C17.543 36.5617 17.6301 36.772 17.7851 36.9271C17.9402 37.0822 18.1505 37.1693 18.3698 37.1693H75.6116C75.8308 37.1693 76.0412 37.0822 76.1962 36.9271C76.3513 36.772 76.4384 36.5617 76.4384 36.3425C76.4384 36.1232 76.3513 35.9129 76.1962 35.7578C76.0412 35.6027 75.8308 35.5156 75.6116 35.5156Z" fill="#1D1D1B"/>
</svg>
