<svg id="Layer_1" data-name="Layer 1" xmlns="http://www.w3.org/2000/svg" viewBox="0 0 60 60"><defs><style>.cls-1{fill:#1d1d1b;}</style></defs><path class="cls-1" d="M51.42,32.89A2.28,2.28,0,0,0,52,31L49.19,14.67a3.06,3.06,0,0,0-1.5-2.16,2.3,2.3,0,0,0-2.4.07,2.74,2.74,0,0,0-1.24,2.05l-.85,9a2.79,2.79,0,0,0-.39.1,4.13,4.13,0,0,0-2.65,2.92.61.61,0,0,1,0,.11L39.71,28a1.46,1.46,0,0,1-.34.54L35.2,32.64a7.52,7.52,0,0,0-1.61,2.3,9.19,9.19,0,0,0-.8,3.54L32.46,51a.5.5,0,0,0,.12.33.55.55,0,0,0,.33.14l11,.21h0a.47.47,0,0,0,.33-.14.46.46,0,0,0,.12-.35l-.69-8.81a1.41,1.41,0,0,1,.34-1Zm-8,17.82-10.08-.2.32-12a8.16,8.16,0,0,1,.73-3.18,6.5,6.5,0,0,1,1.41-2L40,29.17a2.28,2.28,0,0,0,.56-.9L41,27a1.05,1.05,0,0,0,0-.19,3.2,3.2,0,0,1,2.07-2.27A1.39,1.39,0,0,1,45,25.84l.08,3.5a1.39,1.39,0,0,1-.25.82L42.1,34.05a.46.46,0,0,0,.12.64.45.45,0,0,0,.63-.12l2.69-3.89A2.27,2.27,0,0,0,46,29.32l-.08-3.5a2.26,2.26,0,0,0-1.76-2.18L45,14.72a1.8,1.8,0,0,1,.83-1.37,1.38,1.38,0,0,1,1.45,0,2.18,2.18,0,0,1,1,1.52l2.76,16.33a1.39,1.39,0,0,1-.32,1.14l-7.36,8.42a2.32,2.32,0,0,0-.56,1.69Z"/><path class="cls-1" d="M24.73,34.94a7.67,7.67,0,0,0-1.6-2.3L19,28.52a1.3,1.3,0,0,1-.35-.54l-.42-1.25,0-.12a4.13,4.13,0,0,0-2.65-2.91,2.79,2.79,0,0,0-.39-.1l-.85-9A2.74,2.74,0,0,0,13,12.58a2.3,2.3,0,0,0-2.4-.07,3.06,3.06,0,0,0-1.5,2.16L6.37,31a2.29,2.29,0,0,0,.54,1.89l7.35,8.42a1.37,1.37,0,0,1,.34,1l-.69,8.81a.47.47,0,0,0,.13.35.44.44,0,0,0,.33.14h0l11-.21a.55.55,0,0,0,.32-.14.51.51,0,0,0,.13-.33l-.33-12.47A9.2,9.2,0,0,0,24.73,34.94ZM14.86,50.71l.65-8.31A2.27,2.27,0,0,0,15,40.71L7.6,32.29a1.36,1.36,0,0,1-.33-1.14L10,14.82a2.17,2.17,0,0,1,1.06-1.52,1.39,1.39,0,0,1,.69-.18,1.3,1.3,0,0,1,.75.23,1.84,1.84,0,0,1,.84,1.37l.84,8.92a2.28,2.28,0,0,0-1.13.65,2.31,2.31,0,0,0-.63,1.53l-.08,3.5a2.27,2.27,0,0,0,.41,1.36l2.69,3.89a.46.46,0,1,0,.75-.52l-2.69-3.89a1.39,1.39,0,0,1-.24-.82l.07-3.5a1.39,1.39,0,0,1,1.85-1.28,3.21,3.21,0,0,1,2.06,2.27l.06.19.42,1.25a2.28,2.28,0,0,0,.56.9l4.18,4.12a6.67,6.67,0,0,1,1.41,2,8.15,8.15,0,0,1,.72,3.18l.32,12Z"/><path class="cls-1" d="M19.94,27.09h4.89v1.44a.46.46,0,0,0,.46.46h7.63a.45.45,0,0,0,.45-.46V27.09h4.89a.46.46,0,0,0,.46-.46V23a5,5,0,0,0-2.12-4.08,3.77,3.77,0,1,0-6.69-2.38,4.4,4.4,0,0,0,.05.51,3.34,3.34,0,0,0-1.72,0,3,3,0,0,0,.06-.51,3.78,3.78,0,1,0-6.7,2.38A5,5,0,0,0,19.48,23v3.63A.47.47,0,0,0,19.94,27.09ZM33.68,13.68a2.85,2.85,0,0,1,1.91,5,.46.46,0,0,0-.15.4.43.43,0,0,0,.23.34A4.12,4.12,0,0,1,37.81,23v3.17H33.37v-.66a4.25,4.25,0,0,0-1.73-3.41,3.17,3.17,0,0,0,.68-2,3.25,3.25,0,0,0-.09-.77,2.34,2.34,0,0,0-.09-.24,4.68,4.68,0,0,0-.18-.48l-.17-.24a2,2,0,0,0-.27-.38,1.61,1.61,0,0,0-.23-.22,1.73,1.73,0,0,0-.28-.26,3,3,0,0,1-.19-1A2.86,2.86,0,0,1,33.68,13.68Zm-3.29,4.54a2.29,2.29,0,0,1,.24,3.63.47.47,0,0,0-.15.39.5.5,0,0,0,.24.35,3.35,3.35,0,0,1,1.74,2.92v2.57H25.75V25.51a3.33,3.33,0,0,1,1.74-2.92.49.49,0,0,0,.23-.35.44.44,0,0,0-.15-.39,2.28,2.28,0,0,1-.77-1.71,2.31,2.31,0,0,1,1-1.92A2.35,2.35,0,0,1,30.39,18.22ZM20.4,23a4.12,4.12,0,0,1,2.14-3.6.46.46,0,0,0,.23-.34.46.46,0,0,0-.15-.4,2.81,2.81,0,0,1-1-2.12,2.86,2.86,0,0,1,5.72,0,2.74,2.74,0,0,1-.19,1,3.32,3.32,0,0,0-.28.26c-.07.07-.16.14-.23.22a3.67,3.67,0,0,0-.27.38c-.05.08-.12.16-.16.24a4.78,4.78,0,0,0-.19.48c0,.08-.06.16-.08.24a3.12,3.12,0,0,0,.58,2.73,4.25,4.25,0,0,0-1.73,3.41v.66H20.4Z"/></svg>