<svg id="Layer_1" data-name="Layer 1" xmlns="http://www.w3.org/2000/svg" viewBox="0 0 60 60"><defs><style>.cls-1{fill:#1d1d1b;}</style></defs><path class="cls-1" d="M56.89,39.74a3.54,3.54,0,0,0-3-.93L41.75,40.58a3.25,3.25,0,0,0-.28-.56,5.38,5.38,0,0,0-4.54-2.47h-.17L35,37.38a2,2,0,0,1-.9-.29l-6.74-4.16a9.93,9.93,0,0,0-3.48-1.35,12.32,12.32,0,0,0-4.84.07L2.54,35.22a.45.45,0,0,0-.35.54L5.45,50.33a.46.46,0,0,0,.22.29.42.42,0,0,0,.36,0l11.35-3.73a2,2,0,0,1,1.57.13l13.42,7a2.9,2.9,0,0,0,1.35.33,3,3,0,0,0,1.17-.24l20.56-8.85A4,4,0,0,0,57.7,42.7,2.92,2.92,0,0,0,56.89,39.74Zm-.06,2.71a3.07,3.07,0,0,1-1.74,2L34.53,53.28a2,2,0,0,1-1.75-.06l-13.41-7A2.94,2.94,0,0,0,18,45.93a3.21,3.21,0,0,0-.92.14L6.22,49.64,3.17,36l16-3.47a11.26,11.26,0,0,1,4.48-.07,9.15,9.15,0,0,1,3.18,1.23l6.73,4.16a3,3,0,0,0,1.3.43l1.78.15h.26a4.47,4.47,0,0,1,3.77,2.06,2,2,0,0,1,0,2.22,2,2,0,0,1-1.19.86L35,44.81a2,2,0,0,1-1.26-.06l-6-2.29a.45.45,0,0,0-.58.26.44.44,0,0,0,.26.58l6,2.29a2.88,2.88,0,0,0,1.81.1l4.58-1.23a2.94,2.94,0,0,0,1.71-1.24,3,3,0,0,0,.47-1.75L54.06,39.7a2.64,2.64,0,0,1,2.21.7A2,2,0,0,1,56.83,42.45Z"/><path class="cls-1" d="M39.44,30.25a6.4,6.4,0,1,0,6.4-6.4A6.41,6.41,0,0,0,39.44,30.25Zm6.4-5.5a5.5,5.5,0,1,1-5.5,5.5A5.5,5.5,0,0,1,45.84,24.75Z"/><path class="cls-1" d="M45.84,34.66a4.42,4.42,0,1,0-4.42-4.41A4.42,4.42,0,0,0,45.84,34.66Zm0-8.32a3.91,3.91,0,1,1-3.91,3.91A3.91,3.91,0,0,1,45.84,26.34Z"/><path class="cls-1" d="M38.61,20.07a6.4,6.4,0,1,0-6.4-6.4A6.41,6.41,0,0,0,38.61,20.07Zm0-11.9a5.5,5.5,0,1,1-5.5,5.5A5.5,5.5,0,0,1,38.61,8.17Z"/><path class="cls-1" d="M38.61,18.08a4.42,4.42,0,1,0-4.42-4.41A4.42,4.42,0,0,0,38.61,18.08Zm0-8.32a3.91,3.91,0,1,1-3.91,3.91A3.91,3.91,0,0,1,38.61,9.76Z"/><path class="cls-1" d="M32,30.9a5.18,5.18,0,1,0-5.19-5.18A5.19,5.19,0,0,0,32,30.9Zm0-9.46a4.28,4.28,0,1,1-4.28,4.28A4.28,4.28,0,0,1,32,21.44Z"/><path class="cls-1" d="M32,29.23a3.51,3.51,0,1,0-3.52-3.51A3.51,3.51,0,0,0,32,29.23Zm0-6.61a3.1,3.1,0,1,1-3.11,3.1A3.1,3.1,0,0,1,32,22.62Z"/></svg>