<svg width="147" height="147" viewBox="0 0 147 147" fill="none" xmlns="http://www.w3.org/2000/svg">
<path d="M101.087 33.772C101.693 34.1623 102.402 34.3641 103.123 34.3518C103.844 34.3394 104.545 34.1135 105.137 33.7026C105.73 33.2918 106.187 32.7144 106.451 32.0435C106.716 31.3726 106.775 30.6384 106.622 29.9338C106.469 29.2292 106.11 28.5857 105.592 28.085C105.073 27.5842 104.417 27.2485 103.708 27.1205C102.998 26.9924 102.266 27.0777 101.605 27.3655C100.944 27.6533 100.383 28.1308 99.9935 28.7375C99.4774 29.5519 99.3028 30.5368 99.5074 31.479C99.7121 32.4213 100.279 33.245 101.087 33.772V33.772Z" stroke="#1D1D1B" stroke-width="2.05026" stroke-linecap="round" stroke-linejoin="round"/>
<path d="M104.818 61.5804C110.65 55.9991 112.29 48.2537 108.463 44.2671C107.512 43.2907 106.303 42.6036 104.978 42.2852L96.5488 55.384L104.226 62.2182L104.818 61.5804Z" stroke="#1D1D1B" stroke-width="2.05026" stroke-linecap="round" stroke-linejoin="round"/>
<path d="M88.1905 35.9224C87.8667 35.5682 87.508 35.2477 87.1198 34.9656C82.5637 31.9813 75.1828 35.0795 70.8317 41.7998C70.3057 42.6027 69.8484 43.4486 69.4648 44.3284H84.0444L89.3979 48.9985L89.5346 48.7251C91.4254 43.6906 90.8786 38.7927 88.1905 35.9224Z" stroke="#1D1D1B" stroke-width="2.05026" stroke-linecap="round" stroke-linejoin="round"/>
<path d="M104.977 42.1894C106.303 42.5078 107.511 43.195 108.463 44.1714C112.29 48.158 110.741 55.9034 104.818 61.4846L104.226 62.0086L111.06 67.9543L134.797 44.7636L107.848 16.6523L103.451 21.2085L114.044 28.0427L104.977 42.1894Z" stroke="#1D1D1B" stroke-width="2.05026" stroke-linecap="round" stroke-linejoin="round"/>
<path d="M126.053 47.6982C126.397 47.3677 126.672 46.9726 126.864 46.5355C127.055 46.0984 127.158 45.628 127.168 45.151C127.177 44.6739 127.093 44.1997 126.919 43.7554C126.745 43.311 126.486 42.9052 126.155 42.5612C125.825 42.2172 125.43 41.9416 124.993 41.7503C124.555 41.5589 124.085 41.4556 123.608 41.446C123.131 41.4365 122.657 41.521 122.212 41.6948C121.768 41.8686 121.362 42.1281 121.018 42.4587C120.674 42.7893 120.399 43.1844 120.207 43.6214C120.016 44.0585 119.913 44.529 119.903 45.006C119.894 45.483 119.978 45.9572 120.152 46.4016C120.326 46.8459 120.585 47.2517 120.916 47.5957C121.246 47.9398 121.641 48.2153 122.078 48.4067C122.516 48.598 122.986 48.7014 123.463 48.7109C123.94 48.7204 124.414 48.6359 124.859 48.4621C125.303 48.2884 125.709 48.0288 126.053 47.6982V47.6982Z" stroke="#1D1D1B" stroke-width="2.05026" stroke-linecap="round" stroke-linejoin="round"/>
<path d="M70.8292 41.8316C75.1803 34.9974 82.4929 31.9676 87.1174 34.9974C87.5055 35.2795 87.8643 35.6 88.188 35.9542C90.9673 38.7106 91.4229 43.7224 89.5093 48.8025L89.3726 49.0758L96.5485 55.3177L104.977 42.2189L114.09 28.1404L103.497 21.3062L81.3311 7L57.252 44.3602H69.4624C69.846 43.4804 70.3032 42.6345 70.8292 41.8316V41.8316ZM99.9884 28.7327C100.378 28.126 100.939 27.6486 101.6 27.3608C102.261 27.0729 102.993 26.9876 103.702 27.1157C104.412 27.2438 105.068 27.5794 105.587 28.0802C106.105 28.581 106.464 29.2244 106.617 29.929C106.77 30.6337 106.711 31.3679 106.446 32.0387C106.182 32.7096 105.725 33.287 105.132 33.6979C104.54 34.1088 103.838 34.3347 103.118 34.347C102.397 34.3594 101.688 34.1576 101.082 33.7672C100.27 33.2443 99.6983 32.4203 99.4933 31.4763C99.2882 30.5323 99.4663 29.5455 99.9884 28.7327Z" stroke="#1D1D1B" stroke-width="2.05026" stroke-linecap="round" stroke-linejoin="round"/>
<path d="M52.6216 119.8H1.22852V69.9108L26.9251 44.4648L52.3483 68.4073L52.6216 119.8Z" stroke="#1D1D1B" stroke-width="1.91357" stroke-linecap="round" stroke-linejoin="round"/>
<path d="M52.349 68.4073L26.9258 44.4648H83.9229L111.351 68.4073H52.349Z" stroke="#1D1D1B" stroke-width="2.05026" stroke-linecap="round" stroke-linejoin="round"/>
<path d="M111.365 68.4062H52.3633L52.6366 119.799H111.365V68.4062Z" stroke="#1D1D1B" stroke-width="2.05026" stroke-linecap="round" stroke-linejoin="round"/>
<path d="M99.9137 87.793H67.793V103.694H99.9137V87.793Z" stroke="#1D1D1B" stroke-width="2.05026" stroke-linecap="round" stroke-linejoin="round"/>
<path d="M83.8613 87.793V103.694" stroke="#1D1D1B" stroke-width="2.05026" stroke-linecap="round" stroke-linejoin="round"/>
<path d="M37.7445 87.793H16.0801V119.8H37.7445V87.793Z" stroke="#1D1D1B" stroke-width="2.05026" stroke-linecap="round" stroke-linejoin="round"/>
</svg>
