<svg id="Layer_1" data-name="Layer 1" xmlns="http://www.w3.org/2000/svg" viewBox="0 0 60 60"><defs><style>.cls-1{fill:#1d1d1b;}</style></defs><path class="cls-1" d="M36.19,44.61H50.5a.46.46,0,0,0,.45-.46V37.07a.45.45,0,0,0-.45-.46H36.19a.45.45,0,0,0-.46.46v7.08A.46.46,0,0,0,36.19,44.61ZM50,43.69H43.8V37.53H50Zm-13.4-6.16h6.24v6.16H36.64Z"/><path class="cls-1" d="M56.5,24.05,42.26,10.92a.42.42,0,0,0-.26-.1H22.8a.37.37,0,0,0-.35.24.38.38,0,0,0,.09.42l6.32,5.82H18a.47.47,0,0,0-.4.26L6.23,28.8a.43.43,0,0,0-.13.3V51.33a.42.42,0,0,0,.42.42H13a.47.47,0,0,0,.17,0H22.8a.53.53,0,0,0,.17,0h6.28a.33.33,0,0,0,.17,0H55.59a.47.47,0,0,0,.46-.46V28.42a.29.29,0,0,0,0-.09.11.11,0,0,0,0,0,.44.44,0,0,0-.13-.2h0L51.72,24.7h4.52a.36.36,0,0,0,.35-.24A.37.37,0,0,0,56.5,24.05ZM28.3,11.58,41.64,23.87H39.25L25.92,11.58Zm2.85,0L44.49,23.87H42.1L28.77,11.58Zm2.85,0L47.33,23.87H45L31.62,11.58Zm2.85,0L50.18,23.87H47.8L34.46,11.58ZM50.73,23.94,37.31,11.58H39.7L53.12,24H50.73ZM25.46,11.58,38.79,23.87H37.22l-6.77-6.14-6.69-6.15ZM7,29.28l11-10.9L28.85,28.62,29,50.91h-5.7V37.07a.46.46,0,0,0-.46-.46H13.15a.46.46,0,0,0-.46.46V50.91H7Zm6.66,21.59V37.53h8.73V50.87Zm41.52,0H29.88l-.11-22H55.13ZM29.49,28,19.13,18.22H29.62l7.11,6.44a.47.47,0,0,0,.31.12H50.36L54.29,28Zm24.09-4L40.16,11.58h1.69L55.27,24Z"/></svg>