<svg id="Layer_1" data-name="Layer 1" xmlns="http://www.w3.org/2000/svg" viewBox="0 0 60 60"><defs><style>.cls-1{fill:#1d1d1b;}</style></defs><path class="cls-1" d="M57.56,18.94H56.29V18.8a1.89,1.89,0,0,0-3.77,0h-.7a1.88,1.88,0,0,0-3.76,0h-.7a1.88,1.88,0,0,0-3.76,0h-.7a1.88,1.88,0,0,0-3.76,0h-.7a1.88,1.88,0,0,0-3.76,0V33.33a1.88,1.88,0,0,0,3.71.41h.79A1.89,1.89,0,0,0,41,35.21a1.87,1.87,0,0,0,1.83-1.47h.8a1.87,1.87,0,0,0,1.83,1.47,1.89,1.89,0,0,0,1.84-1.47h.79a1.87,1.87,0,0,0,1.83,1.47,1.89,1.89,0,0,0,1.84-1.47h.79a1.88,1.88,0,0,0,3.72-.41V21.75h1.27a.41.41,0,0,0,.41-.41v-2A.41.41,0,0,0,57.56,18.94Zm-21,15.45a1.06,1.06,0,0,1-1.06-1.06V18.8a1.06,1.06,0,1,1,2.12,0V33.33A1.06,1.06,0,0,1,36.56,34.39Zm1.88-14.8h.7V32.92h-.7ZM41,34.39A1.06,1.06,0,0,1,40,33.33V18.8a1.06,1.06,0,1,1,2.12,0V33.33A1.06,1.06,0,0,1,41,34.39Zm1.88-14.8h.7V32.92h-.7Zm2.58,14.8a1.06,1.06,0,0,1-1.06-1.06V18.8a1.06,1.06,0,1,1,2.12,0V33.33A1.06,1.06,0,0,1,45.48,34.39Zm1.88-14.8h.7V32.92h-.7Zm2.58,14.8a1.07,1.07,0,0,1-1.06-1.06V18.8a1.06,1.06,0,1,1,2.12,0V33.33A1.06,1.06,0,0,1,49.94,34.39Zm1.89-14.8h.69V32.92h-.69Zm3.64,13.74a1.07,1.07,0,0,1-2.13,0V18.8a1.07,1.07,0,1,1,2.13,0V33.33Zm1.68-12.4h-.86V19.76h.86Z"/><path class="cls-1" d="M49.25,35.68v11.2H24.19l-.11-21.82h9.79v-.91H23.8L13.53,14.48H37.41l2.39,2.08a2.47,2.47,0,0,1,.94-.19l.25,0-3.11-2.71a.46.46,0,0,0-.3-.11H12.38a.45.45,0,0,0-.4.26L.72,25a.38.38,0,0,0-.12.29V47.33a.42.42,0,0,0,.42.42h6.4a.53.53,0,0,0,.17,0h9.58a.47.47,0,0,0,.16,0h6.24a.47.47,0,0,0,.17,0h26a.46.46,0,0,0,.45-.46V35.66a2.07,2.07,0,0,1-.5.06A1.84,1.84,0,0,1,49.25,35.68ZM16.71,46.88H8.05V33.63h8.66Zm.91,0V33.18a.46.46,0,0,0-.45-.46H7.59a.46.46,0,0,0-.45.46V46.91H1.44V25.45L12.36,14.63,23.17,24.8l.11,22.11Z"/></svg>