<svg width="106" height="107" viewBox="0 0 106 107" fill="none" xmlns="http://www.w3.org/2000/svg">
<path d="M42.2543 89.4225H2.1543V50.4225L22.2043 30.5625L42.0443 49.2425L42.2543 89.4225Z" stroke="#1D1D1B" stroke-width="1.5" stroke-linecap="round" stroke-linejoin="round"/>
<path d="M60.1234 49.2425H42.0434L22.1934 30.5625H60.1234" stroke="#1D1D1B" stroke-width="1.6" stroke-linecap="round" stroke-linejoin="round"/>
<path d="M60.1249 49.2422H42.0449L42.2549 89.3622H88.0949V71.1522" stroke="#1D1D1B" stroke-width="1.6" stroke-linecap="round" stroke-linejoin="round"/>
<path d="M62.7938 64.4219H54.0938V76.8219H79.1638" stroke="#1D1D1B" stroke-width="1.6" stroke-linecap="round" stroke-linejoin="round"/>
<path d="M66.625 68.6445V76.7945" stroke="#1D1D1B" stroke-width="1.6" stroke-linecap="round" stroke-linejoin="round"/>
<path d="M30.6539 64.4219H13.7539V89.4219H30.6539V64.4219Z" stroke="#1D1D1B" stroke-width="1.6" stroke-linecap="round" stroke-linejoin="round"/>
<path d="M84.4043 51.5714C83.2649 51.4069 82.17 51.0159 81.1843 50.4214C81.1384 51.3595 80.8729 52.2738 80.4093 53.0906C79.9456 53.9074 79.2966 54.6039 78.5146 55.1241C77.7326 55.6443 76.8394 55.9737 75.9069 56.0857C74.9743 56.1977 74.0285 56.0892 73.1456 55.7689C72.2626 55.4487 71.4672 54.9256 70.8233 54.2418C70.1794 53.558 69.705 52.7326 69.4383 51.8321C69.1717 50.9315 69.1201 49.9809 69.2879 49.0567C69.4557 48.1326 69.838 47.2608 70.4043 46.5114C71.157 45.5139 72.2024 44.7763 73.3946 44.4016C74.5868 44.027 75.8662 44.0339 77.0543 44.4214C76.9555 43.8869 76.902 43.3449 76.8943 42.8014C76.8938 42.1755 76.9643 41.5515 77.1043 40.9414" stroke="#1D1D1B" stroke-width="0.55" stroke-linecap="round" stroke-linejoin="round"/>
<path d="M90.545 69.5327L79.165 77.0527L67.855 69.5327C65.4819 67.9696 63.5336 65.8424 62.1846 63.3415C60.8356 60.8407 60.1279 58.0442 60.125 55.2027V23.2227H98.265V55.2227C98.2614 58.063 97.5545 60.8582 96.2074 63.3587C94.8603 65.8592 92.9149 67.9872 90.545 69.5527V69.5327Z" stroke="#1D1D1B" stroke-width="1.6" stroke-linecap="round" stroke-linejoin="round"/>
<path d="M77.105 40.9044C77.1926 40.4997 77.3096 40.102 77.4551 39.7144C76.7382 39.5632 76.0077 39.4861 75.2751 39.4844C73.2632 39.4821 71.2926 40.0551 69.5957 41.1358C67.8987 42.2165 66.5462 43.7599 65.6975 45.584C64.8488 47.4081 64.5394 49.4369 64.8058 51.4311C65.0721 53.4252 65.9031 55.3016 67.2007 56.8391C68.4984 58.3765 70.2086 59.5109 72.1297 60.1084C74.0508 60.7059 76.1027 60.7416 78.0434 60.2114C79.9841 59.6811 81.7328 58.607 83.0832 57.1157C84.4336 55.6244 85.3294 53.7781 85.6651 51.7944C85.2514 51.7309 84.8336 51.6975 84.4151 51.6944" stroke="#1D1D1B" stroke-width="1.11" stroke-linecap="round" stroke-linejoin="round"/>
<path d="M77.0542 44.4228C75.5782 43.9683 73.983 44.1075 72.608 44.8109C71.2331 45.5144 70.1868 46.7265 69.6918 48.1894C69.1967 49.6524 69.292 51.2508 69.9573 52.6446C70.6226 54.0384 71.8054 55.1177 73.2542 55.6528C74.4197 56.0648 75.684 56.1067 76.8742 55.7728C78.0584 55.4355 79.1074 54.7362 79.8742 53.7728C80.6432 52.8164 81.1004 51.6472 81.1842 50.4228C80.1128 49.7691 79.1913 48.8969 78.4796 47.863C77.768 46.8292 77.2823 45.657 77.0542 44.4228V44.4228Z" stroke="#1D1D1B" stroke-width="0.55" stroke-linecap="round" stroke-linejoin="round"/>
<path d="M85.8145 33.8518C83.9935 33.838 82.2125 34.3862 80.7145 35.4218C79.2233 36.4722 78.0864 37.9508 77.4545 39.6618C77.3123 40.0539 77.1954 40.4547 77.1045 40.8618C76.965 41.472 76.8946 42.0959 76.8945 42.7218C76.8976 43.2921 76.9512 43.861 77.0545 44.4218C77.2826 45.656 77.7684 46.8282 78.48 47.8621C79.1916 48.8959 80.1131 49.7681 81.1845 50.4218C82.1711 51.0128 83.2659 51.4004 84.4045 51.5618C84.811 51.6324 85.2221 51.6726 85.6345 51.6818H85.7745C88.0873 51.6043 90.2794 50.6312 91.888 48.9677C93.4967 47.3043 94.3959 45.0808 94.3959 42.7668C94.3959 40.4528 93.4967 38.2293 91.888 36.5659C90.2794 34.9025 88.0873 33.9293 85.7745 33.8518H85.8145Z" stroke="#1D1D1B" stroke-width="1.11" stroke-linecap="round" stroke-linejoin="round"/>
<path d="M85.8151 47.7942H85.5651C85.1115 47.7725 84.6634 47.685 84.2351 47.5342C83.2236 47.2148 82.3385 46.585 81.7051 45.7342C81.0681 44.8852 80.7179 43.8555 80.7051 42.7942V42.5842C80.7234 42.1311 80.8076 41.6831 80.9551 41.2542C81.2442 40.3799 81.7692 39.6025 82.4722 39.0076C83.1751 38.4127 84.0287 38.0235 84.9387 37.8829C85.8488 37.7422 86.78 37.8557 87.6297 38.2107C88.4794 38.5657 89.2146 39.1485 89.7541 39.8947C90.2937 40.641 90.6166 41.5218 90.6874 42.4399C90.7582 43.3581 90.574 44.2779 90.1552 45.0981C89.7364 45.9182 89.0993 46.6068 88.314 47.0878C87.5288 47.5689 86.626 47.8237 85.7051 47.8242L85.8151 47.7942Z" stroke="#1D1D1B" stroke-width="0.55" stroke-linecap="round" stroke-linejoin="round"/>
</svg>
