<svg width="106" height="107" viewBox="0 0 106 107" fill="none" xmlns="http://www.w3.org/2000/svg">
<path d="M40.9231 89.4746H0.976562V50.6714L20.941 30.8828L40.7296 49.4929L40.9231 89.4746Z" stroke="#1D1D1B" stroke-width="1.47755" stroke-linecap="round" stroke-linejoin="round"/>
<path d="M72.1669 49.4929H40.7339L20.9453 30.8828H65.2893L72.2373 36.9337" stroke="#1D1D1B" stroke-width="1.60068" stroke-linecap="round" stroke-linejoin="round"/>
<path d="M80.0234 43.7422L86.602 49.4941H80.1642" stroke="#1D1D1B" stroke-width="1.60068" stroke-linecap="round" stroke-linejoin="round"/>
<path d="M72.1674 49.4844H40.7344L40.9279 89.4661H86.6087V49.4844H80.1708" stroke="#1D1D1B" stroke-width="1.60068" stroke-linecap="round" stroke-linejoin="round"/>
<path d="M77.7276 73.7756V76.9418H52.75V64.5938H68.3522" stroke="#1D1D1B" stroke-width="1.60068" stroke-linecap="round" stroke-linejoin="round"/>
<path d="M65.2344 64.5938V76.9418" stroke="#1D1D1B" stroke-width="1.60068" stroke-linecap="round" stroke-linejoin="round"/>
<path d="M29.3725 64.5938H12.5391V89.4834H29.3725V64.5938Z" stroke="#1D1D1B" stroke-width="1.60068" stroke-linecap="round" stroke-linejoin="round"/>
<path d="M80.0302 59.4651V16.1061C80.0258 15.0856 79.622 14.1073 78.9053 13.3808C78.1886 12.6542 77.216 12.2371 76.1956 12.2188V12.2188C75.1646 12.2188 74.1759 12.6283 73.4468 13.3573C72.7178 14.0864 72.3083 15.0751 72.3083 16.1061V59.4651C70.8279 60.3223 69.6717 61.6438 69.0186 63.2249C68.3655 64.8059 68.2521 66.5582 68.6959 68.2102C69.1397 69.8623 70.116 71.3218 71.4735 72.3627C72.8309 73.4036 74.4938 73.9678 76.2044 73.9678C77.915 73.9678 79.5779 73.4036 80.9353 72.3627C82.2928 71.3218 83.2691 69.8623 83.7129 68.2102C84.1567 66.5582 84.0433 64.8059 83.3902 63.2249C82.7371 61.6438 81.5809 60.3223 80.1006 59.4651H80.0302Z" stroke="#1D1D1B" stroke-width="1.60068" stroke-linecap="round" stroke-linejoin="round"/>
<path d="M77.7738 61.7673V16.8956C77.7738 16.4571 77.5996 16.0366 77.2895 15.7265C76.9794 15.4164 76.5589 15.2422 76.1203 15.2422C75.6818 15.2422 75.2613 15.4164 74.9512 15.7265C74.6411 16.0366 74.4669 16.4571 74.4669 16.8956V61.7673C73.4325 62.1547 72.5671 62.893 72.0215 63.8534C71.4759 64.8138 71.2849 65.9353 71.4817 67.0221C71.6786 68.1089 72.2508 69.0922 73.0986 69.8002C73.9464 70.5082 75.0158 70.896 76.1203 70.896C77.2249 70.896 78.2943 70.5082 79.1421 69.8002C79.9898 69.0922 80.5621 68.1089 80.7589 67.0221C80.9558 65.9353 80.7648 64.8138 80.2192 63.8534C79.6736 62.893 78.8081 62.1547 77.7738 61.7673Z" stroke="#1D1D1B" stroke-width="0.545285" stroke-linecap="round" stroke-linejoin="round"/>
<path d="M77.7699 61.7706V30.8125H74.4278V61.7706C73.3935 62.158 72.528 62.8963 71.9824 63.8567C71.4368 64.8171 71.2458 65.9386 71.4427 67.0254C71.6395 68.1122 72.2118 69.0954 73.0595 69.8035C73.9073 70.5115 74.9767 70.8993 76.0813 70.8993C77.1858 70.8993 78.2552 70.5115 79.103 69.8035C79.9508 69.0954 80.523 68.1122 80.7199 67.0254C80.9167 65.9386 80.7257 64.8171 80.1801 63.8567C79.6346 62.8963 78.7691 62.158 77.7347 61.7706H77.7699Z" fill="#1D1D1B"/>
</svg>
