<svg id="Layer_1" data-name="Layer 1" xmlns="http://www.w3.org/2000/svg" viewBox="0 0 60 60"><defs><style>.cls-1{fill:#1d1d1b;}</style></defs><path class="cls-1" d="M34.85,36.26A15.21,15.21,0,1,0,19.64,51.47,15.22,15.22,0,0,0,34.85,36.26ZM19.64,50.57A14.32,14.32,0,1,1,34,36.26,14.33,14.33,0,0,1,19.64,50.57Z"/><path class="cls-1" d="M19.64,24.19A12.07,12.07,0,1,0,31.71,36.26,12.08,12.08,0,0,0,19.64,24.19Zm0,23.62A11.56,11.56,0,1,1,31.2,36.26,11.56,11.56,0,0,1,19.64,47.81Z"/><path class="cls-1" d="M50.6,23.45h-.78V19.14a.45.45,0,0,0-.45-.45h-.78V14.83h.78a.45.45,0,0,0,.45-.45V9.63a.45.45,0,0,0-.45-.45h-28a.45.45,0,0,0-.45.45v4.3h-.78a.45.45,0,0,0-.45.45v4.76a.45.45,0,0,0,.45.45h.78v.24c.3,0,.6,0,.89.05v-.29h1.43v.51c.17,0,.34.08.51.12v-.63h2.13v1.29l.51.19V19.59h2.13v2.6l.51.31V19.59h2.12v3.86H30.3c.34.28.67.58,1,.89h1.09v1.18c.18.21.35.44.52.66V24.34H35V28.2h-.81c.16.29.3.6.44.9h1.78V33h-.57c.06.3.1.59.14.89h1.84v3.87H36c0,.3-.08.59-.14.89h2v3.86H35.72V39.35a15.12,15.12,0,0,1-.52,1.74v1.38h-.56a13.46,13.46,0,0,1-.85,1.59v3.17H31.67v-.39a16.48,16.48,0,0,1-1.37,1.28H49.37a.45.45,0,0,0,.45-.44V42.92a.45.45,0,0,0-.45-.45h-.78V33.85h.78a.45.45,0,0,0,.45-.44V29.1h.78a.45.45,0,0,0,.45-.45V23.89A.45.45,0,0,0,50.6,23.45Zm-1.67-3.86v3.86H47.5V19.59h1.43ZM46.27,37.72V33.85H47.7v3.87Zm1.43.89v3.86H46.27V38.61ZM47,33H44.86V29.1H47Zm-8.64,4.76V33.85h2.13v3.87Zm2.13.89v3.86H38.35V38.61ZM39.58,33V29.1h2.13V33ZM36.94,19.59h2.13v3.86H36.94Zm-1.22-.9V14.83h2.12v3.86Zm11.27.9v3.86H44.86V19.59Zm-.72-.9V14.83H47.7v3.86Zm-.69,5.65V28.2H43.45V24.34Zm.18-5.65H43.63V14.83h2.13Zm-1.41.9v3.86H42.22V19.59Zm-1.41,4.75V28.2H40.81V24.34Zm.18-5.65H41V14.83h2.13Zm-1.41.9v3.86H39.58V19.59Zm-1.23-.9H38.35V14.83h2.13Zm-2.31,5.65H40.3V28.2H38.17ZM41,38.61h2.13v3.86H41Zm0-.89V33.85h2.13v3.87ZM42.22,33V29.1h2.13V33Zm1.41,5.65h2.13v3.86H43.63Zm0-.89V33.85h2.13v3.87Zm2.46-9.52V24.34h2.13V28.2ZM47.5,10.07h1.43v3.86H47.5Zm-2.64,0H47v3.86H44.86Zm-2.64,0h2.13v3.86H42.22Zm-2.64,0h2.13v3.86H39.58Zm-2.64,0h2.13v3.86H36.94Zm-2.63,0h2.12v3.86H34.31Zm.89,4.76v3.86H33.08V14.83Zm-3.53-4.76h2.12v3.86H31.67Zm-2.64,0h2.12v3.86H29Zm-2.64,0h2.13v3.86H26.39Zm-2.64,0h2.13v3.86H23.75Zm-1.94,0h1.43v3.86H21.81Zm.2,8.62H20.58V14.83H22Zm2.64,0H22.52V14.83h2.13Zm2.64,0H25.16V14.83h2.13Zm2.64,0H27.8V14.83h2.13Zm.51,0V14.83h2.13v3.86Zm3.35,4.76H31.67V19.59h2.12Zm.52,0V19.59h2.12v3.86Zm1.22,4.75V24.34h2.13V28.2ZM36.94,33V29.1h2.13V33Zm-.51,14.27H34.31V43.37h2.12Zm2.64,0H36.94V43.37h2.13Zm2.64,0H39.58V43.37h2.13Zm2.64,0H42.22V43.37h2.13Zm2.64,0H44.86V43.37H47Zm1.94-3.86v3.86H47.5V43.37h1.43Zm0-10.41H47.5V29.1h1.43Zm1.22-4.76H48.73V24.34h1.42Z"/></svg>