<svg id="Layer_1" data-name="Layer 1" xmlns="http://www.w3.org/2000/svg" viewBox="0 0 60 60"><defs><style>.cls-1{fill:#1d1d1b;}</style></defs><path class="cls-1" d="M53.36,24.21H51v-.49a3,3,0,0,0-5.9,0v.2H43.39v-.2a2.95,2.95,0,0,0-5.9,0v.2H35.82v-.2a2.87,2.87,0,0,0-.4-1.45l-.59.91a1.91,1.91,0,0,1,.09.54V48.38a2,2,0,0,1-4.1,0v-19l-.9,1.4V47.93H28.25V33.4l-.91,1.4V48.38a2,2,0,1,1-4.09,0V41.16l-.91,1.4v5.37H20.68V43.36a1.19,1.19,0,0,1-.26-.11l-.65-.42v5.55a2,2,0,1,1-4.09,0V40.19l-.91-.58v8.77a2.95,2.95,0,0,0,5.86.45h1.76a2.94,2.94,0,0,0,5.81,0H30a2.94,2.94,0,0,0,5.81,0h1.76a2.94,2.94,0,0,0,5.81,0H45.1A2.95,2.95,0,0,0,51,48.38V28.5h2.4a.46.46,0,0,0,.45-.46V24.66A.45.45,0,0,0,53.36,24.21ZM37.49,47.93H35.82V24.83h1.67Zm5-23.56v24a2.05,2.05,0,0,1-4.1,0V23.72a2.05,2.05,0,0,1,4.1,0Zm2.57,23.56H43.39V24.83h1.67Zm5-23.27V48.38a2,2,0,0,1-4.1,0V23.72a2.05,2.05,0,0,1,4.1,0Zm2.85,2.93H51V25.11h1.95Z"/><path class="cls-1" d="M21.18,42a.51.51,0,0,1-.24-.07L6.57,32.69a.44.44,0,0,1-.19-.29.42.42,0,0,1,.06-.34L23.35,5.82A.45.45,0,0,1,24,5.68l14.37,9.26a.47.47,0,0,1,.14.63L21.56,41.81a.45.45,0,0,1-.28.2ZM7.44,32.17l13.61,8.77L37.47,15.46,23.86,6.69Z"/><path class="cls-1" d="M12,33.21a2.12,2.12,0,1,1,1.15-3.9h0a2.11,2.11,0,0,1-.7,3.85A2.3,2.3,0,0,1,12,33.21Zm0-3.72a1.6,1.6,0,0,0-1.57,1.94,1.57,1.57,0,0,0,.7,1,1.55,1.55,0,0,0,1.2.22,1.57,1.57,0,0,0,1-.69A1.6,1.6,0,0,0,12,29.49Z"/><path class="cls-1" d="M33.27,18.31a1.87,1.87,0,0,1-1-.29,1.83,1.83,0,0,1-.8-1.17,1.85,1.85,0,0,1,2.81-2,1.87,1.87,0,0,1,.56,2.57A1.85,1.85,0,0,1,33.27,18.31Zm0-3.19a1.33,1.33,0,0,0-.28,0,1.38,1.38,0,0,0-.85.58,1.34,1.34,0,0,0-.18,1,1.38,1.38,0,0,0,.58.85A1.35,1.35,0,1,0,34,15.33h0A1.35,1.35,0,0,0,33.27,15.12Z"/><path class="cls-1" d="M21.1,29.87a3.54,3.54,0,0,1-1.92-.54c-2.14-1.39-2.27-5-.28-8.12A8.38,8.38,0,0,1,22.55,18a4.05,4.05,0,0,1,3.86.11c2.15,1.39,2.28,5,.28,8.12A8.35,8.35,0,0,1,23,29.45,5.07,5.07,0,0,1,21.1,29.87Zm3.4-11.78a4.65,4.65,0,0,0-1.75.38,7.85,7.85,0,0,0-3.42,3c-1.83,2.85-1.78,6.17.13,7.4a3.54,3.54,0,0,0,3.38.08,7.8,7.8,0,0,0,3.42-3c1.84-2.85,1.78-6.17-.13-7.4A2.93,2.93,0,0,0,24.5,18.09Z"/></svg>