<svg id="Layer_1" data-name="Layer 1" xmlns="http://www.w3.org/2000/svg" viewBox="0 0 60 60"><defs><style>.cls-1{fill:#1d1d1b;}</style></defs><path class="cls-1" d="M42.66,35.64A12,12,0,1,0,26.51,24h-.77a10.93,10.93,0,0,1,.46-2.82.46.46,0,0,0-.16-.49.45.45,0,0,0-.51,0L19.74,24h-14a.43.43,0,0,0-.38.2.44.44,0,0,0,0,.43l.88,2.18H4a.46.46,0,0,0-.38.2.47.47,0,0,0,0,.43l11.83,29.3a.46.46,0,0,0,.43.28H48.14a.46.46,0,0,0,.38-.2.47.47,0,0,0,0-.43l-.89-2.18h1.81a.44.44,0,0,0,.38-.2.47.47,0,0,0,.05-.43ZM20,24.94h4l1.14,2.82H20.94L19.8,24.94Zm6.93,0H28.7l1.14,2.82H25.67l-1.13-2.82h2.4Zm9.39,7.18H32.17l-1.55-3.84h4.17Zm-1-3.84H38.7l1.54,3.84H36.9ZM20.92,40.84H16.75L15.21,37h4.16Zm-1-3.84h4.17l1.55,3.84H21.49Zm-3.75,3.84H12.84L11.3,37h3.34Zm.21.52L18,45.2H14.6l-1.54-3.84Zm.57,0h4.16l1.55,3.84H18.52Zm4.73,0h4.17l1.55,3.84H23.25Zm4.73,0H30.6l1.55,3.84H28Zm-.21-.52L24.67,37h4.17l1.55,3.84Zm2.41-4.36H24.46l-1.55-3.84h4.17Zm-1-3.84h4.16l1.55,3.84H29.19ZM29.41,37h4.16l1.55,3.84H31Zm4.73,0h4.17l1.55,3.84H35.69Zm-.21-.52-1.55-3.84h4.17l1.55,3.84ZM31.6,32.12H27.43l-1.54-3.84h4.16Zm-4.73,0H22.7l-1.55-3.84h4.17Zm-4.73,0H18l-1.55-3.84h4.17Zm.21.52,1.55,3.84H19.73l-1.55-3.84Zm-3.19,3.84H15l-1.54-3.84h4.16Zm-4.73,0H11.08L9.54,32.64h3.34Zm.39,9.24h3.34l1.55,3.83H16.37Zm3.91,0h4.16l1.55,3.83H20.28Zm4.73,0h4.17l1.55,3.83H25Zm4.73,0h4.17l1.55,3.83H29.74Zm4.74,0h4.16l1.55,3.83H34.48Zm-.21-.52-1.55-3.84h4.16l1.55,3.84Zm3.18-3.84h4.17l1.55,3.84H37.45Zm4.73,0H44l1.55,3.84H42.18Zm-.21-.52L38.87,37h3.35l1.55,3.84Zm-1.76-4.36-1.55-3.84h3.35L42,36.48Zm-.18-8.72H35.14L34,24.94h3.35Zm-5-2.82,1.13,2.82H30.41l-1.14-2.82ZM20.38,27.76H16.21l-1.14-2.82h4.17Zm-4.74,0H11.47l-1.13-2.82H14.5Zm.21.52,1.55,3.84H13.23l-1.54-3.84Zm-3.18,3.84H9.32L7.77,28.28h3.35Zm3.91,18h3.34l1.31,3.25H17.89Zm5.22,3.25-1.31-3.25h4.16L26,53.33Zm4.73,0-1.31-3.25h4.17l1.31,3.25Zm4.74,0L30,50.08h4.17l1.31,3.25Zm4.73,0-1.31-3.25h4.16l1.32,3.25Zm4.73,0-1.31-3.25h4.17l1.31,3.25Zm-1.52-3.78-1.55-3.83h4.17l1.55,3.83Zm3.18-3.83h3.35l1.55,3.83H43.94Zm-4-32.31a11,11,0,0,1,3.88,21.38L38.09,24.31a.46.46,0,0,0-.43-.28H27.41A11.05,11.05,0,0,1,38.44,13.41ZM25.05,22a13.45,13.45,0,0,0-.24,2H21.57ZM9.77,24.94l1.14,2.82H7.56L6.43,24.94Zm37.69,31.2H16.09L4.63,27.75H6.57L17.15,54a.46.46,0,0,0,.43.28H46.7ZM47,53.33H45.47l-1.32-3.25H47.5l1.31,3.25Z"/><path class="cls-1" d="M35.21,12.2a11.28,11.28,0,0,1,6.46,0h.13a.48.48,0,0,0,.37-.17.45.45,0,0,0,0-.51L38.84,5.71a.44.44,0,0,0-.4-.23.43.43,0,0,0-.39.23l-3.36,5.82a.45.45,0,0,0,0,.51A.47.47,0,0,0,35.21,12.2Zm3.23-5.35,2.43,4.2a11.89,11.89,0,0,0-4.85,0Z"/><path class="cls-1" d="M57.18,24l-5.82-3.36a.45.45,0,0,0-.51,0,.46.46,0,0,0-.16.49,11.11,11.11,0,0,1,0,6.46.46.46,0,0,0,.16.49.42.42,0,0,0,.28.1.46.46,0,0,0,.23-.06l5.82-3.36a.46.46,0,0,0,.23-.4A.48.48,0,0,0,57.18,24Zm-5.34,2.83a12.37,12.37,0,0,0,0-4.85L56,24.44Z"/><path class="cls-1" d="M27,18.3h.06a.46.46,0,0,0,.4-.24,11.26,11.26,0,0,1,4.57-4.57.47.47,0,0,0-.1-.85l-6.49-1.74A.47.47,0,0,0,25,11a.48.48,0,0,0-.12.44L26.65,18A.46.46,0,0,0,27,18.3Zm3.65-5A11.25,11.25,0,0,0,28.8,14.8a11.77,11.77,0,0,0-1.54,1.89L26,12Z"/><path class="cls-1" d="M49.84,30.58a.44.44,0,0,0-.45.24,11.26,11.26,0,0,1-4.57,4.57.45.45,0,0,0-.24.45.46.46,0,0,0,.34.39L51.41,38l.12,0a.47.47,0,0,0,.33-.14.44.44,0,0,0,.11-.44l-1.74-6.49A.45.45,0,0,0,49.84,30.58ZM46.2,35.63a12,12,0,0,0,3.43-3.43l1.25,4.68Z"/><path class="cls-1" d="M47.44,15.45a11.46,11.46,0,0,1,2,2.62.45.45,0,0,0,.4.24h.05a.44.44,0,0,0,.39-.33L52,11.47a.45.45,0,0,0-.11-.44.47.47,0,0,0-.45-.12l-6.49,1.74a.46.46,0,0,0-.1.85A11.17,11.17,0,0,1,47.44,15.45ZM50.88,12l-1.25,4.69a11.77,11.77,0,0,0-1.54-1.89,12.12,12.12,0,0,0-1.89-1.54Z"/></svg>